SplineFontDB: 3.0
FontName: GoldenDragonSolid
FullName: Golden Dragon Solid
FamilyName: GoldenDragon 
Weight: Black
Copyright: Copyright (c) 2017, Alberto de la Cruz
UComments: "2017-11-29: Created with FontForge (http://fontforge.org)"
Version: 001.000
DefaultBaseFilename: golden-dragon-solid
ItalicAngle: 0
UnderlinePosition: -102
UnderlineWidth: 51
Ascent: 800
Descent: 225
InvalidEm: 0
LayerCount: 2
Layer: 0 0 "Back" 1
Layer: 1 0 "Fore" 0
XUID: [1021 97 -1070742597 4711661]
FSType: 0
OS2Version: 0
OS2_WeightWidthSlopeOnly: 0
OS2_UseTypoMetrics: 1
CreationTime: 1511978515
ModificationTime: 1512428565
PfmFamily: 17
TTFWeight: 900
TTFWidth: 5
LineGap: 92
VLineGap: 0
OS2TypoAscent: 0
OS2TypoAOffset: 1
OS2TypoDescent: 0
OS2TypoDOffset: 1
OS2TypoLinegap: 92
OS2WinAscent: 0
OS2WinAOffset: 1
OS2WinDescent: 0
OS2WinDOffset: 1
HheadAscent: 0
HheadAOffset: 1
HheadDescent: 0
HheadDOffset: 1
OS2Vendor: 'PfEd'
Lookup: 258 0 0 "'kern' Horizontal Kerning in Latin lookup 0" { "'kern' Horizontal Kerning in Latin lookup 0-1" [153,15,0] } ['    ' ('DFLT' <'dflt' > 'latn' <'dflt' > ) 'kern' ('DFLT' <'dflt' > 'latn' <'dflt' > ) ]
MarkAttachClasses: 1
DEI: 91125
KernClass2: 1 1 "'kern' Horizontal Kerning in Latin lookup 0-1"
 0 {}
LangName: 1033
Encoding: mac
UnicodeInterp: none
NameList: AGL For New Fonts
DisplaySize: -48
AntiAlias: 1
FitToEm: 0
WinInfo: 23 23 11
BeginPrivate: 0
EndPrivate
TeXData: 1 0 0 346030 173015 115343 0 1048576 115343 783286 444596 497025 792723 393216 433062 380633 303038 157286 324010 404750 52429 2506097 1059062 262144
BeginChars: 257 223

StartChar: A
Encoding: 65 65 0
Width: 637
VWidth: 0
Flags: W
HStem: 0.5 797.5<93.2893 278.469 343.07 615>
VStem: 24.5117 253.957<0.955864 237.987 399.255 629.881> 343.07 271.93<0.5 237.987 399.255 648.727>
LayerCount: 2
Fore
SplineSet
615.106445312 0.5 m 1
 343.0703125 0.5 l 1
 343.0703125 237.987304688 l 1
 278.46875 237.987304688 l 1
 278.46875 0.5 l 1
 20.44921875 0.5 l 1
 20.44921875 0.5 21.806640625 629.330078125 24.51171875 653.635742188 c 0
 27.1962890625 677.98046875 34.0888671875 701.34375 45.12109375 723.752929688 c 0
 56.162109375 746.192382812 73.287109375 764.154296875 96.515625 777.698242188 c 0
 119.752929688 791.22265625 148.987304688 798 184.209960938 798 c 2
 615 798 l 1
 615.106445312 0.5 l 1
310.764648438 399.254882812 m 1
 343.0703125 399.254882812 l 1
 343.0703125 648.7265625 l 1
 310.775390625 648.7265625 l 2
 296.40234375 647.95703125 287.40234375 641.930664062 283.965820312 630.475585938 c 0
 280.279296875 618.211914062 278.46875 579.29296875 278.46875 513.719726562 c 2
 278.46875 399.254882812 l 1
 310.764648438 399.254882812 l 1
EndSplineSet
Validated: 1
EndChar

StartChar: B
Encoding: 66 66 1
Width: 638
VWidth: 0
Flags: W
HStem: 1.89258 152.425<290.028 362.501> 676.692 124.308<290.646 362.156>
VStem: 19 271.028<154.317 363.002 518.728 676.692> 366.915 237.526<157.13 183.031 183.125 343.419 538.17 657.193>
LayerCount: 2
Fore
SplineSet
580.91015625 406.716796875 m 0
 592.994140625 384.237304688 600.551757812 360.821289062 603.495117188 336.411132812 c 0
 606.458007812 312.020507812 604.44140625 183.03125 604.44140625 183.03125 c 2
 604.190429688 166.546875 603.737304688 153.00390625 602.96484375 146.634765625 c 0
 600.020507812 122.234375 592.463867188 98.80859375 580.37890625 76.328125 c 0
 568.293945312 53.83984375 549.521484375 35.8203125 524.069335938 22.248046875 c 0
 498.616210938 8.6787109375 466.590820312 1.892578125 428.001953125 1.892578125 c 2
 19 1.3623046875 l 1
 19 801 l 1
 428.533203125 801 l 2
 467.122070312 801 499.147460938 794.205078125 524.600585938 780.634765625 c 0
 550.051757812 767.064453125 568.825195312 749.04296875 580.91015625 726.553710938 c 0
 592.994140625 704.075195312 600.551757812 680.649414062 603.495117188 656.249023438 c 0
 605.155273438 642.524414062 605.3671875 623.403320312 605.223632812 609.311523438 c 0
 605.42578125 588.463867188 605.357421875 557.403320312 603.495117188 542.017578125 c 0
 600.551757812 517.6171875 592.994140625 494.192382812 580.91015625 471.712890625 c 0
 574.384765625 459.561523438 565.833007812 448.760742188 555.3984375 439.215820312 c 1
 565.833007812 429.668945312 574.384765625 418.868164062 580.91015625 406.716796875 c 0
290.646484375 676.692382812 m 1
 290.646484375 518.727539062 l 1
 328.288085938 518.766601562 l 2
 347.37109375 518.766601562 358.721679688 525.137695312 362.331054688 537.858398438 c 0
 364.047851562 543.948242188 367.532226562 586.205078125 367.118164062 594.360351562 c 0
 366.307617188 627.891601562 364.713867188 649.125976562 362.331054688 657.599609375 c 0
 358.721679688 670.33203125 347.379882812 676.692382812 328.288085938 676.692382812 c 2
 290.646484375 676.692382812 l 1
327.6796875 363.001953125 m 2
 290.028320312 363.001953125 l 1
 290.028320312 154.317382812 l 1
 327.670898438 154.317382812 l 1
 327.670898438 154.346679688 l 2
 332.3125 154.346679688 336.482421875 154.7421875 340.208007812 155.494140625 c 0
 344.223632812 156.643554688 347.997070312 158.034179688 351.26953125 159.654296875 c 0
 356.491210938 162.8203125 360.005859375 167.396484375 361.72265625 173.436523438 c 0
 364.59765625 183.66015625 366.336914062 212.094726562 366.915039062 258.673828125 c 0
 366.336914062 305.254882812 364.59765625 333.689453125 361.72265625 343.911132812 c 0
 358.11328125 356.641601562 346.771484375 363.001953125 327.6796875 363.001953125 c 2
EndSplineSet
Validated: 33
EndChar

StartChar: C
Encoding: 67 67 2
Width: 489
VWidth: 0
Flags: W
HStem: 0 153.641<292.956 463.728> 643.859 153.65<292.956 463.718>
VStem: 22.4336 264.129<173.21 624.29>
LayerCount: 2
Fore
SplineSet
463.717773438 153.8984375 m 2
 463.727539062 153.8984375 l 1
 463.727539062 0 l 1
 206.797851562 0 l 2
 167.141601562 0 134.224609375 6.9697265625 108.076171875 20.919921875 c 0
 81.9287109375 34.869140625 62.6357421875 53.38671875 50.2177734375 76.490234375 c 0
 37.80078125 99.5927734375 30.0263671875 123.663085938 27.0107421875 148.73828125 c 0
 24.2333984375 171.677734375 22.69140625 215.385742188 22.4716796875 279.763671875 c 1
 22.43359375 279.763671875 l 1
 22.43359375 517.745117188 l 1
 22.4619140625 517.745117188 l 1
 22.69140625 582.114257812 24.2236328125 625.830078125 27 648.770507812 c 0
 30.0263671875 673.845703125 37.791015625 697.916015625 50.208984375 721.009765625 c 0
 62.626953125 744.123046875 81.919921875 762.629882812 108.067382812 776.580078125 c 0
 134.224609375 790.529296875 167.130859375 797.509765625 206.7890625 797.509765625 c 2
 463.717773438 797.509765625 l 1
 463.717773438 643.801757812 l 2
 462.127929688 643.916992188 332.692382812 644.032226562 326.439453125 644.032226562 c 2
 326.439453125 643.859375 l 2
 308.124023438 643.859375 296.903320312 637.559570312 292.756835938 624.90234375 c 0
 288.611328125 612.2734375 286.5625 572.17578125 286.5625 504.609375 c 2
 286.5625 292.890625 l 2
 286.5625 225.313476562 288.6015625 185.235351562 292.756835938 172.59765625 c 0
 296.903320312 159.950195312 308.133789062 153.640625 326.439453125 153.640625 c 0
 326.5546875 153.640625 462.166992188 153.793945312 463.717773438 153.8984375 c 2
EndSplineSet
Validated: 1
EndChar

StartChar: D
Encoding: 68 68 3
Width: 655
VWidth: 0
Flags: W
HStem: -0.344727 153.679<290.108 364.119> 643.524 153.641<290.108 364.119>
VStem: 17.8887 272.22<153.334 643.524> 370.514 264.14<172.875 623.955>
LayerCount: 2
Fore
SplineSet
634.604492188 517.400390625 m 1
 634.653320312 517.400390625 l 1
 634.653320312 499.037109375 l 1
 634.653320312 297.783203125 l 1
 634.653320312 279.418945312 l 1
 634.614257812 279.418945312 l 1
 634.365234375 215.041015625 632.852539062 171.333984375 630.076171875 148.39453125 c 0
 627.05078125 123.318359375 619.28515625 99.248046875 606.858398438 76.1455078125 c 0
 594.450195312 53.0419921875 575.1484375 34.525390625 549 20.5751953125 c 0
 522.842773438 6.625 489.9453125 -0.3447265625 450.278320312 -0.3447265625 c 2
 17.888671875 -0.076171875 l 1
 17.888671875 797.165039062 l 1
 450.278320312 797.165039062 l 2
 489.935546875 797.165039062 522.842773438 790.185546875 548.990234375 776.235351562 c 0
 575.137695312 762.28515625 594.440429688 743.778320312 606.848632812 720.666015625 c 0
 619.276367188 697.571289062 627.05078125 673.501953125 630.06640625 648.426757812 c 0
 632.842773438 625.486328125 634.365234375 581.76953125 634.604492188 517.400390625 c 1
370.513671875 292.555664062 m 2
 370.513671875 504.274414062 l 2
 370.513671875 571.840820312 368.474609375 611.9296875 364.319335938 624.567382812 c 0
 360.1640625 637.21484375 348.932617188 643.524414062 330.63671875 643.524414062 c 0
 330.51171875 643.524414062 330.416015625 643.514648438 330.310546875 643.514648438 c 0
 330.186523438 643.514648438 330.110351562 643.524414062 329.985351562 643.524414062 c 2
 290.108398438 643.524414062 l 1
 290.108398438 153.333984375 l 1
 329.36328125 153.333984375 l 2
 329.583984375 153.333984375 329.775390625 153.305664062 329.985351562 153.305664062 c 0
 330.110351562 153.305664062 330.186523438 153.315429688 330.310546875 153.315429688 c 0
 330.416015625 153.315429688 330.51171875 153.305664062 330.63671875 153.305664062 c 0
 348.943359375 153.305664062 360.1640625 159.615234375 364.319335938 172.262695312 c 0
 368.46484375 184.900390625 370.513671875 224.979492188 370.513671875 292.555664062 c 2
EndSplineSet
Validated: 1
EndChar

StartChar: E
Encoding: 69 69 4
Width: 539
VWidth: 0
Flags: W
HStem: 4.79883 160.4<289.645 515.169> 397.015 160.391<289.645 515.169> 637.6 160.4<289.645 515.169>
VStem: 20 495.169<4.79883 165.199 397.015 557.405 637.6 798> 20 269.645<165.199 397.015 557.405 637.6>
LayerCount: 2
Fore
SplineSet
515.168945312 637.599609375 m 1xf0
 289.64453125 637.599609375 l 1
 289.64453125 557.405273438 l 1xe8
 515.168945312 557.405273438 l 1
 515.168945312 397.014648438 l 1xf0
 289.64453125 397.014648438 l 1
 289.64453125 165.19921875 l 1xe8
 515.168945312 165.19921875 l 1
 515.168945312 4.798828125 l 1
 20 4.798828125 l 1
 20 798 l 1
 515.168945312 798 l 1
 515.168945312 637.599609375 l 1xf0
EndSplineSet
Validated: 1
EndChar

StartChar: F
Encoding: 70 70 5
Width: 533
VWidth: 0
Flags: W
HStem: 394.633 160.399<285.922 511.438> 635.229 160.399<285.922 511.438>
VStem: 16 269.922<2.41699 394.633 555.032 635.229>
LayerCount: 2
Fore
SplineSet
511.4375 635.228515625 m 1
 285.921875 635.228515625 l 1
 285.921875 555.032226562 l 1
 511.4375 555.032226562 l 1
 511.4375 394.6328125 l 1
 285.921875 394.6328125 l 1
 285.921875 2.4169921875 l 1
 16 2.4169921875 l 1
 16 795.627929688 l 1
 249.768554688 795.627929688 l 1
 285.921875 795.627929688 l 1
 511.4375 795.627929688 l 1
 511.4375 635.228515625 l 1
EndSplineSet
Validated: 1
EndChar

StartChar: G
Encoding: 71 71 6
Width: 648
VWidth: 0
Flags: W
HStem: 554.601 238.919<370.48 542.819> 640.043 153.477<287.889 364.792>
VStem: 17.3662 264.129<169.22 620.301> 382.237 243.391<150.838 314.57>
LayerCount: 2
Fore
SplineSet
331.836914062 474.969726562 m 1x70
 331.836914062 474.9609375 l 1
 625.627929688 474.9609375 l 1
 624.987304688 432.631835938 623.607421875 162.432617188 621.463867188 144.749023438 c 0
 618.4375 119.673828125 610.672851562 95.603515625 598.245117188 72.5009765625 c 0
 585.836914062 49.3974609375 566.53515625 30.8798828125 540.387695312 16.9306640625 c 0
 514.23046875 2.98046875 481.333007812 -3.9892578125 441.666015625 -3.9892578125 c 2
 321.698242188 -3.9892578125 l 1
 201.731445312 -3.9892578125 l 2
 162.07421875 -3.9892578125 129.157226562 2.98046875 103.008789062 16.9306640625 c 0
 76.861328125 30.8798828125 57.5693359375 49.3974609375 45.1513671875 72.5009765625 c 0
 32.7333984375 95.603515625 24.958984375 119.673828125 21.943359375 144.749023438 c 0
 19.1669921875 167.688476562 17.625 211.396484375 17.4052734375 275.774414062 c 1
 17.3662109375 275.774414062 l 1
 17.3662109375 294.138671875 l 1
 17.3662109375 513.755859375 l 1
 17.39453125 513.755859375 l 1
 17.625 578.125 19.15625 621.840820312 21.9326171875 644.78125 c 0
 24.958984375 669.856445312 32.7236328125 693.926757812 45.1416015625 717.020507812 c 0
 57.5595703125 740.133789062 76.8525390625 758.640625 103 772.58984375 c 0
 129.157226562 786.540039062 162.063476562 793.51953125 201.721679688 793.51953125 c 2
 321.698242188 793.51953125 l 1x70
 441.666015625 793.51953125 l 2
 481.333007812 793.51953125 514.23046875 786.540039062 540.387695312 772.58984375 c 0
 566.53515625 758.640625 585.836914062 740.133789062 598.245117188 717.020507812 c 0
 610.672851562 693.926757812 618.447265625 669.856445312 621.463867188 644.78125 c 0
 623.607421875 627.09765625 624.99609375 596.928710938 625.627929688 554.600585938 c 1
 370.48046875 554.600585938 l 2xb0
 369.666015625 590.54296875 367.846679688 613.00390625 364.984375 621.74609375 c 0
 360.981445312 633.93359375 350.163085938 640.032226562 332.536132812 640.04296875 c 1
 335.801757812 640.04296875 332.431640625 640.04296875 332.459960938 640.04296875 c 0
 332.48828125 640.04296875 332.5078125 640.04296875 332.536132812 640.04296875 c 1
 330.899414062 640.04296875 327.625 640.04296875 321.373046875 640.04296875 c 2
 321.373046875 639.870117188 l 2
 303.056640625 639.870117188 291.8359375 633.5703125 287.689453125 620.913085938 c 0
 283.543945312 608.284179688 281.495117188 568.186523438 281.495117188 500.620117188 c 2
 281.495117188 288.901367188 l 2
 281.495117188 221.32421875 283.53515625 181.24609375 287.689453125 168.607421875 c 0
 291.8359375 155.9609375 303.06640625 149.651367188 321.373046875 149.651367188 c 0
 321.497070312 149.651367188 321.57421875 149.66015625 321.698242188 149.66015625 c 0
 321.803710938 149.66015625 321.899414062 149.651367188 322.0234375 149.651367188 c 0
 322.310546875 149.651367188 351.388671875 149.689453125 348.124023438 149.689453125 c 1
 365.75 149.698242188 376.579101562 155.797851562 380.571289062 167.985351562 c 0
 382.026367188 172.418945312 382.256835938 242.215820312 382.237304688 314.5703125 c 1
 331.836914062 314.5703125 l 1
 331.836914062 474.969726562 l 1x70
EndSplineSet
Validated: 37
EndChar

StartChar: H
Encoding: 72 72 7
Width: 675
VWidth: 0
Flags: W
HStem: 0 21G<20.1523 295.549 385.163 657.745> 398.371 166.717<295.549 385.163> 779.255 20G<20.1523 295.549 385.163 657.745>
VStem: 20.1523 275.396<0 398.371 565.088 799.255> 385.163 272.582<0 398.371 565.088 799.255>
LayerCount: 2
Fore
SplineSet
385.163085938 799.254882812 m 1
 657.745117188 799.254882812 l 1
 657.745117188 0 l 1
 385.163085938 0 l 1
 385.163085938 398.37109375 l 1
 295.548828125 398.37109375 l 1
 295.548828125 0 l 1
 20.15234375 0 l 1
 20.15234375 799.254882812 l 1
 295.548828125 799.254882812 l 1
 295.548828125 565.087890625 l 1
 385.163085938 565.087890625 l 1
 385.163085938 799.254882812 l 1
EndSplineSet
Validated: 1
EndChar

StartChar: I
Encoding: 73 73 8
Width: 481
VWidth: 0
Flags: W
HStem: 0 168.22<20.959 103.398 369.515 447.147> 641.259 158.786<20.959 103.398 369.515 447.147>
VStem: 20.959 426.188<0 168.22 641.259 800.045>
LayerCount: 2
Fore
SplineSet
447.147460938 641.258789062 m 1
 369.514648438 641.258789062 l 1
 369.514648438 168.219726562 l 1
 447.147460938 168.219726562 l 1
 447.147460938 0 l 1
 369.514648438 0 l 1
 103.3984375 0 l 1
 20.958984375 0 l 1
 20.958984375 168.219726562 l 1
 103.3984375 168.219726562 l 1
 103.3984375 641.258789062 l 1
 20.958984375 641.258789062 l 1
 20.958984375 800.044921875 l 1
 103.3984375 800.044921875 l 1
 369.514648438 800.044921875 l 1
 447.147460938 800.044921875 l 1
 447.147460938 641.258789062 l 1
EndSplineSet
Validated: 1
EndChar

StartChar: J
Encoding: 74 74 9
Width: 651
VWidth: 0
Flags: W
HStem: -1.17676 153.127<278.339 355.133>
VStem: 22.6523 255.495<152.745 399.993> 361.496 263.293<171.455 277.592 277.67 793.7>
LayerCount: 2
Fore
SplineSet
360.991210938 793.700195312 m 1
 624.7890625 793.700195312 l 1
 624.7890625 277.669921875 l 1
 624.7890625 277.669921875 622.995117188 169.938476562 620.217773438 147.073242188 c 0
 617.211914062 122.080078125 609.462890625 98.0888671875 597.0859375 75.0615234375 c 0
 584.708007812 52.0341796875 565.489257812 33.5791015625 539.41796875 19.6748046875 c 0
 513.35546875 5.76953125 480.555664062 -1.1767578125 441.018554688 -1.1767578125 c 2
 321.434570312 -1.1767578125 l 1
 201.87109375 -1.1767578125 l 2
 162.333007812 -1.1767578125 129.524414062 5.76953125 103.471679688 19.6748046875 c 0
 77.400390625 33.5791015625 58.162109375 52.0341796875 45.8037109375 75.0615234375 c 0
 33.4072265625 98.0888671875 25.66796875 122.080078125 22.65234375 147.073242188 c 0
 20.5244140625 164.689453125 19.140625 357.802734375 18.5107421875 399.993164062 c 1
 272.6796875 399.993164062 l 2
 273.491210938 364.283203125 275.294921875 178.918945312 278.147460938 170.224609375 c 0
 282.137695312 158.076171875 292.919921875 151.998046875 310.489257812 151.98828125 c 1
 307.235351562 151.98828125 310.603515625 151.98828125 310.565429688 151.98828125 c 0
 310.537109375 151.98828125 310.517578125 151.98828125 310.489257812 151.98828125 c 1
 311.997070312 151.98828125 314.936523438 151.98828125 320.280273438 151.98828125 c 0
 320.56640625 151.979492188 320.814453125 151.950195312 321.110351562 151.950195312 c 0
 321.225585938 151.950195312 321.331054688 151.959960938 321.42578125 151.959960938 c 0
 321.559570312 151.959960938 321.625976562 151.950195312 321.759765625 151.950195312 c 0
 340.015625 151.950195312 351.190429688 158.239257812 355.33203125 170.844726562 c 0
 359.46484375 183.442382812 361.563476562 223.389648438 361.49609375 290.744140625 c 2
 360.991210938 793.700195312 l 1
EndSplineSet
Validated: 37
EndChar

StartChar: K
Encoding: 75 75 10
Width: 640
VWidth: 0
Flags: W
HStem: 779.058 20G<24.5742 296.79 426.967 611.853>
VStem: 24.5742 272.198<-3.62598 359.56 491.461 799.058> 372.068 240.9<-3.97559 356.19>
LayerCount: 2
Fore
SplineSet
587.116210938 392.747070312 m 0
 599.13671875 371.092773438 606.182617188 348.208984375 609.032226562 324.538085938 c 0
 611.057617188 307.837890625 612.366210938 35.98828125 612.96875 -3.9755859375 c 1
 372.068359375 -3.9755859375 l 2
 371.3125 29.96875 369.586914062 331.323242188 366.8828125 339.571289062 c 0
 363.11328125 351.086914062 352.896484375 359.248046875 336.251953125 359.2578125 c 0
 334.014648438 359.2578125 296.772460938 359.559570312 296.772460938 359.559570312 c 1
 296.772460938 -3.6259765625 l 1
 24.57421875 -3.6259765625 l 1
 24.57421875 799.057617188 l 1
 296.763671875 799.057617188 l 1
 297.170898438 491.4609375 l 1
 435.993164062 799.057617188 l 1
 611.852539062 799.057617188 l 1
 458.3828125 458.514648438 l 1
 530.373046875 456.352539062 573.884765625 416.572265625 587.116210938 392.747070312 c 0
EndSplineSet
Validated: 1
EndChar

StartChar: L
Encoding: 76 76 11
Width: 523
VWidth: 0
Flags: W
HStem: 0 161.312<293.05 499.793>
VStem: 17.7822 275.268<161.312 803.193>
LayerCount: 2
Fore
SplineSet
293.049804688 161.3125 m 1
 499.79296875 161.3125 l 1
 499.79296875 0 l 1
 17.7822265625 0 l 1
 17.7822265625 803.193359375 l 1
 293.049804688 803.193359375 l 1
 293.049804688 161.3125 l 1
EndSplineSet
Validated: 1
EndChar

StartChar: M
Encoding: 77 77 12
Width: 818
VWidth: 0
Flags: W
HStem: -0.958984 21G<18.1279 287.826 524.935 794.632> -0.958984 21G<18.1279 287.826 524.935 794.632> 778.714 20G<18.1279 288.063 524.439 794.632>
VStem: 18.1279 269.698<-0.958984 393.586> 524.935 269.697<-0.958984 394.195>
LayerCount: 2
Fore
SplineSet
524.439453125 798.704101562 m 1xb8
 794.631835938 798.713867188 l 1
 794.631835938 -0.958984375 l 1
 524.934570312 -0.958984375 l 1
 524.934570312 394.1953125 l 1
 406.252929688 113.107421875 l 1
 287.826171875 393.5859375 l 1
 287.826171875 -0.958984375 l 1
 18.1279296875 -0.958984375 l 1
 18.1279296875 798.713867188 l 1
 288.063476562 798.704101562 l 1
 406.243164062 522.403320312 l 1
 524.439453125 798.704101562 l 1xb8
EndSplineSet
Validated: 1
EndChar

StartChar: N
Encoding: 78 78 13
Width: 747
VWidth: 0
Flags: W
VStem: 22.0527 269.753<2.4707 392.981> 454.909 269.753<2.4707 3.44824 412.771 802.304>
LayerCount: 2
Fore
SplineSet
454.909179688 802.303710938 m 1
 724.662109375 802.303710938 l 1
 724.662109375 2.470703125 l 1
 454.909179688 2.470703125 l 1
 454.909179688 3.4482421875 l 1
 291.805664062 392.981445312 l 1
 291.805664062 2.470703125 l 1
 22.052734375 2.470703125 l 1
 22.052734375 802.303710938 l 1
 291.805664062 802.303710938 l 1
 454.909179688 412.771484375 l 1
 454.909179688 802.303710938 l 1
EndSplineSet
Validated: 1
EndChar

StartChar: O
Encoding: 79 79 14
Width: 654
VWidth: 0
Flags: W
HStem: -0.175781 21G<184.269 464.461> 778.97 20G<184.264 464.452>
VStem: 19.3887 264.685<173.382 625.402> 364.651 264.685<173.382 625.402>
LayerCount: 2
Fore
SplineSet
629.2890625 518.629882812 m 2
 629.2890625 518.620117188 l 1
 629.3359375 518.620117188 l 1
 629.3359375 500.22265625 l 1
 629.3359375 298.561523438 l 1
 629.3359375 280.1640625 l 1
 629.298828125 280.1640625 l 1
 629.061523438 215.659179688 627.533203125 171.848632812 624.751953125 148.865234375 c 0
 621.723632812 123.737304688 613.938476562 99.615234375 601.493164062 76.4716796875 c 0
 589.048828125 53.3076171875 569.7109375 34.7587890625 543.509765625 20.78515625 c 0
 517.30859375 6.810546875 484.330078125 -0.17578125 444.591796875 -0.17578125 c 2
 324.362304688 -0.17578125 l 1
 204.1328125 -0.17578125 l 2
 164.404296875 -0.17578125 131.416015625 6.810546875 105.21484375 20.78515625 c 0
 79.00390625 34.7587890625 59.6767578125 53.3173828125 47.2314453125 76.4716796875 c 0
 34.7861328125 99.615234375 27.0009765625 123.737304688 23.97265625 148.865234375 c 0
 21.1826171875 171.848632812 19.6533203125 215.659179688 19.42578125 280.1640625 c 1
 19.388671875 280.1640625 l 1
 19.388671875 298.561523438 l 1
 19.388671875 500.232421875 l 1
 19.388671875 518.629882812 l 1
 19.42578125 518.629882812 l 1
 19.6640625 583.134765625 21.19140625 626.9453125 23.97265625 649.928710938 c 0
 27.0009765625 675.056640625 34.7861328125 699.178710938 47.2314453125 722.323242188 c 0
 59.6767578125 745.486328125 79.00390625 764.03515625 105.21484375 778.009765625 c 0
 131.416015625 791.983398438 164.39453125 798.969726562 204.1328125 798.969726562 c 2
 324.362304688 798.969726562 l 1
 444.583007812 798.969726562 l 2
 484.3203125 798.969726562 517.299804688 791.983398438 543.500976562 778.009765625 c 0
 569.701171875 764.03515625 589.038085938 745.4765625 601.484375 722.323242188 c 0
 613.9296875 699.178710938 621.713867188 675.056640625 624.7421875 649.928710938 c 0
 627.533203125 626.9453125 629.061523438 583.134765625 629.2890625 518.629882812 c 2
364.651367188 293.311523438 m 2
 364.651367188 505.47265625 l 2
 364.651367188 573.176757812 362.600585938 613.3515625 358.442382812 626.015625 c 0
 354.284179688 638.6796875 343.03515625 645.01171875 324.685546875 645.01171875 c 0
 324.561523438 645.01171875 324.4765625 644.9921875 324.362304688 644.9921875 c 0
 324.248046875 644.9921875 324.153320312 645.01171875 324.0390625 645.01171875 c 0
 305.69921875 645.01171875 294.440429688 638.688476562 290.282226562 626.015625 c 0
 286.133789062 613.3515625 284.073242188 573.176757812 284.073242188 505.47265625 c 2
 284.073242188 293.311523438 l 2
 284.073242188 225.607421875 286.124023438 185.43359375 290.282226562 172.768554688 c 0
 294.440429688 160.095703125 305.689453125 153.7734375 324.0390625 153.7734375 c 0
 324.163085938 153.7734375 324.248046875 153.79296875 324.362304688 153.79296875 c 0
 324.4765625 153.79296875 324.571289062 153.7734375 324.685546875 153.7734375 c 0
 343.025390625 153.7734375 354.284179688 160.095703125 358.442382812 172.768554688 c 0
 362.591796875 185.43359375 364.651367188 225.607421875 364.651367188 293.311523438 c 2
EndSplineSet
Validated: 1
EndChar

StartChar: P
Encoding: 80 80 15
Width: 633
VWidth: 0
Flags: W
HStem: -0.231445 21G<17.6611 289.035> 342.564 124.409<289.624 361.129> 675.908 124.458<289.634 361.229>
VStem: 17.6611 271.963<0.118164 342.564 466.974 675.908> 366.873 237.539<486.533 656.387>
LayerCount: 2
Fore
SplineSet
604.412109375 569.125976562 m 0
 604.615234375 557.153320312 604.587890625 544.609375 604.490234375 534.47265625 c 0
 604.635742188 520.36328125 604.422851562 501.221679688 602.76171875 487.478515625 c 0
 599.814453125 463.049804688 592.24609375 439.596679688 580.147460938 417.088867188 c 0
 568.048828125 394.573242188 549.251953125 376.53125 523.770507812 362.9453125 c 0
 498.288085938 349.358398438 466.223632812 342.564453125 427.58984375 342.564453125 c 2
 289.03515625 342.564453125 l 1
 289.03515625 152.907226562 l 1
 289.03515625 0.1181640625 l 1
 17.6611328125 -0.2314453125 l 1
 17.6611328125 800.366210938 l 1
 427.686523438 800.366210938 l 2
 466.321289062 800.366210938 498.384765625 793.561523438 523.866210938 779.974609375 c 0
 549.348632812 766.387695312 568.145507812 748.344726562 580.244140625 725.830078125 c 0
 592.342773438 703.32421875 599.91015625 679.872070312 602.857421875 655.440429688 c 0
 604.51953125 641.69921875 604.73046875 622.5546875 604.587890625 608.447265625 c 0
 604.703125 596.9765625 604.72265625 582.471679688 604.412109375 569.125976562 c 0
289.633789062 675.908203125 m 1
 289.624023438 675.908203125 l 1
 289.624023438 466.973632812 l 1
 327.310546875 466.973632812 l 1
 327.310546875 467.01171875 l 2
 327.870117188 467.01171875 328.344726562 467.0703125 328.88671875 467.078125 c 2
 328.88671875 467.087890625 l 2
 346.9453125 467.466796875 357.798828125 473.776367188 361.298828125 486.125976562 c 0
 363.684570312 494.611328125 365.288085938 515.859375 366.08984375 549.44140625 c 0
 366.401367188 555.529296875 366.650390625 562.409179688 366.873046875 569.74609375 c 2
 367.076171875 569.74609375 l 2
 366.844726562 578.471679688 366.563476562 586.443359375 366.197265625 593.478515625 c 0
 365.384765625 627.049804688 363.791992188 648.309570312 361.404296875 656.793945312 c 0
 357.788085938 669.541015625 346.436523438 675.908203125 327.322265625 675.908203125 c 2
 289.633789062 675.908203125 l 1
EndSplineSet
Validated: 33
EndChar

StartChar: Q
Encoding: 81 81 16
Width: 670
VWidth: 0
Flags: W
HStem: -226.409 148.688<456.11 542.408> 777.937 20G<193.46 473.968>
VStem: 28.3916 264.985<171.654 624.175> 374.033 264.984<171.654 624.175>
LayerCount: 2
Fore
SplineSet
638.979492188 517.284179688 m 2
 638.979492188 517.274414062 l 1
 639.017578125 517.274414062 l 1
 639.017578125 498.853515625 l 1
 639.017578125 296.956054688 l 1
 639.017578125 278.53515625 l 1
 638.979492188 278.53515625 l 1
 638.73046875 213.958984375 637.212890625 170.108398438 634.418945312 147.09765625 c 0
 631.395507812 121.947265625 623.600585938 97.8037109375 611.130859375 74.6220703125 c 0
 598.680664062 51.439453125 579.327148438 32.86328125 553.1015625 18.8671875 c 0
 526.856445312 4.8818359375 493.86328125 -2.1171875 454.073242188 -2.1171875 c 2
 450.65625 -2.1171875 l 2
 451.577148438 -32.31640625 453.315429688 -51.44921875 455.916992188 -59.3681640625 c 0
 459.928710938 -71.6171875 470.786132812 -77.7216796875 488.504882812 -77.7216796875 c 2
 542.408203125 -77.7216796875 l 1
 542.408203125 -226.409179688 l 1
 372.70703125 -226.409179688 l 2
 334.318359375 -226.409179688 302.477539062 -219.661132812 277.1640625 -206.163085938 c 0
 251.849609375 -192.666992188 233.1796875 -174.745117188 221.16015625 -152.377929688 c 0
 209.131835938 -130.020507812 201.643554688 -106.723632812 198.696289062 -82.455078125 c 0
 196.728515625 -66.3271484375 195.44140625 -39.3916015625 194.790039062 -2.107421875 c 2
 194.790039062 -2.107421875 140.552734375 4.8818359375 114.327148438 18.876953125 c 0
 88.0732421875 32.8740234375 68.728515625 51.4482421875 56.26953125 74.630859375 c 0
 43.818359375 97.8037109375 36.0224609375 121.947265625 32.990234375 147.107421875 c 0
 30.1962890625 170.119140625 28.6513671875 213.958984375 28.439453125 278.545898438 c 1
 28.3916015625 278.545898438 l 1
 28.3916015625 296.966796875 l 1
 28.3916015625 498.86328125 l 1
 28.3916015625 517.284179688 l 1
 28.439453125 517.284179688 l 1
 28.66015625 581.8515625 30.1962890625 625.711914062 32.990234375 648.720703125 c 0
 36.0322265625 673.8828125 43.818359375 698.025390625 56.26953125 721.197265625 c 0
 68.728515625 744.380859375 88.08203125 762.946289062 114.327148438 776.942382812 c 0
 140.552734375 790.939453125 173.564453125 797.936523438 213.356445312 797.936523438 c 2
 333.705078125 797.936523438 l 1
 454.073242188 797.936523438 l 2
 493.86328125 797.936523438 526.856445312 790.939453125 553.1015625 776.942382812 c 0
 579.336914062 762.955078125 598.680664062 744.380859375 611.130859375 721.197265625 c 0
 623.600585938 698.025390625 631.405273438 673.8828125 634.418945312 648.720703125 c 0
 637.212890625 625.711914062 638.739257812 581.860351562 638.979492188 517.284179688 c 2
293.376953125 504.10546875 m 2
 293.376953125 291.71484375 l 2
 293.376953125 223.93359375 295.430664062 183.719726562 299.596679688 171.0390625 c 0
 303.744140625 158.348632812 315.014648438 152.022460938 333.388671875 152.022460938 c 0
 333.502929688 152.022460938 333.58984375 152.032226562 333.705078125 152.032226562 c 0
 333.819335938 152.032226562 333.90625 152.022460938 334.030273438 152.022460938 c 0
 352.405273438 152.022460938 363.666015625 158.348632812 367.831054688 171.0390625 c 0
 371.987304688 183.719726562 374.033203125 223.923828125 374.033203125 291.71484375 c 2
 374.033203125 504.10546875 l 2
 374.033203125 571.88671875 371.997070312 612.110351562 367.831054688 624.7890625 c 0
 363.666015625 637.48046875 352.39453125 643.806640625 334.030273438 643.806640625 c 0
 333.90625 643.806640625 333.819335938 643.797851562 333.705078125 643.797851562 c 0
 333.58984375 643.797851562 333.502929688 643.806640625 333.388671875 643.806640625 c 0
 315.00390625 643.806640625 303.744140625 637.48046875 299.596679688 624.7890625 c 0
 295.440429688 612.110351562 293.376953125 571.88671875 293.376953125 504.10546875 c 2
EndSplineSet
Validated: 1
EndChar

StartChar: R
Encoding: 82 82 17
Width: 628
VWidth: 0
Flags: W
HStem: 0 21G<13.1484 284.026 360.891 599.082> 361.415 104.938<284.625 355.492> 674.908 124.23<284.625 356.09>
VStem: 13.1484 270.878<0 361.415 466.354 674.908> 360.896 238.187<0 341.848 474.281 655.423>
LayerCount: 2
Fore
SplineSet
597.279296875 334.83984375 m 0
 598.610351562 323.911132812 598.928710938 291.954101562 598.879882812 260.025390625 c 2
 599.08203125 260.025390625 l 1
 599.08203125 0 l 1
 360.895507812 0 l 1
 360.836914062 258.415039062 l 2
 360.239257812 304.185546875 358.51171875 332.225585938 355.666992188 342.334960938 c 0
 352.05859375 355.05859375 340.725585938 361.415039062 321.645507812 361.415039062 c 2
 284.026367188 361.415039062 l 1
 284.026367188 0 l 1
 13.1484375 0 l 1
 13.1484375 799.138671875 l 1
 422.426757812 799.138671875 l 2
 460.991210938 799.138671875 492.99609375 792.348632812 518.432617188 778.786132812 c 0
 543.869140625 765.223632812 562.630859375 747.213867188 574.70703125 724.739257812 c 0
 586.784179688 702.274414062 594.336914062 678.86328125 597.279296875 654.478515625 c 0
 598.9375 640.76171875 599.150390625 621.653320312 599.004882812 607.5703125 c 0
 599.208007812 586.734375 599.139648438 555.693359375 597.279296875 540.317382812 c 0
 594.336914062 515.93359375 586.784179688 492.522460938 574.70703125 470.057617188 c 0
 568.186523438 457.912109375 559.639648438 447.119140625 549.213867188 437.579101562 c 1
 559.639648438 428.0390625 568.186523438 417.245117188 574.70703125 405.1015625 c 0
 586.784179688 382.635742188 594.336914062 359.225585938 597.279296875 334.83984375 c 0
360.180664062 523.350585938 m 0
 361.029296875 534.193359375 361.657226562 547.948242188 362.051757812 564.829101562 c 0
 361.810546875 575.303710938 361.46484375 584.477539062 361.048828125 592.62890625 c 0
 360.239257812 626.138671875 358.647460938 647.359375 356.264648438 655.829101562 c 0
 352.657226562 668.551757812 341.323242188 674.908203125 322.244140625 674.908203125 c 2
 284.625 674.908203125 l 1
 284.625 466.353515625 l 1
 322.244140625 466.353515625 l 1
 322.244140625 466.391601562 l 2
 341.313476562 466.391601562 352.657226562 472.7578125 356.264648438 485.470703125 c 0
 357.971679688 491.567382812 359.275390625 504.291015625 360.180664062 523.350585938 c 0
EndSplineSet
Validated: 33
EndChar

StartChar: S
Encoding: 83 83 18
Width: 682
VWidth: 0
Flags: W
HStem: 2.08789 166.039<57.6523 370.051> 634.608 164.339<315.396 574.729>
LayerCount: 2
Fore
SplineSet
650.358398438 291.16796875 m 0
 656.724609375 226.1484375 647.052734375 154.838867188 621.482421875 99.0703125 c 0
 607.875976562 69.3876953125 586.916992188 45.6865234375 558.548828125 27.8916015625 c 0
 530.19921875 10.1162109375 494.600585938 1.3642578125 451.762695312 1.63671875 c 2
 56.591796875 2.087890625 l 1
 57.65234375 168.126953125 l 2
 60.02734375 168.108398438 306.888671875 166.408203125 330.458984375 168.126953125 c 0
 333.079101562 168.323242188 335.5390625 169.122070312 337.905273438 170.2109375 c 0
 366.52734375 178.004882812 387.673828125 204.025390625 387.87109375 235.135742188 c 0
 388.115234375 272.57421875 357.954101562 303.12109375 320.514648438 303.365234375 c 2
 204.901367188 304.107421875 l 2
 171.03125 306.764648438 142.249023438 315.591796875 118.6796875 330.803710938 c 0
 90.57421875 348.956054688 69.9072265625 372.948242188 56.666015625 402.780273438 c 0
 31.8193359375 458.869140625 23.078125 530.291015625 30.2509765625 595.233398438 c 0
 31.7724609375 609.018554688 34.0263671875 622.549804688 36.984375 635.546875 c 0
 42.0458984375 657.8203125 49.2763671875 681.25 58.5732421875 701.532226562 c 0
 72.1884765625 731.206054688 93.166015625 754.916015625 121.506835938 772.701171875 c 0
 149.865234375 790.477539062 185.4453125 799.219726562 228.283203125 798.947265625 c 2
 574.728515625 798.947265625 l 1
 574.728515625 634.608398438 l 1
 574.728515625 634.608398438 366.489257812 634.608398438 365.719726562 634.608398438 c 0
 328.280273438 634.8515625 297.733398438 604.690429688 297.489257812 567.251953125 c 0
 297.254882812 529.802734375 327.416015625 499.255859375 364.85546875 499.021484375 c 2
 364.85546875 499.021484375 508.790039062 503.70703125 561.375 469.790039062 c 0
 589.508789062 451.647460938 610.166992188 427.665039062 623.388671875 397.813476562 c 0
 632.422851562 377.426757812 639.389648438 353.904296875 644.151367188 331.583007812 c 0
 646.930664062 318.540039062 649.033203125 304.981445312 650.358398438 291.16796875 c 0
EndSplineSet
Validated: 33
EndChar

StartChar: T
Encoding: 84 84 19
Width: 608
VWidth: 0
Flags: W
HStem: 0 21G<167.197 437.679> 640.546 159.454<-0.96875 167.197 437.679 605.854>
VStem: 167.197 270.481<0 640.546>
LayerCount: 2
Fore
SplineSet
605.854492188 800 m 1
 605.854492188 640.545898438 l 1
 437.678710938 640.545898438 l 1
 437.678710938 0 l 1
 167.197265625 0 l 1
 167.197265625 640.545898438 l 1
 -0.96875 640.545898438 l 1
 -0.96875 800 l 1
 605.854492188 800 l 1
EndSplineSet
Validated: 1
EndChar

StartChar: U
Encoding: 85 85 20
Width: 656
VWidth: 0
Flags: W
HStem: -2.24219 21G<188.862 470.132> 780 20G<23.3926 289.053 369.913 633.844>
VStem: 23.3926 265.66<171.996 800> 369.913 263.859<171.996 279.092 279.171 800>
LayerCount: 2
Fore
SplineSet
633.772460938 800 m 1
 635.630859375 279.170898438 l 1
 635.630859375 279.170898438 633.829101562 170.446289062 631.037109375 147.375 c 0
 628.006835938 122.149414062 620.182617188 97.9443359375 607.6796875 74.701171875 c 0
 595.21484375 51.4580078125 575.79296875 32.8369140625 549.481445312 18.7998046875 c 0
 523.1796875 4.771484375 490.083007812 -2.2421875 450.181640625 -2.2421875 c 2
 208.8125 -2.2421875 l 2
 168.911132812 -2.2421875 135.814453125 4.771484375 109.512695312 18.7998046875 c 0
 83.201171875 32.8271484375 63.798828125 51.4580078125 51.294921875 74.701171875 c 0
 38.8212890625 97.9345703125 30.9873046875 122.149414062 27.95703125 147.375 c 0
 25.1650390625 170.446289062 23.611328125 214.416015625 23.392578125 279.170898438 c 2
 23.392578125 800 l 1
 289.052734375 800 l 1
 289.052734375 292.37890625 l 2
 289.052734375 224.413085938 291.111328125 184.092773438 295.28515625 171.379882812 c 0
 299.458984375 158.6484375 310.751953125 152.301757812 329.182617188 152.301757812 c 0
 329.296875 152.301757812 329.3828125 152.3203125 329.497070312 152.3203125 c 0
 329.6015625 152.3203125 329.697265625 152.301757812 329.831054688 152.301757812 c 0
 348.232421875 152.301757812 359.53515625 158.6484375 363.708984375 171.379882812 c 0
 367.873046875 184.092773438 369.94140625 224.413085938 369.94140625 292.37890625 c 2
 369.913085938 800 l 1
 369.989257812 800 l 1
 633.772460938 800 l 1
EndSplineSet
Validated: 1
EndChar

StartChar: V
Encoding: 86 86 21
Width: 655
VWidth: 0
Flags: W
HStem: 780.581 20G<21.9736 263.632 392.049 633.697>
LayerCount: 2
Fore
SplineSet
396.702148438 800.581054688 m 1
 633.697265625 800.581054688 l 1
 446.762695312 -2.8232421875 l 1
 208.918945312 -2.8232421875 l 1
 21.9736328125 800.581054688 l 1
 258.978515625 800.581054688 l 1
 327.840820312 504.625976562 l 1
 396.702148438 800.581054688 l 1
EndSplineSet
Validated: 1
EndChar

StartChar: W
Encoding: 87 87 22
Width: 922
VWidth: 0
Flags: W
HStem: -2.30566 21G<149.551 382.135 568.113 799.728> 780.02 20G<21.6523 249.487 409.975 540.283 700.77 889.72>
LayerCount: 2
Fore
SplineSet
704.140625 800.01953125 m 1
 889.719726562 800 l 1
 797.427734375 -2.3056640625 l 1
 572.9921875 -2.3056640625 l 1
 475.119140625 398.857421875 l 1
 377.255859375 -2.3056640625 l 1
 152.8203125 -2.3056640625 l 1
 21.65234375 800 l 1
 246.1171875 800.01953125 l 1
 302.780273438 463.756835938 l 1
 410.03125 799.736328125 l 1
 409.974609375 800.01953125 l 1
 540.283203125 800.01953125 l 1
 540.2265625 799.736328125 l 1
 647.467773438 463.756835938 l 1
 704.140625 800.01953125 l 1
EndSplineSet
Validated: 1
EndChar

StartChar: X
Encoding: 88 88 23
Width: 752
VWidth: 0
Flags: W
HStem: 0 21G<21.9189 295.771 456.333 730.185> 780.534 20G<21.9287 295.78 456.325 730.175>
LayerCount: 2
Fore
SplineSet
467.455078125 800.534179688 m 1
 730.174804688 800.534179688 l 1
 507.40234375 400.276367188 l 1
 730.184570312 0 l 1
 467.463867188 0 l 1
 376.056640625 164.248046875 l 1
 284.639648438 0 l 1
 21.9189453125 0 l 1
 244.69140625 400.276367188 l 1
 21.9287109375 800.534179688 l 1
 284.6484375 800.534179688 l 1
 376.056640625 636.294921875 l 1
 467.455078125 800.534179688 l 1
EndSplineSet
Validated: 1
EndChar

StartChar: Y
Encoding: 89 89 24
Width: 722
VWidth: 0
Flags: W
HStem: 0.62207 21G<224.833 495.28> 780 20G<5.92871 279.779 440.331 714.175>
VStem: 224.833 270.447<0.62207 406.663>
LayerCount: 2
Fore
SplineSet
714.174804688 800 m 1
 495.280273438 406.692382812 l 1
 495.280273438 0.6220703125 l 1
 224.833007812 0.6220703125 l 1
 224.833007812 406.663085938 l 1
 5.9287109375 800 l 1
 268.6484375 800 l 1
 360.046875 635.76953125 l 1
 451.463867188 800 l 1
 714.174804688 800 l 1
EndSplineSet
Validated: 1
EndChar

StartChar: Z
Encoding: 90 90 25
Width: 778
VWidth: 0
Flags: W
HStem: -2.25195 149.798<398.921 749.177> 650.202 149.798<84.5537 377.222>
LayerCount: 2
Fore
SplineSet
749.176757812 799.885742188 m 1
 649.590820312 614.494140625 l 1
 398.920898438 147.545898438 l 1
 749.176757812 147.545898438 l 1
 749.176757812 -2.251953125 l 1
 26.9169921875 -2.251953125 l 1
 377.221679688 650.202148438 l 1
 84.5537109375 650.202148438 l 1
 84.5537109375 800 l 1
 749.176757812 799.885742188 l 1
EndSplineSet
Validated: 1
EndChar

StartChar: a
Encoding: 97 97 26
Width: 648
VWidth: 0
Flags: W
HStem: -2.25195 21G<176.372 619.638> 500.337 152.962<91.4326 347.806>
VStem: 13.5752 263.278<169.901 273.97> 348.869 270.769<151.397 276.188 429.169 498.597>
LayerCount: 2
Fore
SplineSet
616.07421875 505.225585938 m 0
 617.41796875 494.142578125 618.76171875 461.989257812 619.637695312 437.57421875 c 2
 619.637695312 -2.251953125 l 1
 196.107421875 -2.251953125 l 2
 156.635742188 -2.251953125 123.872070312 4.6953125 97.8369140625 18.580078125 c 0
 71.8017578125 32.46484375 52.599609375 50.8955078125 40.2392578125 73.900390625 c 0
 27.87890625 96.8955078125 20.140625 120.853515625 17.1396484375 145.821289062 c 0
 15.7958984375 156.89453125 14.4521484375 189.0390625 13.5751953125 213.444335938 c 0
 14.4521484375 237.859375 15.7958984375 270.012695312 17.1396484375 281.095703125 c 0
 20.140625 306.063476562 27.87890625 330.021484375 40.2392578125 353.016601562 c 0
 52.58984375 376.021484375 71.8017578125 394.452148438 97.8369140625 408.336914062 c 0
 123.872070312 422.221679688 156.635742188 429.168945312 196.107421875 429.168945312 c 2
 348.860351562 429.168945312 l 1
 348.860351562 471.243164062 l 2
 348.564453125 477.818359375 345.41015625 496.153320312 320.452148438 500.08984375 c 0
 319.35546875 500.13671875 91.5185546875 500.336914062 91.4326171875 500.336914062 c 2
 91.4326171875 653.298828125 l 1
 418.436523438 653.298828125 l 1
 436.41015625 653.298828125 l 1
 437.10546875 653.298828125 l 2
 476.577148438 653.298828125 509.340820312 646.3515625 535.375976562 632.466796875 c 0
 561.411132812 618.58203125 580.614257812 600.151367188 592.973632812 577.147460938 c 0
 605.333984375 554.151367188 613.072265625 530.194335938 616.07421875 505.225585938 c 0
348.869140625 165.052734375 m 1
 348.869140625 276.188476562 l 2
 336.271484375 276.197265625 315.295898438 276.197265625 315.229492188 276.197265625 c 0
 296.999023438 276.197265625 285.8203125 269.91796875 281.694335938 257.329101562 c 0
 279.483398438 250.58203125 277.873046875 235.90625 276.853515625 213.454101562 c 0
 277.873046875 191.001953125 279.483398438 176.326171875 281.694335938 169.579101562 c 0
 285.8203125 157 296.999023438 150.709960938 315.219726562 150.709960938 c 0
 315.44921875 150.709960938 315.658203125 150.709960938 315.848632812 150.709960938 c 0
 316.192382812 150.709960938 316.6875 150.709960938 317.297851562 150.709960938 c 0
 333.173828125 150.709960938 343.6953125 155.494140625 348.869140625 165.052734375 c 1
EndSplineSet
Validated: 1
EndChar

StartChar: b
Encoding: 98 98 27
Width: 653
VWidth: 0
Flags: W
HStem: 779.209 20G<21.8105 292.589>
VStem: 21.8105 270.769<149.929 499.537 652.508 799.209> 365.93 262.936<242.605 480.068>
LayerCount: 2
Fore
SplineSet
21.810546875 799.208984375 m 1
 292.588867188 799.208984375 l 1
 292.588867188 652.5078125 l 1
 445.350585938 652.5078125 l 2
 484.823242188 652.5078125 517.5859375 645.560546875 543.62109375 631.67578125 c 0
 569.65625 617.791015625 588.859375 599.360351562 601.21875 576.356445312 c 0
 613.579101562 553.360351562 621.317382812 529.403320312 624.319335938 504.434570312 c 0
 626.540039062 486.1953125 627.930664062 454.737304688 628.53125 410.176757812 c 2
 628.865234375 242.60546875 l 1
 628.865234375 242.60546875 626.578125 163.727539062 624.309570312 145.030273438 c 0
 621.307617188 120.0625 613.569335938 96.1044921875 601.209960938 73.109375 c 0
 588.849609375 50.1044921875 569.637695312 31.673828125 543.602539062 17.7890625 c 0
 517.567382812 3.904296875 484.803710938 -3.04296875 445.33203125 -3.04296875 c 2
 21.810546875 -3.04296875 l 1
 21.810546875 799.208984375 l 1
292.579101562 499.537109375 m 2
 292.579101562 149.928710938 l 2
 292.684570312 149.928710938 326.10546875 149.918945312 326.219726562 149.918945312 c 0
 344.450195312 149.918945312 355.627929688 156.19921875 359.754882812 168.788085938 c 0
 363.880859375 181.3671875 365.9296875 221.268554688 365.9296875 288.5390625 c 2
 365.9296875 360.926757812 l 2
 365.9296875 428.1875 363.880859375 468.09765625 359.754882812 480.677734375 c 0
 355.627929688 493.266601562 344.450195312 499.545898438 326.219726562 499.545898438 c 0
 326.10546875 499.545898438 292.684570312 499.537109375 292.579101562 499.537109375 c 2
EndSplineSet
Validated: 1
EndChar

StartChar: c
Encoding: 99 99 28
Width: 462
VWidth: 0
Flags: W
HStem: -2.84277 153.324<297.832 431.555> 500.985 153.324<297.823 431.545>
LayerCount: 2
Fore
SplineSet
297.624023438 482.059570312 m 0
 293.478515625 469.44140625 291.4296875 429.435546875 291.448242188 362.012695312 c 2
 291.448242188 289.462890625 l 2
 291.448242188 222.021484375 293.487304688 182.024414062 297.6328125 169.407226562 c 0
 301.76953125 156.780273438 312.9765625 150.481445312 331.245117188 150.481445312 c 0
 331.359375 150.481445312 431.450195312 150.491210938 431.5546875 150.491210938 c 2
 431.5546875 -2.8427734375 l 1
 211.827148438 -2.8427734375 l 2
 172.259765625 -2.8427734375 139.411132812 4.1240234375 113.318359375 18.037109375 c 0
 87.216796875 31.9599609375 67.95703125 50.4287109375 55.568359375 73.490234375 c 0
 43.169921875 96.54296875 35.4228515625 120.567382812 32.4013671875 145.592773438 c 0
 30.1337890625 164.337890625 28.7041015625 196.948242188 28.1318359375 243.40625 c 2
 28.1318359375 243.40625 30.1806640625 487.595703125 32.4013671875 505.874023438 c 0
 35.4228515625 530.899414062 43.1796875 554.923828125 55.568359375 577.975585938 c 0
 67.966796875 601.028320312 87.216796875 619.506835938 113.318359375 633.4296875 c 0
 139.411132812 647.352539062 172.259765625 654.309570312 211.827148438 654.309570312 c 2
 431.544921875 654.309570312 l 1
 431.544921875 500.975585938 l 2
 431.450195312 500.975585938 331.359375 500.985351562 331.235351562 500.985351562 c 0
 312.966796875 500.985351562 301.759765625 494.686523438 297.624023438 482.059570312 c 0
EndSplineSet
Validated: 33
EndChar

StartChar: d
Encoding: 100 100 29
Width: 661
VWidth: 0
Flags: W
HStem: -2.26172 21G<188.322 631.589> 780 20G<360.811 631.589>
VStem: 24.5342 262.926<243.387 480.859> 360.811 270.778<150.72 500.328 653.29 800>
LayerCount: 2
Fore
SplineSet
360.810546875 800 m 1
 631.588867188 800 l 1
 631.588867188 -2.26171875 l 1
 208.057617188 -2.26171875 l 2
 168.5859375 -2.26171875 135.822265625 4.685546875 109.787109375 18.5703125 c 0
 83.751953125 32.455078125 64.5498046875 50.8857421875 52.189453125 73.890625 c 0
 39.8291015625 96.8857421875 32.091796875 120.84375 29.08984375 145.811523438 c 0
 26.8212890625 164.508789062 24.5341796875 243.38671875 24.5341796875 243.38671875 c 1
 24.8681640625 410.958007812 l 2
 25.4677734375 455.518554688 26.859375 486.9765625 29.080078125 505.216796875 c 0
 32.08203125 530.174804688 39.8203125 554.1328125 52.1796875 577.137695312 c 0
 64.5302734375 600.142578125 83.7421875 618.573242188 109.778320312 632.458007812 c 0
 135.813476562 646.342773438 168.576171875 653.290039062 208.048828125 653.290039062 c 2
 360.810546875 653.290039062 l 1
 360.810546875 800 l 1
360.810546875 150.719726562 m 2
 360.810546875 500.328125 l 2
 360.705078125 500.328125 327.28515625 500.336914062 327.169921875 500.336914062 c 0
 308.939453125 500.336914062 297.76171875 494.057617188 293.634765625 481.46875 c 0
 289.508789062 468.888671875 287.459960938 428.978515625 287.459960938 361.717773438 c 2
 287.459960938 289.330078125 l 2
 287.459960938 222.068359375 289.508789062 182.158203125 293.634765625 169.579101562 c 0
 297.76171875 156.990234375 308.939453125 150.709960938 327.169921875 150.709960938 c 0
 327.28515625 150.709960938 360.705078125 150.719726562 360.810546875 150.719726562 c 2
EndSplineSet
Validated: 1
EndChar

StartChar: e
Encoding: 101 101 30
Width: 636
VWidth: 0
Flags: W
HStem: -2.24219 148.045<262.513 607.431> 219.781 151.237<273.955 349.804>
LayerCount: 2
Fore
SplineSet
294.864257812 145.802734375 m 2
 607.430664062 146.1640625 l 1
 607.430664062 12.91015625 l 1
 607.430664062 -2.2421875 l 1
 196.74609375 -2.2421875 l 2
 158.436523438 -2.2421875 126.655273438 4.4951171875 101.391601562 17.970703125 c 0
 76.1376953125 31.4453125 57.5068359375 49.3232421875 45.5 71.6513671875 c 0
 33.501953125 93.9609375 26.0302734375 117.212890625 23.076171875 141.4375 c 0
 21.1318359375 157.5234375 18.6728515625 221.630859375 18.6728515625 221.630859375 c 1
 18.6728515625 427.739257812 l 1
 18.6728515625 427.739257812 21.4658203125 476.779296875 23.076171875 490.168945312 c 0
 26.0400390625 514.393554688 33.501953125 537.646484375 45.5 559.955078125 c 0
 57.5166015625 582.274414062 76.1376953125 600.161132812 101.391601562 613.63671875 c 0
 126.655273438 627.1015625 158.436523438 633.848632812 196.74609375 633.848632812 c 2
 312.637695312 633.848632812 l 1
 428.518554688 633.848632812 l 2
 466.828125 633.848632812 498.62890625 627.111328125 523.874023438 613.63671875 c 0
 549.146484375 600.161132812 567.767578125 582.274414062 579.775390625 559.955078125 c 0
 591.782226562 537.646484375 599.263671875 514.393554688 602.208007812 490.168945312 c 0
 603.837890625 476.779296875 604.990234375 455.776367188 605.743164062 427.739257812 c 2
 606.620117188 427.739257812 l 1
 606.620117188 345.870117188 l 1
 606.620117188 255.489257812 l 1
 605.829101562 219.78125 l 1
 296.350585938 219.78125 l 2
 278.6640625 219.78125 267.809570312 213.692382812 263.8359375 201.465820312 c 0
 263.053710938 199.159179688 262.40625 195.547851562 261.805664062 191.296875 c 0
 262.749023438 178.52734375 260.7578125 168.854492188 262.3203125 164.109375 c 0
 266.322265625 151.891601562 277.176757812 145.802734375 294.864257812 145.802734375 c 2
279.788085938 467.116210938 m 0
 276.224609375 456.223632812 274.270507812 424.099609375 273.889648438 371.018554688 c 1
 308.768554688 371.018554688 l 1
 323.224609375 371.018554688 l 1
 349.803710938 371.018554688 l 1
 349.803710938 371.018554688 347.373046875 461.446289062 345.486328125 467.116210938 c 0
 341.502929688 479.32421875 330.638671875 485.432617188 312.9609375 485.432617188 c 0
 312.875976562 485.432617188 312.780273438 485.39453125 312.646484375 485.39453125 c 0
 312.551757812 485.39453125 312.446289062 485.432617188 312.3515625 485.432617188 c 0
 294.654296875 485.432617188 283.809570312 479.333984375 279.788085938 467.116210938 c 0
EndSplineSet
Validated: 1
EndChar

StartChar: f
Encoding: 102 102 31
Width: 391
VWidth: 0
Flags: W
HStem: -2.24219 21G<21.6641 270.961> 384.417 137.934<270.686 364.764> 663.238 136.762<275.987 364.734>
LayerCount: 2
Fore
SplineSet
275.8125 644.188476562 m 0
 275.479492188 643.016601562 275.165039062 641.5390625 274.860351562 639.880859375 c 0
 272.553710938 620.888671875 271.171875 569.485351562 270.685546875 522.350585938 c 1
 364.763671875 522.350585938 l 1
 364.763671875 384.416992188 l 1
 270.590820312 384.416992188 l 1
 270.981445312 -2.2421875 l 1
 21.6640625 -2.2421875 l 1
 21.6640625 -2.2421875 20.81640625 659.665039062 21.7978515625 667.66015625 c 0
 24.4658203125 689.969726562 31.384765625 711.3828125 42.4482421875 731.938476562 c 0
 53.5126953125 752.50390625 70.65625 768.970703125 93.927734375 781.37890625 c 0
 117.190429688 793.795898438 146.465820312 800 181.7734375 800 c 2
 364.7734375 800 l 1
 364.7734375 663.467773438 l 1
 364.7734375 663.467773438 310.977539062 663.23828125 309.77734375 663.23828125 c 0
 290.736328125 663.23828125 279.415039062 656.891601562 275.8125 644.188476562 c 0
EndSplineSet
Validated: 33
EndChar

StartChar: g
Encoding: 103 103 32
Width: 659
VWidth: 0
Flags: W
HStem: -224.6 147.625<55.0898 358.2> -1.92773 147.635<293.258 363.615> 483.165 147.625<293.258 358.859>
VStem: 37.7168 580.428<71.5721 344.205> 364.367 253.777<145.726 463.715>
LayerCount: 2
Fore
SplineSet
210.461914062 630.790039062 m 2xf0
 618.14453125 630.790039062 l 1
 618.14453125 -1.91796875 l 1xe8
 618.14453125 -1.91796875 615.705078125 -65.671875 613.732421875 -81.6826171875 c 0
 610.826171875 -105.7734375 603.374023438 -128.90234375 591.452148438 -151.096679688 c 0
 579.530273438 -173.310546875 560.975585938 -191.092773438 535.85546875 -204.501953125 c 0
 510.725585938 -217.900390625 479.115234375 -224.599609375 441.005859375 -224.599609375 c 2
 55.08984375 -224.599609375 l 1
 55.08984375 -76.974609375 l 1
 326.0390625 -76.974609375 l 2
 343.630859375 -76.974609375 354.399414062 -70.904296875 358.392578125 -58.7626953125 c 0
 360.974609375 -50.9013671875 362.700195312 -31.908203125 363.615234375 -1.927734375 c 2
 210.461914062 -1.927734375 l 2
 172.333984375 -1.927734375 140.743164062 4.771484375 115.612304688 18.1708984375 c 0
 90.4736328125 31.5791015625 71.947265625 49.361328125 60.0166015625 71.5654296875 c 0
 48.0751953125 93.7607421875 40.623046875 116.8984375 37.716796875 140.989257812 c 0
 34.78125 165.061523438 33.3046875 344.334960938 33.3046875 344.334960938 c 2
 33.3046875 415.951171875 34.78125 463.799804688 37.716796875 487.872070312 c 0
 40.623046875 511.97265625 48.0751953125 535.1015625 60.0166015625 557.287109375 c 0
 71.9375 579.500976562 90.4736328125 597.29296875 115.612304688 610.682617188 c 0
 140.743164062 624.081054688 172.34375 630.790039062 210.461914062 630.790039062 c 2xf0
293.06640625 163.91796875 m 0
 297.049804688 151.767578125 307.818359375 145.697265625 325.419921875 145.70703125 c 0
 325.49609375 145.70703125 351.931640625 145.725585938 364.3671875 145.725585938 c 2
 364.3671875 285.775390625 l 1
 364.3671875 343.077148438 l 2
 364.3671875 411.338867188 362.576171875 451.764648438 359.03125 464.32421875 c 0
 355.466796875 476.884765625 344.26953125 483.165039062 325.41015625 483.165039062 c 0
 307.818359375 483.165039062 297.040039062 477.09375 293.06640625 464.943359375 c 0
 289.063476562 452.79296875 287.090820312 414.283203125 287.090820312 349.357421875 c 2
 287.090820312 279.495117188 l 2
 287.090820312 214.578125 289.053710938 176.059570312 293.06640625 163.91796875 c 0
EndSplineSet
Validated: 33
EndChar

StartChar: h
Encoding: 104 104 33
Width: 629
VWidth: 0
Flags: W
HStem: -2.25195 21G<22.4189 292.215 356.636 603.342> 780 20G<22.4189 292.215>
VStem: 22.4189 580.799<-1.87673 589.761> 22.4189 269.796<-2.25195 519.178 654.29 800>
LayerCount: 2
Fore
SplineSet
603.217773438 523.313476562 m 0xe0
 604.180664062 515.403320312 603.341796875 -2.251953125 603.341796875 -2.251953125 c 1
 356.607421875 -2.251953125 l 1
 357.09375 343.515625 l 2
 357.09375 396.47265625 355.6640625 471.986328125 352.766601562 495.830078125 c 0
 352.471679688 497.478515625 352.157226562 498.936523438 351.833007812 500.098632812 c 0
 348.268554688 512.668945312 337.071289062 518.94921875 318.221679688 518.94921875 c 0
 317.040039062 518.94921875 292.21484375 519.177734375 292.21484375 519.177734375 c 1
 292.21484375 -2.251953125 l 1
 22.4189453125 -2.251953125 l 1
 22.4189453125 800 l 1
 292.21484375 800 l 1
 292.21484375 654.290039062 l 1xd0
 444.900390625 654.290039062 l 2
 479.836914062 654.290039062 508.81640625 648.143554688 531.831054688 635.859375 c 0
 554.864257812 623.576171875 571.836914062 607.280273438 582.77734375 586.924804688 c 0
 593.7265625 566.587890625 600.578125 545.393554688 603.217773438 523.313476562 c 0xe0
EndSplineSet
Validated: 33
EndChar

StartChar: i
Encoding: 105 105 34
Width: 324
VWidth: 0
Flags: W
HStem: -2.24219 21G<26.1533 297.96> 662.295 137.705<26.1533 297.96>
VStem: 26.1533 271.807<-2.24219 593.452 662.295 800>
LayerCount: 2
Fore
SplineSet
26.1533203125 -2.2421875 m 1
 26.1533203125 593.452148438 l 1
 297.959960938 593.452148438 l 1
 297.959960938 -2.2421875 l 1
 26.1533203125 -2.2421875 l 1
26.1533203125 662.294921875 m 1
 26.1533203125 800 l 1
 297.959960938 800 l 1
 297.959960938 662.294921875 l 1
 26.1533203125 662.294921875 l 1
EndSplineSet
Validated: 1
EndChar

StartChar: j
Encoding: 106 106 35
Width: 455
VWidth: 0
Flags: W
HStem: -225 150.723<33.3662 154.802> 660.856 139.144<160.207 414.737>
VStem: 160.207 254.53<-72.2759 2.32287 2.37012 591.289 660.856 800>
LayerCount: 2
Fore
SplineSet
160.20703125 591.2890625 m 1
 414.737304688 591.2890625 l 1
 414.737304688 2.3701171875 l 1
 414.737304688 2.3701171875 412.297851562 -62.7275390625 410.34375 -79.0712890625 c 0
 407.41796875 -103.676757812 399.975585938 -127.291992188 388.043945312 -149.953125 c 0
 376.11328125 -172.625 357.578125 -190.788085938 332.448242188 -204.47265625 c 0
 307.318359375 -218.157226562 275.698242188 -225 237.598632812 -225 c 2
 33.3662109375 -225 l 1
 33.3662109375 -74.27734375 l 1
 122.640625 -74.27734375 l 2
 140.233398438 -74.27734375 151.010742188 -68.0830078125 154.994140625 -55.67578125 c 0
 157.567382812 -47.6416015625 159.301757812 -28.2490234375 160.20703125 2.3603515625 c 2
 160.20703125 591.2890625 l 1
160.20703125 660.856445312 m 1
 160.20703125 800 l 1
 414.737304688 800 l 1
 414.737304688 660.856445312 l 1
 160.20703125 660.856445312 l 1
EndSplineSet
Validated: 1
EndChar

StartChar: k
Encoding: 107 107 36
Width: 644
VWidth: 0
Flags: W
HStem: -2.25195 21G<28.4561 300.264 363.76 610.594> 780 20G<28.4561 300.254>
VStem: 28.4561 271.798<-2.25195 256.985 392.508 800> 364.236 246.344<-2.25195 250.439 400.521 655.367>
LayerCount: 2
Fore
SplineSet
589.69140625 292.827148438 m 0
 608.693359375 257.423828125 612.133789062 220.10546875 611.619140625 180.490234375 c 0
 610.799804688 119.5859375 610.694335938 58.662109375 610.494140625 -2.251953125 c 1
 363.759765625 -2.251953125 l 1
 364.24609375 81.32421875 l 2
 364.24609375 134.28125 362.81640625 209.794921875 359.919921875 233.637695312 c 0
 359.624023438 235.286132812 359.309570312 236.744140625 358.985351562 237.907226562 c 0
 355.412109375 250.4765625 325.421875 256.756835938 306.572265625 256.756835938 c 0
 305.380859375 256.756835938 300.263671875 256.985351562 300.263671875 256.985351562 c 1
 300.263671875 -2.251953125 l 1
 28.4560546875 -2.251953125 l 1
 28.4560546875 800 l 1
 300.25390625 800 l 1
 300.25390625 392.5078125 l 1
 300.25390625 392.5078125 305.37109375 392.737304688 306.5625 392.737304688 c 0
 325.412109375 392.737304688 355.412109375 399.026367188 358.975585938 411.586914062 c 0
 359.299804688 412.749023438 359.614257812 414.216796875 359.91015625 415.856445312 c 0
 362.806640625 439.69921875 364.236328125 515.212890625 364.236328125 568.169921875 c 2
 363.75 655.3671875 l 1
 610.485351562 655.3671875 l 2
 610.513671875 644.579101562 610.532226562 633.782226562 610.580078125 622.994140625 c 0
 610.780273438 578.157226562 610.3515625 533.30078125 611.018554688 488.47265625 c 0
 611.685546875 443.540039062 611.514648438 397.64453125 589.69140625 356.991210938 c 0
 583.249023438 344.993164062 574.795898438 334.329101562 564.50390625 324.904296875 c 1
 574.805664062 315.489257812 583.249023438 304.825195312 589.69140625 292.827148438 c 0
EndSplineSet
Validated: 33
EndChar

StartChar: l
Encoding: 108 108 37
Width: 317
VWidth: 0
Flags: W
HStem: -0.469727 21G<18.1533 289.96> -0.469727 21G<18.1533 289.96> 778.218 20G<18.1533 289.96>
VStem: 18.1533 271.807<-0.469727 798.218>
LayerCount: 2
Fore
SplineSet
18.1533203125 -0.4697265625 m 1xb0
 18.1533203125 798.217773438 l 1
 289.959960938 798.217773438 l 1
 289.959960938 -0.4697265625 l 1
 18.1533203125 -0.4697265625 l 1xb0
EndSplineSet
Validated: 1
EndChar

StartChar: m
Encoding: 109 109 38
Width: 841
VWidth: 0
Flags: W
HStem: -1.45117 21G<23.8369 294.329 371.663 551.423 628.757 810.107> 484.108 147.387<294.329 365.505 556.941 584.191 584.205 622.599>
VStem: 23.8369 270.492<-1.45117 484.108> 371.663 179.76<-1.45117 464.63> 628.757 181.351<-1.45117 465.27>
LayerCount: 2
Fore
SplineSet
805.723632812 488.825195312 m 0
 808.639648438 464.71484375 810.107421875 416.828125 810.107421875 345.145507812 c 2
 810.107421875 -1.451171875 l 1
 628.756835938 -1.451171875 l 1
 628.756835938 350.158203125 l 2
 628.756835938 415.151367188 626.774414062 453.708007812 622.791015625 465.858398438 c 0
 618.797851562 478.028320312 608.000976562 484.098632812 590.389648438 484.098632812 c 0
 571.549804688 484.098632812 560.333007812 477.818359375 556.768554688 465.239257812 c 0
 553.223632812 452.669921875 551.422851562 412.215820312 551.422851562 343.887695312 c 2
 551.422851562 -1.451171875 l 1
 371.663085938 -1.451171875 l 1
 371.663085938 350.16796875 l 2
 371.663085938 415.16015625 369.680664062 453.717773438 365.697265625 465.868164062 c 0
 361.704101562 478.038085938 350.907226562 484.108398438 333.295898438 484.108398438 c 2
 294.329101562 484.108398438 l 1
 294.329101562 -1.451171875 l 1
 23.8369140625 -1.451171875 l 1
 23.8369140625 631.8671875 l 1
 343.998046875 631.495117188 l 2
 350.31640625 631.418945312 358.645507812 631.076171875 365.897460938 630.704101562 c 0
 387.4921875 627.283203125 408.342773438 620.354492188 428.393554688 609.577148438 c 0
 440.391601562 603.134765625 451.055664062 594.681640625 460.48046875 584.389648438 c 1
 469.895507812 594.69140625 480.559570312 603.134765625 492.557617188 609.577148438 c 0
 512.474609375 620.288085938 533.182617188 627.1875 554.625 630.627929688 c 0
 564.907226562 631.094726562 584.205078125 631.485351562 584.205078125 631.485351562 c 1
 632.81640625 631.875976562 l 2
 670.954101562 631.875976562 702.602539062 625.166992188 727.760742188 611.749023438 c 0
 752.900390625 598.340820312 771.46484375 580.540039062 783.415039062 558.306640625 c 0
 795.345703125 536.083007812 802.817382812 512.935546875 805.723632812 488.825195312 c 0
EndSplineSet
Validated: 1
EndChar

StartChar: n
Encoding: 110 110 39
Width: 637
VWidth: 0
Flags: W
HStem: -1.45117 21G<27.2803 281.314 358.64 612.664> 484.108 147.768<281.314 352.491>
VStem: 27.2803 254.034<-1.45117 484.108> 358.64 254.024<-1.45117 465.279>
LayerCount: 2
Fore
SplineSet
608.270507812 488.825195312 m 0
 611.196289062 464.71484375 612.6640625 416.828125 612.6640625 345.145507812 c 2
 612.6640625 -1.451171875 l 1
 358.639648438 -1.451171875 l 1
 358.639648438 350.16796875 l 2
 358.639648438 415.16015625 356.657226562 453.717773438 352.68359375 465.868164062 c 0
 348.690429688 478.038085938 337.883789062 484.108398438 320.272460938 484.108398438 c 2
 281.314453125 484.108398438 l 1
 281.314453125 -1.451171875 l 1
 27.2802734375 -1.451171875 l 1
 27.2802734375 616.78125 l 1
 27.2802734375 631.875976562 l 1
 435.36328125 631.875976562 l 2
 473.500976562 631.875976562 505.149414062 625.166992188 530.307617188 611.749023438 c 0
 555.447265625 598.340820312 574.01171875 580.540039062 585.961914062 558.306640625 c 0
 597.892578125 536.083007812 605.364257812 512.935546875 608.270507812 488.825195312 c 0
EndSplineSet
Validated: 1
EndChar

StartChar: o
Encoding: 111 111 40
Width: 632
VWidth: 0
Flags: W
HStem: -1.12695 21G<181.66 450.294> 611.553 20G<181.66 450.294>
VStem: 27.9883 249.374<165.297 465.127> 354.61 249.375<165.297 465.127>
LayerCount: 2
Fore
SplineSet
603.985351562 488.64453125 m 0
 606.196289062 470.328125 606.12890625 159.620117188 603.985351562 141.780273438 c 0
 601.078125 117.6796875 593.616210938 94.560546875 581.685546875 72.3662109375 c 0
 569.763671875 50.15234375 551.21875 32.3701171875 526.098632812 18.970703125 c 0
 500.958984375 5.58203125 469.338867188 -1.126953125 431.249023438 -1.126953125 c 2
 200.705078125 -1.126953125 l 2
 162.615234375 -1.126953125 130.995117188 5.572265625 105.875 18.970703125 c 0
 80.7451171875 32.37890625 62.2099609375 50.162109375 50.2783203125 72.3662109375 c 0
 38.337890625 94.560546875 30.8857421875 117.689453125 27.98828125 141.780273438 c 0
 25.8056640625 159.620117188 25.7490234375 470.337890625 27.98828125 488.64453125 c 0
 30.8857421875 512.735351562 38.3466796875 535.854492188 50.2783203125 558.049804688 c 0
 62.2099609375 580.263671875 80.7451171875 598.045898438 105.875 611.444335938 c 0
 130.995117188 624.84375 162.615234375 631.552734375 200.705078125 631.552734375 c 2
 431.249023438 631.552734375 l 2
 469.338867188 631.552734375 500.96875 624.84375 526.098632812 611.444335938 c 0
 551.21875 598.036132812 569.763671875 580.25390625 581.685546875 558.049804688 c 0
 593.616210938 535.864257812 601.068359375 512.735351562 603.985351562 488.64453125 c 0
316.282226562 146.48828125 m 0
 333.874023438 146.48828125 344.670898438 152.55859375 348.654296875 164.708984375 c 0
 352.62890625 176.850585938 354.610351562 215.369140625 354.610351562 280.286132812 c 2
 354.610351562 350.138671875 l 2
 354.610351562 415.055664062 352.62890625 453.575195312 348.654296875 465.715820312 c 0
 344.670898438 477.875976562 333.874023438 483.936523438 316.282226562 483.936523438 c 0
 316.16796875 483.936523438 316.08203125 483.926757812 315.967773438 483.926757812 c 0
 315.881835938 483.926757812 315.786132812 483.936523438 315.671875 483.936523438 c 0
 298.099609375 483.936523438 287.283203125 477.875976562 283.299804688 465.715820312 c 0
 279.325195312 453.575195312 277.362304688 415.055664062 277.362304688 350.138671875 c 2
 277.362304688 280.286132812 l 2
 277.362304688 215.369140625 279.325195312 176.850585938 283.299804688 164.708984375 c 0
 287.283203125 152.55859375 298.08984375 146.48828125 315.671875 146.48828125 c 0
 315.786132812 146.48828125 315.881835938 146.498046875 315.967773438 146.498046875 c 0
 316.08203125 146.498046875 316.16796875 146.48828125 316.282226562 146.48828125 c 0
EndSplineSet
Validated: 33
EndChar

StartChar: p
Encoding: 112 112 41
Width: 659
VWidth: 0
Flags: W
VStem: 25.5244 270.769<-224.98 -2.15625 150.806 500.413> 369.644 262.592<170.275 407.746>
LayerCount: 2
Fore
SplineSet
296.29296875 -225 m 1
 296.29296875 -224.98046875 l 1
 25.5244140625 -224.98046875 l 1
 25.5244140625 653.39453125 l 1
 449.045898438 653.39453125 l 2
 488.517578125 653.39453125 521.28125 646.447265625 547.31640625 632.5625 c 0
 573.3515625 618.677734375 592.553710938 600.247070312 604.9140625 577.2421875 c 0
 617.274414062 554.247070312 625.012695312 530.2890625 628.013671875 505.321289062 c 0
 630.282226562 486.624023438 632.569335938 407.74609375 632.569335938 407.74609375 c 1
 632.235351562 240.17578125 l 2
 631.635742188 195.614257812 630.244140625 164.15625 628.0234375 145.916992188 c 0
 625.021484375 120.958007812 617.283203125 97 604.923828125 73.99609375 c 0
 592.573242188 50.9912109375 573.361328125 32.560546875 547.326171875 18.67578125 c 0
 521.291015625 4.791015625 488.52734375 -2.15625 449.0546875 -2.15625 c 2
 296.29296875 -2.15625 l 1
 296.29296875 -225 l 1
296.29296875 500.413085938 m 2
 296.29296875 150.805664062 l 2
 296.3984375 150.805664062 329.819335938 150.795898438 329.93359375 150.795898438 c 0
 348.1640625 150.795898438 359.341796875 157.076171875 363.46875 169.665039062 c 0
 367.594726562 182.244140625 369.643554688 222.154296875 369.643554688 289.415039062 c 2
 369.643554688 361.803710938 l 2
 369.643554688 429.064453125 367.594726562 468.974609375 363.46875 481.553710938 c 0
 359.341796875 494.142578125 348.1640625 500.422851562 329.93359375 500.422851562 c 0
 329.819335938 500.422851562 296.3984375 500.413085938 296.29296875 500.413085938 c 2
EndSplineSet
Validated: 5
EndChar

StartChar: q
Encoding: 113 113 42
Width: 678
VWidth: 0
Flags: W
VStem: 26.8584 262.602<170.275 407.736> 362.811 270.769<-225 -2.16602 150.806 500.413>
LayerCount: 2
Fore
SplineSet
633.579101562 -225 m 1
 362.80078125 -225 l 1
 362.80078125 -2.166015625 l 1
 210.0390625 -2.166015625 l 2
 170.56640625 -2.166015625 137.803710938 4.78125 111.768554688 18.666015625 c 0
 85.7333984375 32.55078125 66.5302734375 50.9814453125 54.1708984375 73.986328125 c 0
 41.810546875 96.9814453125 34.072265625 120.939453125 31.0703125 145.907226562 c 0
 28.849609375 164.147460938 27.458984375 195.604492188 26.8583984375 240.166015625 c 2
 26.5244140625 407.736328125 l 1
 26.5244140625 407.736328125 28.8115234375 486.614257812 31.080078125 505.311523438 c 0
 34.08203125 530.279296875 41.8203125 554.237304688 54.1796875 577.232421875 c 0
 66.5302734375 600.237304688 85.7421875 618.66796875 111.778320312 632.552734375 c 0
 137.813476562 646.4375 170.576171875 653.384765625 210.048828125 653.384765625 c 2
 633.579101562 653.384765625 l 1
 633.579101562 -225 l 1
362.810546875 150.805664062 m 2
 362.810546875 500.413085938 l 2
 362.705078125 500.413085938 329.28515625 500.422851562 329.169921875 500.422851562 c 0
 310.939453125 500.422851562 299.76171875 494.142578125 295.634765625 481.553710938 c 0
 291.508789062 468.974609375 289.459960938 429.07421875 289.459960938 361.803710938 c 2
 289.459960938 289.415039062 l 2
 289.459960938 222.154296875 291.508789062 182.244140625 295.634765625 169.665039062 c 0
 299.76171875 157.076171875 310.939453125 150.795898438 329.169921875 150.795898438 c 0
 329.28515625 150.795898438 362.705078125 150.805664062 362.810546875 150.805664062 c 2
EndSplineSet
Validated: 1
EndChar

StartChar: r
Encoding: 114 114 43
Width: 634
VWidth: 0
Flags: W
HStem: -2.25195 21G<31.3691 285.404> 483.308 147.769<285.404 356.58>
VStem: 31.3691 254.035<-2.25195 483.308>
LayerCount: 2
Fore
SplineSet
612.360351562 488.024414062 m 0
 615.276367188 463.915039062 616.743164062 416.02734375 616.743164062 344.344726562 c 2
 616.743164062 314.40234375 l 1
 362.728515625 314.40234375 l 1
 362.728515625 349.3671875 l 2
 362.728515625 414.360351562 360.74609375 452.916992188 356.772460938 465.067382812 c 0
 352.779296875 477.237304688 341.97265625 483.307617188 324.361328125 483.307617188 c 2
 285.404296875 483.307617188 l 1
 285.404296875 -2.251953125 l 1
 31.369140625 -2.251953125 l 1
 31.369140625 631.076171875 l 1
 439.452148438 631.076171875 l 2
 477.58984375 631.076171875 509.23828125 624.3671875 534.397460938 610.94921875 c 0
 559.536132812 597.541015625 578.100585938 579.739257812 590.05078125 557.505859375 c 0
 601.982421875 535.283203125 609.453125 512.134765625 612.360351562 488.024414062 c 0
EndSplineSet
Validated: 1
EndChar

StartChar: s
Encoding: 115 115 44
Width: 604
VWidth: 0
Flags: W
HStem: -2.25195 147.187<56.8065 362.221> 491.026 140.05<237.256 500.34>
LayerCount: 2
Fore
SplineSet
571.994140625 224.965820312 m 0
 578.036132812 172.142578125 569.049804688 115.25 547.969726562 72.78515625 c 0
 536.830078125 50.37109375 519.208984375 32.09375 495.584960938 18.4658203125 c 0
 471.7890625 4.7236328125 441.075195312 -2.251953125 404.318359375 -2.251953125 c 2
 56.6162109375 -2.251953125 l 1
 56.6162109375 144.563476562 l 1
 56.6162109375 144.563476562 319.217773438 144.934570312 320.599609375 144.934570312 c 0
 348.322265625 144.934570312 370.79296875 167.40625 370.79296875 195.127929688 c 0
 370.79296875 222.850585938 348.322265625 245.321289062 320.599609375 245.321289062 c 2
 320.599609375 245.321289062 206.26171875 244.796875 196.884765625 244.796875 c 0
 160.12890625 244.796875 129.423828125 251.7734375 105.618164062 265.504882812 c 0
 81.974609375 279.1328125 64.3642578125 297.420898438 53.2431640625 319.825195312 c 0
 32.1533203125 362.2890625 23.1474609375 419.181640625 29.2373046875 472.004882812 c 0
 30.4765625 483.03125 32.3818359375 493.76171875 34.8603515625 503.901367188 c 0
 39.5771484375 523.293945312 45.9140625 541.32421875 53.2431640625 556.0390625 c 0
 64.3642578125 578.452148438 81.974609375 596.73046875 105.618164062 610.358398438 c 0
 129.4140625 624.099609375 160.12890625 631.076171875 196.884765625 631.076171875 c 2
 500.33984375 631.076171875 l 1
 500.33984375 491.703125 l 1
 280.74609375 491.026367188 l 2
 251.290039062 491.026367188 227.41796875 467.145507812 227.41796875 437.698242188 c 0
 227.41796875 408.2421875 251.290039062 384.370117188 280.74609375 384.370117188 c 0
 282.213867188 384.370117188 381.19921875 384.63671875 387.927734375 384.63671875 c 0
 422.1484375 384.63671875 461.487304688 382.98828125 495.575195312 363.318359375 c 0
 519.208984375 349.700195312 536.8203125 331.413085938 547.959960938 308.999023438 c 0
 555.2890625 294.28515625 561.616210938 276.254882812 566.352539062 256.842773438 c 0
 568.821289062 246.72265625 570.708007812 235.9921875 571.994140625 224.965820312 c 0
EndSplineSet
Validated: 33
EndChar

StartChar: t
Encoding: 116 116 45
Width: 390
VWidth: 0
Flags: W
HStem: -2.25195 136.762<273.128 360.953> 524.467 137.942<267.886 360.991> 780 20G<21.4561 268.19>
VStem: 21.5801 339.411<62.9446 134.281 524.467 662.409>
LayerCount: 2
Fore
SplineSet
272.955078125 153.559570312 m 0
 276.51953125 140.856445312 287.7265625 134.509765625 306.56640625 134.509765625 c 0
 307.7578125 134.509765625 360.991210938 134.28125 360.991210938 134.28125 c 1
 360.991210938 -2.251953125 l 1
 179.897460938 -2.251953125 l 2
 144.9609375 -2.251953125 115.981445312 3.9521484375 92.966796875 16.369140625 c 0
 69.93359375 28.77734375 52.970703125 45.244140625 42.0205078125 65.8095703125 c 0
 31.0810546875 86.365234375 24.228515625 107.778320312 21.580078125 130.087890625 c 0
 20.6171875 138.092773438 21.4560546875 800 21.4560546875 800 c 1
 268.190429688 800 l 1
 267.799804688 662.409179688 l 1
 360.991210938 662.409179688 l 1
 360.991210938 524.466796875 l 1
 267.885742188 524.466796875 l 1
 268.362304688 477.33203125 269.734375 176.850585938 272.01171875 157.857421875 c 0
 272.31640625 156.208984375 272.622070312 154.731445312 272.955078125 153.559570312 c 0
EndSplineSet
Validated: 33
EndChar

StartChar: u
Encoding: 117 117 46
Width: 629
VWidth: 0
Flags: W
HStem: -2.25195 147.769<278.543 349.719> 611.076 20G<18.3691 272.395 349.719 603.743>
VStem: 18.3691 254.025<164.345 631.076> 349.719 254.024<145.517 631.076>
LayerCount: 2
Fore
SplineSet
349.71875 631.076171875 m 1
 603.743164062 631.076171875 l 1
 603.743164062 12.84375 l 1
 603.743164062 -2.251953125 l 1
 195.661132812 -2.251953125 l 2
 157.522460938 -2.251953125 125.875 4.45703125 100.715820312 17.875 c 0
 75.576171875 31.283203125 57.0126953125 49.0849609375 45.0625 71.3173828125 c 0
 33.130859375 93.541015625 25.66015625 116.688476562 22.7529296875 140.798828125 c 0
 19.8369140625 164.909179688 18.369140625 212.795898438 18.369140625 284.479492188 c 2
 18.369140625 631.076171875 l 1
 272.39453125 631.076171875 l 1
 272.39453125 279.45703125 l 2
 272.39453125 214.463867188 274.376953125 175.90625 278.350585938 163.755859375 c 0
 282.34375 151.586914062 293.150390625 145.516601562 310.760742188 145.516601562 c 2
 349.71875 145.516601562 l 1
 349.71875 631.076171875 l 1
EndSplineSet
Validated: 1
EndChar

StartChar: v
Encoding: 118 118 47
Width: 636
VWidth: 0
Flags: W
HStem: -2.25195 21G<201.085 431.222> 611.076 20G<23.541 254.817 377.629 608.572>
LayerCount: 2
Fore
SplineSet
425.438476562 -2.251953125 m 1
 206.874023438 -2.251953125 l 1
 23.541015625 631.076171875 l 1
 249.110351562 631.076171875 l 1
 316.21875 395.900390625 l 1
 383.336914062 631.076171875 l 1
 608.572265625 631.076171875 l 1
 425.438476562 -2.251953125 l 1
EndSplineSet
Validated: 1
EndChar

StartChar: w
Encoding: 119 119 48
Width: 894
VWidth: 0
Flags: W
HStem: -2.31836 21G<147.434 383.459 505.161 740.67> 611.143 19.7139G<19.125 249.683 376.495 518.09 638.421 868.987>
LayerCount: 2
Fore
SplineSet
642.255859375 631.142578125 m 1
 868.987304688 631.123046875 l 1
 736.486328125 -2.318359375 l 1
 509.783203125 -2.318359375 l 1
 447.525390625 267.048828125 l 1
 378.3203125 -2.318359375 l 1
 151.6171875 -2.318359375 l 1
 19.125 631.123046875 l 1
 245.84765625 631.142578125 l 1
 303.092773438 332.604492188 l 1
 381.770507812 630.856445312 l 1
 513.280273438 630.856445312 l 1
 585.010742188 332.604492188 l 1
 642.255859375 631.142578125 l 1
EndSplineSet
Validated: 1
EndChar

StartChar: x
Encoding: 120 120 49
Width: 658
VWidth: 0
Flags: W
HStem: -0.660156 21G<29.0801 268.807 387.287 627.033> -0.660156 21G<29.0801 268.807 387.287 627.033> 609.484 20G<29.0801 268.807 387.287 627.033>
LayerCount: 2
Fore
SplineSet
627.033203125 629.484375 m 1xa0
 485.859375 314.412109375 l 1
 627.033203125 -0.66015625 l 1
 396.4609375 -0.66015625 l 1
 328.046875 148.489257812 l 1
 259.6328125 -0.66015625 l 1
 29.080078125 -0.66015625 l 1
 170.73046875 314.412109375 l 1
 29.080078125 629.484375 l 1
 259.6328125 629.484375 l 1
 328.046875 480.34375 l 1
 396.4609375 629.484375 l 1
 627.033203125 629.484375 l 1xa0
EndSplineSet
Validated: 1
EndChar

StartChar: y
Encoding: 121 121 50
Width: 659
VWidth: 0
Flags: W
HStem: -225.896 147.625<55.4121 358.533> -3.21387 135.331<293.799 363.938> 609.484 20G<36.1328 287.768 364.442 618.467>
VStem: 38.0488 249.765<150.825 629.156> 364.442 254.024<-76.1182 -3.2699 -3.22363 -3.21387 132.279 629.484>
LayerCount: 2
Fore
SplineSet
364.442382812 629.484375 m 1
 618.466796875 629.484375 l 1
 618.466796875 -3.2236328125 l 1
 618.466796875 -3.2236328125 616.02734375 -66.9775390625 614.07421875 -82.9873046875 c 0
 611.1484375 -107.079101562 603.706054688 -130.208007812 591.774414062 -152.40234375 c 0
 579.842773438 -174.606445312 561.307617188 -192.3984375 536.177734375 -205.797851562 c 0
 511.047851562 -219.196289062 479.428710938 -225.895507812 441.328125 -225.895507812 c 2
 55.412109375 -225.895507812 l 1
 55.412109375 -78.2705078125 l 1
 326.37109375 -78.2705078125 l 2
 343.962890625 -78.2705078125 354.741210938 -72.2001953125 358.724609375 -60.0498046875 c 0
 361.297851562 -52.1875 363.032226562 -33.1953125 363.9375 -3.2138671875 c 2
 210.793945312 -3.2138671875 l 2
 172.67578125 -3.2138671875 141.075195312 3.4853515625 115.9453125 16.8837890625 c 0
 90.814453125 30.283203125 72.279296875 48.0751953125 60.3486328125 70.279296875 c 0
 48.3984375 92.4736328125 40.955078125 115.602539062 38.048828125 139.693359375 c 0
 35.1044921875 163.775390625 36.1328125 629.494140625 36.1328125 629.494140625 c 1
 287.765625 629.494140625 l 1
 287.813476562 235.125 l 2
 288.366210938 188.71484375 290.282226562 160.420898438 293.607421875 150.338867188 c 0
 297.590820312 138.178710938 308.369140625 132.1171875 325.9609375 132.1171875 c 0
 327.266601562 132.1171875 364.442382812 132.279296875 364.442382812 132.279296875 c 1
 364.442382812 629.484375 l 1
EndSplineSet
Validated: 33
EndChar

StartChar: z
Encoding: 122 122 51
Width: 644
VWidth: 0
Flags: W
HStem: -0.803711 149.799<388.632 614.467> 479.687 149.798<29.6367 262.753>
LayerCount: 2
Fore
SplineSet
614.466796875 629.370117188 m 1
 388.631835938 148.995117188 l 1
 614.466796875 148.995117188 l 1
 614.466796875 -0.8037109375 l 1
 32.06640625 -0.8037109375 l 1
 262.752929688 479.686523438 l 1
 29.63671875 479.686523438 l 1
 29.63671875 629.484375 l 1
 614.466796875 629.370117188 l 1
EndSplineSet
Validated: 1
EndChar

StartChar: zero
Encoding: 48 48 52
Width: 658
VWidth: 0
Flags: W
HStem: -2.23242 21G<188.421 469.687> 780 20G<188.417 469.687>
VStem: 22.9043 265.708<171.642 219.83 409.719 625.761> 369.501 265.698<171.996 388.039 577.919 642.765>
LayerCount: 2
Fore
SplineSet
635.161132812 518.577148438 m 2
 635.161132812 518.567382812 l 1
 635.19921875 518.567382812 l 1
 635.19921875 500.098632812 l 1
 635.19921875 297.659179688 l 1
 635.19921875 279.190429688 l 1
 635.161132812 279.190429688 l 1
 634.922851562 214.435546875 633.388671875 170.456054688 630.596679688 147.383789062 c 0
 627.556640625 122.159179688 619.7421875 97.9443359375 607.249023438 74.7099609375 c 0
 594.754882812 51.4580078125 575.342773438 32.8369140625 549.041015625 18.80859375 c 0
 522.739257812 4.78125 489.6328125 -2.232421875 449.741210938 -2.232421875 c 2
 329.056640625 -2.232421875 l 1
 208.362304688 -2.232421875 l 2
 168.48046875 -2.232421875 135.364257812 4.78125 109.0625 18.80859375 c 0
 82.7509765625 32.8369140625 63.3486328125 51.4677734375 50.8544921875 74.7099609375 c 0
 38.361328125 97.9443359375 30.546875 122.159179688 27.5068359375 147.383789062 c 0
 24.705078125 170.456054688 23.1708984375 214.435546875 22.9423828125 279.190429688 c 1
 22.904296875 279.190429688 l 1
 22.904296875 297.659179688 l 1
 22.904296875 500.108398438 l 1
 22.904296875 518.577148438 l 1
 22.9423828125 518.577148438 l 1
 23.1806640625 583.33203125 24.71484375 627.311523438 27.5068359375 650.3828125 c 0
 30.546875 675.608398438 38.361328125 699.823242188 50.8544921875 723.056640625 c 0
 63.3486328125 746.309570312 82.7509765625 764.930664062 109.0625 778.958007812 c 0
 135.364257812 792.986328125 168.470703125 800 208.362304688 800 c 2
 329.056640625 800 l 1
 449.741210938 800 l 2
 489.6328125 800 522.739257812 792.986328125 549.041015625 778.958007812 c 0
 575.342773438 764.930664062 594.754882812 746.299804688 607.249023438 723.056640625 c 0
 619.7421875 699.823242188 627.556640625 675.608398438 630.596679688 650.3828125 c 0
 633.3984375 627.311523438 634.932617188 583.33203125 635.161132812 518.577148438 c 2
294.844726562 626.377929688 m 0
 290.680664062 613.655273438 288.612304688 573.334960938 288.612304688 505.369140625 c 2
 288.612304688 409.71875 l 1
 367.5 594.291015625 l 2
 366.479492188 610.158203125 365.069335938 620.869140625 363.268554688 626.377929688 c 0
 359.094726562 639.08984375 347.801757812 645.446289062 329.380859375 645.446289062 c 0
 329.256835938 645.446289062 329.170898438 645.427734375 329.056640625 645.427734375 c 0
 328.942382812 645.427734375 328.846679688 645.446289062 328.732421875 645.446289062 c 0
 310.321289062 645.446289062 299.018554688 639.099609375 294.844726562 626.377929688 c 0
363.268554688 171.379882812 m 0
 367.432617188 184.092773438 369.500976562 224.422851562 369.500976562 292.388671875 c 2
 369.500976562 388.0390625 l 1
 290.61328125 203.45703125 l 2
 291.6328125 187.58984375 293.043945312 176.888671875 294.844726562 171.379882812 c 0
 299.018554688 158.658203125 310.311523438 152.311523438 328.732421875 152.311523438 c 0
 328.856445312 152.311523438 328.942382812 152.330078125 329.056640625 152.330078125 c 0
 329.170898438 152.330078125 329.266601562 152.311523438 329.380859375 152.311523438 c 0
 347.791992188 152.311523438 359.094726562 158.658203125 363.268554688 171.379882812 c 0
EndSplineSet
Validated: 1
EndChar

StartChar: one
Encoding: 49 49 53
Width: 535
VWidth: 0
Flags: W
HStem: -0.469727 159.651<19.9121 132.153 403.96 516.192> 638.566 159.651<19.9121 132.153>
VStem: 132.153 271.807<159.182 638.566>
LayerCount: 2
Fore
SplineSet
403.959960938 159.181640625 m 1
 516.192382812 159.181640625 l 1
 516.192382812 -0.4697265625 l 1
 19.912109375 -0.4697265625 l 1
 19.912109375 159.181640625 l 1
 132.153320312 159.181640625 l 1
 132.153320312 638.56640625 l 1
 19.912109375 638.56640625 l 1
 19.912109375 798.217773438 l 1
 403.959960938 798.217773438 l 1
 403.959960938 159.181640625 l 1
EndSplineSet
Validated: 1
EndChar

StartChar: two
Encoding: 50 50 54
Width: 668
VWidth: 0
Flags: W
HStem: -1.35645 159.652<291.601 646.688> 561.318 237.805<123.497 295.031> 646.361 152.762<300.693 377.237>
LayerCount: 2
Fore
SplineSet
291.600585938 158.295898438 m 1xa0
 646.688476562 158.295898438 l 1
 646.688476562 -1.3564453125 l 1
 23.43359375 -1.3564453125 l 1
 23.43359375 -1.3564453125 23.1005859375 241.452148438 24.9013671875 259.90234375 c 0
 26.2451171875 273.919921875 28.3798828125 287.680664062 31.201171875 300.91796875 c 0
 36.0322265625 323.5703125 43.103515625 347.442382812 52.271484375 368.130859375 c 0
 65.6884765625 398.42578125 86.654296875 422.774414062 115.205078125 441.1953125 c 0
 168.572265625 475.6171875 314.643554688 470.861328125 314.643554688 470.861328125 c 2
 352.638671875 471.109375 383.248046875 502.109375 383.009765625 540.104492188 c 2
 383.009765625 540.104492188 380.846679688 616.93359375 377.435546875 627.331054688 c 0
 373.30859375 639.918945312 362.130859375 646.19921875 343.91015625 646.19921875 c 2
 343.91015625 646.361328125 l 2
 337.686523438 646.361328125 334.427734375 646.361328125 332.797851562 646.361328125 c 1
 332.826171875 646.361328125 332.845703125 646.361328125 332.874023438 646.361328125 c 0
 332.903320312 646.361328125 329.548828125 646.361328125 332.797851562 646.361328125 c 1xa0
 315.25390625 646.3515625 304.475585938 640.28125 300.501953125 628.150390625 c 0
 297.642578125 619.458984375 295.83203125 597.092773438 295.03125 561.318359375 c 2
 41.0732421875 561.318359375 l 1
 41.7119140625 603.44921875 43.083984375 633.477539062 45.21875 651.079101562 c 0
 48.23046875 676.037109375 55.958984375 699.995117188 68.3291015625 722.98046875 c 0
 80.6787109375 745.985351562 99.8916015625 764.40625 125.916992188 778.291015625 c 0
 151.952148438 792.17578125 184.696289062 799.123046875 224.177734375 799.123046875 c 2xc0
 463.002929688 799.123046875 l 2
 502.474609375 799.123046875 535.23828125 792.17578125 561.263671875 778.291015625 c 0
 587.290039062 764.40625 606.4921875 745.985351562 618.852539062 722.98046875 c 0
 631.211914062 699.995117188 638.950195312 676.037109375 641.952148438 651.079101562 c 0
 644.420898438 630.646484375 645.897460938 593.538085938 646.345703125 540.095703125 c 0
 648.661132812 482.326171875 639.141601562 422.021484375 617.499023438 373.181640625 c 0
 604.071289062 342.896484375 583.086914062 318.557617188 554.564453125 300.13671875 c 0
 530.64453125 284.698242188 501.436523438 275.740234375 467.0625 273.04296875 c 2
 359.653320312 272.291015625 l 2
 321.819335938 272.052734375 291.34375 241.319335938 291.315429688 203.552734375 c 2
 291.600585938 158.295898438 l 1xa0
EndSplineSet
Validated: 37
EndChar

StartChar: three
Encoding: 51 51 55
Width: 665
VWidth: 0
Flags: W
HStem: -1.34668 237.806<110.958 282.483> -1.34668 152.762<288.145 364.688> 321.864 152.762<254.333 364.688> 561.299 237.806<110.949 282.483> 646.343 152.762<288.144 364.688>
VStem: 28.5352 253.948<170.045 236.459 561.299 644.184> 370.472 263.097<154.009 301.899 494.08 643.746>
LayerCount: 2
Fore
SplineSet
629.404296875 469.909179688 m 0x2e
 626.40234375 444.950195312 618.6640625 420.9921875 606.323242188 398.006835938 c 0
 606.313476562 397.997070312 606.313476562 397.997070312 606.313476562 397.98828125 c 1
 606.323242188 397.98828125 606.323242188 397.978515625 606.323242188 397.978515625 c 2
 618.68359375 374.9921875 626.421875 351.03515625 629.422851562 326.076171875 c 0
 631.176757812 311.638671875 633.673828125 243.196289062 633.568359375 236.391601562 c 0
 633.6640625 229.578125 631.166992188 161.135742188 629.422851562 146.698242188 c 0
 626.412109375 121.739257812 618.68359375 97.7822265625 606.323242188 74.7958984375 c 0
 593.962890625 51.791015625 574.760742188 33.3701171875 548.735351562 19.4853515625 c 0
 522.69921875 5.6005859375 489.946289062 -1.3466796875 450.473632812 -1.3466796875 c 2x6e
 211.639648438 -1.3466796875 l 2
 172.157226562 -1.3466796875 139.404296875 5.6005859375 113.377929688 19.4853515625 c 0
 87.3525390625 33.3701171875 68.140625 51.791015625 55.7900390625 74.7958984375 c 0
 43.419921875 97.7822265625 35.6826171875 121.739257812 32.6806640625 146.698242188 c 0
 30.5458984375 164.299804688 29.1640625 194.328125 28.53515625 236.458984375 c 1
 282.483398438 236.458984375 l 2xa6
 283.293945312 200.68359375 285.104492188 178.327148438 287.953125 169.626953125 c 0
 291.936523438 157.495117188 302.706054688 151.424804688 320.25 151.415039062 c 1
 317 151.415039062 320.354492188 151.415039062 320.326171875 151.415039062 c 0
 320.297851562 151.415039062 320.278320312 151.415039062 320.25 151.415039062 c 1
 321.879882812 151.415039062 325.138671875 151.415039062 331.361328125 151.415039062 c 2
 331.361328125 151.577148438 l 2
 349.591796875 151.577148438 360.760742188 157.84765625 364.88671875 170.446289062 c 0
 367.755859375 179.17578125 369.604492188 201.293945312 370.471679688 236.3828125 c 0
 369.604492188 271.470703125 367.755859375 293.580078125 364.88671875 302.318359375 c 0
 360.760742188 314.907226562 349.58203125 321.1875 331.361328125 321.1875 c 2
 331.361328125 321.349609375 l 2
 331.28515625 321.349609375 331.237304688 321.349609375 331.161132812 321.349609375 c 2
 331.161132812 321.864257812 l 1
 254.333007812 321.864257812 l 1
 254.333007812 474.625976562 l 1
 331.161132812 474.625976562 l 2
 331.237304688 474.625976562 331.28515625 474.625976562 331.361328125 474.625976562 c 2
 331.361328125 474.788085938 l 2
 349.591796875 474.788085938 360.760742188 481.05859375 364.88671875 493.657226562 c 0
 367.774414062 502.461914062 369.6328125 524.857421875 370.490234375 560.479492188 c 0
 369.6328125 596.111328125 367.784179688 618.505859375 364.88671875 627.311523438 c 0
 360.760742188 639.900390625 349.58203125 646.180664062 331.361328125 646.180664062 c 2
 331.361328125 646.342773438 l 2
 325.138671875 646.342773438 321.879882812 646.342773438 320.25 646.342773438 c 1
 320.278320312 646.342773438 320.297851562 646.342773438 320.326171875 646.342773438 c 0
 320.354492188 646.342773438 317 646.342773438 320.25 646.342773438 c 1x6e
 302.706054688 646.333007812 291.927734375 640.262695312 287.953125 628.130859375 c 0
 285.094726562 619.440429688 283.284179688 597.073242188 282.483398438 561.298828125 c 2
 28.525390625 561.298828125 l 1
 29.1640625 603.4296875 30.5361328125 633.458007812 32.6708984375 651.059570312 c 0
 35.6826171875 676.017578125 43.4111328125 699.975585938 55.7802734375 722.961914062 c 0
 68.130859375 745.966796875 87.3427734375 764.387695312 113.369140625 778.272460938 c 0
 139.404296875 792.157226562 172.1484375 799.104492188 211.629882812 799.104492188 c 2x36
 450.455078125 799.104492188 l 2
 489.926757812 799.104492188 522.690429688 792.157226562 548.715820312 778.272460938 c 0
 574.741210938 764.387695312 593.944335938 745.966796875 606.303710938 722.961914062 c 0
 618.6640625 699.975585938 626.40234375 676.017578125 629.404296875 651.059570312 c 0
 631.186523438 636.3359375 633.654296875 567.0078125 633.559570312 560.479492188 c 0
 633.654296875 553.9609375 631.186523438 484.623046875 629.404296875 469.909179688 c 0x2e
EndSplineSet
Validated: 37
EndChar

StartChar: four
Encoding: 52 52 56
Width: 677
VWidth: 0
Flags: W
HStem: -0.469727 21G<305.065 576.872> -0.469727 21G<305.065 576.872> 160.631 159.661<204.364 305.065 576.872 655.493> 778.218 20G<293.068 576.872>
VStem: 305.065 271.807<-0.469727 160.631 320.292 488.368>
LayerCount: 2
Fore
SplineSet
576.872070312 320.291992188 m 1xb8
 655.493164062 320.291992188 l 1
 655.493164062 160.639648438 l 1
 576.872070312 160.639648438 l 1
 576.872070312 -0.4697265625 l 1
 305.065429688 -0.4697265625 l 1
 305.065429688 160.630859375 l 1
 18.6015625 160.630859375 l 1
 18.6015625 320.682617188 l 1
 305.065429688 798.217773438 l 1
 576.872070312 798.217773438 l 1
 576.872070312 320.291992188 l 1xb8
305.065429688 320.291992188 m 1
 305.065429688 488.368164062 l 1
 204.364257812 320.291992188 l 1
 305.065429688 320.291992188 l 1
EndSplineSet
Validated: 1
EndChar

StartChar: five
Encoding: 53 53 57
Width: 648
VWidth: 0
Flags: W
HStem: -1.35645 21G<185.515 463.826> 645.514 153.6<285.034 581.266>
VStem: 22.1562 262.878<170.916 321.588 560.099 645.514>
LayerCount: 2
Fore
SplineSet
599.924804688 483.91796875 m 0
 612.294921875 460.921875 620.0234375 436.96484375 623.043945312 411.99609375 c 0
 624.950195312 396.272460938 625.045898438 163.194335938 623.043945312 146.688476562 c 0
 620.033203125 121.73046875 612.3046875 97.7724609375 599.934570312 74.787109375 c 0
 587.583984375 51.7822265625 568.372070312 33.3603515625 542.346679688 19.4755859375 c 0
 516.311523438 5.5908203125 483.567382812 -1.3564453125 444.084960938 -1.3564453125 c 2
 205.250976562 -1.3564453125 l 2
 165.778320312 -1.3564453125 133.015625 5.5908203125 106.990234375 19.4755859375 c 0
 80.9638671875 33.3603515625 61.76171875 51.7822265625 49.4013671875 74.787109375 c 0
 37.041015625 97.7724609375 29.3037109375 121.73046875 26.3017578125 146.688476562 c 0
 25.7197265625 151.510742188 25.072265625 262.09375 24.4619140625 321.587890625 c 1
 285.21484375 321.587890625 l 1
 285.21484375 302.08984375 l 1
 286.072265625 266.467773438 287.921875 179.251953125 290.818359375 170.446289062 c 0
 294.9453125 157.857421875 306.123046875 151.577148438 324.34375 151.577148438 c 2
 324.34375 151.415039062 l 2
 330.567382812 151.415039062 333.826171875 151.415039062 335.456054688 151.415039062 c 1
 335.427734375 151.415039062 335.408203125 151.415039062 335.379882812 151.415039062 c 0
 335.350585938 151.415039062 338.705078125 151.415039062 335.456054688 151.415039062 c 1
 353 151.424804688 363.778320312 157.495117188 367.751953125 169.626953125 c 0
 370.391601562 177.6796875 372.125976562 197.596679688 373.012695312 228.891601562 c 2
 372.860351562 228.891601562 l 1
 372.860351562 250.953125 l 2
 371.92578125 279.247070312 370.239257812 381.482421875 367.7421875 389.077148438 c 0
 363.758789062 401.208984375 352.990234375 407.279296875 335.446289062 407.2890625 c 1
 338.686523438 407.2890625 22.15625 407.2890625 22.15625 407.2890625 c 1
 22.15625 799.11328125 l 1
 581.265625 799.11328125 l 1
 581.265625 799.11328125 581.265625 798.408203125 581.265625 797.16015625 c 2
 581.818359375 645.637695312 l 1
 285.034179688 645.513671875 l 1
 285.034179688 560.098632812 l 1
 285.291015625 560.098632812 l 2
 285.358398438 559.326171875 285.443359375 560.098632812 285.443359375 560.098632812 c 1
 444.076171875 560.060546875 l 2
 483.557617188 560.060546875 516.311523438 553.11328125 542.336914062 539.228515625 c 0
 568.362304688 525.34375 587.57421875 506.921875 599.924804688 483.91796875 c 0
EndSplineSet
Validated: 37
EndChar

StartChar: six
Encoding: 54 54 58
Width: 651
VWidth: 0
Flags: W
HStem: -1.34668 152.762<286.683 363.227> 323.094 152.8<281.109 363.217> 561.299 237.806<368.888 540.423> 646.343 152.762<286.683 363.226>
VStem: 21.9678 258.913<170.869 323.094 475.954 643.748> 368.526 250.184<170.013 304.518 561.299 627.713>
LayerCount: 2
Fore
SplineSet
21.9677734375 146.698242188 m 0xdc
 20.185546875 161.421875 17.7841796875 558.516601562 17.8125 561.366210938 c 0
 17.716796875 568.1796875 20.2138671875 636.622070312 21.9580078125 651.059570312 c 0
 24.96875 676.017578125 32.6982421875 699.975585938 45.0576171875 722.961914062 c 0
 57.41796875 745.966796875 76.6201171875 764.387695312 102.646484375 778.272460938 c 0
 128.681640625 792.157226562 161.435546875 799.104492188 200.907226562 799.104492188 c 2xdc
 439.741210938 799.104492188 l 2
 479.223632812 799.104492188 511.977539062 792.157226562 538.002929688 778.272460938 c 0
 564.028320312 764.387695312 583.240234375 745.966796875 595.590820312 722.961914062 c 0
 607.9609375 699.975585938 615.69921875 676.017578125 618.701171875 651.059570312 c 0
 620.834960938 633.458007812 622.216796875 603.4296875 622.845703125 561.298828125 c 1
 368.887695312 561.298828125 l 2xec
 368.078125 597.073242188 366.267578125 619.430664062 363.41796875 628.130859375 c 0
 359.434570312 640.262695312 348.666015625 646.333007812 331.122070312 646.342773438 c 1
 334.37109375 646.342773438 331.016601562 646.342773438 331.045898438 646.342773438 c 0
 331.07421875 646.342773438 331.092773438 646.342773438 331.122070312 646.342773438 c 1
 329.4921875 646.342773438 326.233398438 646.342773438 320.009765625 646.342773438 c 2
 320.009765625 646.180664062 l 2
 301.779296875 646.180664062 290.610351562 639.91015625 286.484375 627.311523438 c 0
 283.616210938 618.58203125 281.767578125 596.463867188 280.900390625 561.375 c 0
 280.966796875 558.716796875 281.109375 475.893554688 281.109375 475.893554688 c 1
 397.048828125 475.85546875 l 1
 439.750976562 475.85546875 l 2
 479.233398438 475.85546875 511.986328125 468.908203125 538.012695312 455.0234375 c 0
 564.038085938 441.138671875 583.25 422.717773438 595.600585938 399.712890625 c 0
 607.969726562 376.7265625 615.708007812 352.76953125 618.709960938 327.810546875 c 0
 620.616210938 312.077148438 620.711914062 163.203125 618.709960938 146.698242188 c 0
 615.69921875 121.739257812 607.969726562 97.7822265625 595.600585938 74.7958984375 c 0
 583.25 51.791015625 564.038085938 33.3701171875 538.012695312 19.4853515625 c 0
 511.977539062 5.6005859375 479.233398438 -1.3466796875 439.750976562 -1.3466796875 c 2
 200.916992188 -1.3466796875 l 2
 161.444335938 -1.3466796875 128.681640625 5.6005859375 102.655273438 19.4853515625 c 0
 76.6298828125 33.3701171875 57.427734375 51.791015625 45.0673828125 74.7958984375 c 0
 32.70703125 97.7822265625 24.96875 121.739257812 21.9677734375 146.698242188 c 0xdc
280.87109375 323.09375 m 1
 280.880859375 323.09375 l 1
 280.880859375 237.278320312 l 1
 281.73828125 201.646484375 283.586914062 179.251953125 286.484375 170.446289062 c 0
 290.610351562 157.857421875 301.7890625 151.577148438 320.009765625 151.577148438 c 2
 320.009765625 151.415039062 l 2
 326.233398438 151.415039062 329.4921875 151.415039062 331.122070312 151.415039062 c 1
 331.092773438 151.415039062 331.07421875 151.415039062 331.045898438 151.415039062 c 0
 331.016601562 151.415039062 334.37109375 151.415039062 331.122070312 151.415039062 c 1
 348.666015625 151.424804688 359.444335938 157.495117188 363.41796875 169.626953125 c 0
 366.057617188 177.6796875 367.791992188 197.596679688 368.678710938 228.891601562 c 2
 368.526367188 228.891601562 l 1
 368.526367188 250.953125 l 2
 367.591796875 279.247070312 365.905273438 297.287109375 363.408203125 304.881835938 c 0
 359.424804688 317.013671875 348.65625 323.083984375 331.112304688 323.09375 c 1
 334.361328125 323.09375 331.006835938 323.09375 331.036132812 323.09375 c 0
 331.064453125 323.09375 331.083984375 323.09375 331.112304688 323.09375 c 1
 330.044921875 323.09375 328.158203125 323.09375 325.298828125 323.09375 c 2
 325.298828125 323.131835938 l 1
 320.200195312 323.131835938 l 2
 320.124023438 323.131835938 320.077148438 323.131835938 320 323.131835938 c 2
 320 323.09375 l 1
 280.87109375 323.09375 l 1
EndSplineSet
Validated: 37
EndChar

StartChar: seven
Encoding: 55 55 59
Width: 658
VWidth: 0
Flags: W
HStem: -0.459961 21G<118.202 396.18> -0.459961 21G<118.202 396.18> 638.576 159.651<22.2188 315.373>
LayerCount: 2
Fore
SplineSet
22.21875 798.227539062 m 1xa0
 636.4296875 798.227539062 l 1
 390.009765625 -0.4599609375 l 1
 118.202148438 -0.4599609375 l 1
 315.373046875 638.576171875 l 1
 22.21875 638.576171875 l 1
 22.21875 798.227539062 l 1xa0
EndSplineSet
Validated: 1
EndChar

StartChar: eight
Encoding: 56 56 60
Width: 653
VWidth: 0
Flags: W
HStem: -1.34668 21G<186.167 464.492> 321.35 153.457<291.693 358.966> 779.113 20G<186.167 464.492>
VStem: 22.8984 263.002<170.866 318.755 477.241 643.767> 364.749 263.012<154.009 318.753 477.239 643.765>
LayerCount: 2
Fore
SplineSet
627.845703125 236.458984375 m 2
 627.836914062 235.954101562 627.827148438 235.505859375 627.817382812 235.009765625 c 0
 627.807617188 234.114257812 627.7890625 232.999023438 627.760742188 231.532226562 c 0
 627.09375 192.041015625 625.758789062 163.584960938 623.709960938 146.698242188 c 0
 620.69921875 121.739257812 612.969726562 97.7822265625 600.600585938 74.7958984375 c 0
 588.25 51.791015625 569.038085938 33.3701171875 543.012695312 19.4853515625 c 0
 516.977539062 5.6005859375 484.233398438 -1.3466796875 444.750976562 -1.3466796875 c 2
 444.741210938 -1.3466796875 l 1
 205.916992188 -1.3466796875 l 1
 205.907226562 -1.3466796875 l 2
 166.42578125 -1.3466796875 133.671875 5.6005859375 107.646484375 19.4853515625 c 0
 81.6201171875 33.3701171875 62.408203125 51.791015625 50.0576171875 74.7958984375 c 0
 37.6884765625 97.7822265625 29.9501953125 121.739257812 26.9482421875 146.698242188 c 0
 24.8994140625 163.584960938 23.5654296875 192.041015625 22.8984375 231.532226562 c 0
 22.869140625 232.999023438 22.8505859375 234.124023438 22.8408203125 235.009765625 c 0
 22.8310546875 235.505859375 22.822265625 235.954101562 22.8125 236.458984375 c 2
 22.8310546875 236.458984375 l 2
 22.74609375 243.520507812 25.232421875 311.666992188 26.9765625 326.076171875 c 0
 29.98828125 351.03515625 37.716796875 374.9921875 50.0771484375 397.978515625 c 0
 50.0869140625 397.978515625 50.0869140625 397.98828125 50.0869140625 397.98828125 c 2
 50.0771484375 397.997070312 50.0771484375 398.006835938 50.0771484375 398.006835938 c 2
 37.716796875 420.9921875 29.978515625 444.950195312 26.9765625 469.909179688 c 0
 25.1943359375 484.623046875 22.7265625 553.951171875 22.822265625 560.479492188 c 0
 22.8125 560.651367188 22.822265625 561.041992188 22.822265625 561.298828125 c 2
 22.8125 561.298828125 l 2
 22.8125 561.565429688 22.822265625 561.803710938 22.822265625 562.071289062 c 0
 22.822265625 562.604492188 22.8408203125 563.28125 22.8505859375 563.99609375 c 0
 23.5078125 604.678710938 24.861328125 633.858398438 26.9482421875 651.069335938 c 0
 29.9599609375 676.02734375 37.6884765625 699.985351562 50.0576171875 722.970703125 c 0
 62.408203125 745.975585938 81.6201171875 764.396484375 107.646484375 778.28125 c 0
 133.681640625 792.166992188 166.42578125 799.11328125 205.907226562 799.11328125 c 2
 205.916992188 799.11328125 l 1
 444.741210938 799.11328125 l 1
 444.750976562 799.11328125 l 2
 484.233398438 799.11328125 516.986328125 792.166992188 543.012695312 778.28125 c 0
 569.038085938 764.396484375 588.25 745.975585938 600.600585938 722.970703125 c 0
 612.969726562 699.985351562 620.708007812 676.02734375 623.709960938 651.069335938 c 0
 625.796875 633.858398438 627.16015625 604.678710938 627.807617188 563.99609375 c 0
 627.817382812 563.271484375 627.836914062 562.594726562 627.836914062 562.071289062 c 0
 627.836914062 561.803710938 627.845703125 561.565429688 627.845703125 561.298828125 c 2
 627.836914062 561.298828125 l 2
 627.836914062 561.041992188 627.836914062 560.651367188 627.836914062 560.479492188 c 0
 627.931640625 553.9609375 625.463867188 484.623046875 623.681640625 469.909179688 c 0
 620.669921875 444.950195312 612.94140625 420.9921875 600.58203125 398.006835938 c 0
 600.572265625 397.997070312 600.572265625 397.997070312 600.572265625 397.98828125 c 1
 600.58203125 397.98828125 600.58203125 397.978515625 600.58203125 397.978515625 c 2
 612.94140625 374.9921875 620.6796875 351.03515625 623.681640625 326.076171875 c 0
 625.42578125 311.666992188 627.913085938 243.520507812 627.827148438 236.458984375 c 2
 627.845703125 236.458984375 l 2
325.6484375 646.19921875 m 2
 325.01953125 646.19921875 l 2
 306.7890625 646.19921875 295.620117188 639.928710938 291.494140625 627.331054688 c 0
 288.606445312 618.515625 286.748046875 596.12109375 285.890625 560.498046875 c 0
 286.748046875 524.875976562 288.596679688 502.481445312 291.494140625 493.67578125 c 0
 295.620117188 481.086914062 306.798828125 474.806640625 325.01953125 474.806640625 c 2
 325.6484375 474.806640625 l 2
 343.87890625 474.806640625 355.047851562 481.078125 359.173828125 493.67578125 c 0
 362.061523438 502.481445312 363.919921875 524.875976562 364.77734375 560.498046875 c 0
 363.919921875 596.129882812 362.071289062 618.525390625 359.173828125 627.331054688 c 0
 355.047851562 639.918945312 343.869140625 646.19921875 325.6484375 646.19921875 c 2
325.009765625 151.577148438 m 2
 325.638671875 151.577148438 l 2
 343.869140625 151.577148438 355.038085938 157.84765625 359.165039062 170.446289062 c 0
 362.033203125 179.17578125 363.881835938 201.293945312 364.749023438 236.3828125 c 0
 363.881835938 271.470703125 362.033203125 293.580078125 359.165039062 302.318359375 c 0
 355.038085938 314.907226562 343.859375 321.1875 325.638671875 321.1875 c 2
 325.638671875 321.349609375 l 2
 325.572265625 321.349609375 325.0859375 321.349609375 325.009765625 321.349609375 c 2
 325.009765625 321.1875 l 2
 306.779296875 321.1875 295.610351562 314.916992188 291.484375 302.318359375 c 0
 288.616210938 293.580078125 286.767578125 271.470703125 285.900390625 236.3828125 c 0
 286.767578125 201.293945312 288.616210938 179.184570312 291.484375 170.446289062 c 0
 295.610351562 157.857421875 306.7890625 151.577148438 325.009765625 151.577148438 c 2
EndSplineSet
Validated: 33
EndChar

StartChar: nine
Encoding: 57 57 61
Width: 651
VWidth: 0
Flags: W
HStem: -1.32715 237.805<106.245 277.771> -1.32715 152.762<283.432 359.975> 646.352 152.771<315.39 359.975>
VStem: 27.958 250.175<170.063 236.478 493.248 627.754> 365.777 258.914<154.029 321.824 474.674 626.899>
LayerCount: 2
Fore
SplineSet
624.69140625 651.079101562 m 0x78
 626.473632812 636.35546875 628.865234375 239.250976562 628.85546875 236.411132812 c 0
 628.951171875 229.59765625 626.454101562 161.154296875 624.709960938 146.716796875 c 0
 621.69921875 121.758789062 613.969726562 97.80078125 601.610351562 74.8154296875 c 0
 589.25 51.810546875 570.047851562 33.3896484375 544.021484375 19.5048828125 c 0
 517.986328125 5.6201171875 485.233398438 -1.3271484375 445.760742188 -1.3271484375 c 2x78
 206.926757812 -1.3271484375 l 2
 167.444335938 -1.3271484375 134.690429688 5.6201171875 108.665039062 19.5048828125 c 0
 82.6396484375 33.3896484375 63.427734375 51.810546875 51.0771484375 74.8154296875 c 0
 38.70703125 97.80078125 30.96875 121.758789062 27.9677734375 146.716796875 c 0
 25.8330078125 164.318359375 24.451171875 194.346679688 23.822265625 236.477539062 c 1
 277.770507812 236.477539062 l 2xb8
 278.580078125 200.703125 280.391601562 178.346679688 283.240234375 169.645507812 c 0
 287.223632812 157.514648438 297.9921875 151.444335938 315.537109375 151.434570312 c 1
 312.287109375 151.434570312 315.641601562 151.434570312 315.61328125 151.434570312 c 0
 315.583984375 151.434570312 315.565429688 151.434570312 315.537109375 151.434570312 c 1
 317.166015625 151.434570312 320.42578125 151.434570312 326.6484375 151.434570312 c 2
 326.6484375 151.596679688 l 2
 344.87890625 151.596679688 356.047851562 157.8671875 360.173828125 170.46484375 c 0
 363.04296875 179.194335938 364.891601562 201.313476562 365.758789062 236.401367188 c 0
 365.69140625 239.060546875 365.548828125 321.883789062 365.548828125 321.883789062 c 1
 249.619140625 321.921875 l 1
 206.916992188 321.921875 l 2
 167.435546875 321.921875 134.681640625 328.868164062 108.655273438 342.75390625 c 0
 82.6298828125 356.638671875 63.41796875 375.059570312 51.0673828125 398.064453125 c 0
 38.6982421875 421.049804688 30.9599609375 445.0078125 27.9580078125 469.965820312 c 0
 26.0517578125 485.69921875 25.9560546875 634.573242188 27.9580078125 651.079101562 c 0
 30.96875 676.037109375 38.6982421875 699.995117188 51.0673828125 722.98046875 c 0
 63.41796875 745.985351562 82.6298828125 764.40625 108.655273438 778.291015625 c 0
 134.690429688 792.17578125 167.435546875 799.123046875 206.916992188 799.123046875 c 2
 445.741210938 799.123046875 l 2
 485.213867188 799.123046875 517.977539062 792.17578125 544.002929688 778.291015625 c 0
 570.028320312 764.40625 589.231445312 745.985351562 601.590820312 722.98046875 c 0
 613.951171875 699.995117188 621.689453125 676.037109375 624.69140625 651.079101562 c 0x78
365.787109375 474.673828125 m 1
 365.77734375 474.673828125 l 1
 365.77734375 560.489257812 l 1
 364.919921875 596.12109375 363.071289062 618.515625 360.173828125 627.321289062 c 0
 356.047851562 639.91015625 344.869140625 646.190429688 326.6484375 646.190429688 c 2
 326.6484375 646.3515625 l 2
 320.42578125 646.3515625 317.166015625 646.3515625 315.537109375 646.3515625 c 1
 315.565429688 646.3515625 315.583984375 646.3515625 315.61328125 646.3515625 c 0
 315.641601562 646.3515625 312.287109375 646.3515625 315.537109375 646.3515625 c 1
 297.9921875 646.342773438 287.21484375 640.272460938 283.240234375 628.140625 c 0
 280.600585938 620.087890625 278.866210938 600.170898438 277.98046875 568.875 c 2
 278.1328125 568.875 l 1
 278.1328125 546.813476562 l 2
 279.06640625 518.51953125 280.752929688 500.48046875 283.25 492.884765625 c 0
 287.233398438 480.75390625 298.001953125 474.68359375 315.545898438 474.673828125 c 1
 312.296875 474.673828125 365.787109375 474.673828125 365.787109375 474.673828125 c 1
EndSplineSet
Validated: 37
EndChar

StartChar: Acircumflex
Encoding: 229 194 63
Width: 652
VWidth: 0
Flags: W
HStem: 0.00976562 806.7<92.6803 279.996 345.344 620.419> 853.453 103.532<133.276 160.144 479.061 506.238>
VStem: 23.1123 256.884<0.461124 240.235 403.364 636.663> 345.344 275.075<0.00976562 240.235 403.364 655.726>
LayerCount: 2
Fore
SplineSet
620.524414062 0.009765625 m 1
 345.34375 0.009765625 l 1
 345.34375 240.235351562 l 1
 279.99609375 240.235351562 l 1
 279.99609375 0 l 1
 19 0 l 1
 19 0 20.3798828125 636.0859375 23.1123046875 660.6796875 c 0
 25.8232421875 685.303710938 32.7919921875 708.9375 43.9580078125 731.60546875 c 0
 55.1240234375 754.291992188 72.443359375 772.463867188 95.9443359375 786.169921875 c 0
 119.455078125 799.856445312 149.024414062 806.709960938 184.649414062 806.709960938 c 2
 620.418945312 806.709960938 l 1
 620.524414062 0.009765625 l 1
312.668945312 403.364257812 m 1
 345.34375 403.364257812 l 1
 345.34375 655.725585938 l 1
 312.668945312 655.725585938 l 2
 298.139648438 654.948242188 289.034179688 648.842773438 285.5546875 637.264648438 c 0
 281.827148438 624.853515625 279.99609375 585.490234375 279.99609375 519.155273438 c 2
 279.99609375 403.364257812 l 1
 312.668945312 403.364257812 l 1
133.276367188 853.453125 m 1
 133.276367188 956.985351562 l 1
 318.688476562 1006.49902344 l 1
 506.23828125 956.985351562 l 1
 506.23828125 853.453125 l 1
 318.688476562 902.967773438 l 1
 133.276367188 853.453125 l 1
EndSplineSet
Validated: 1
EndChar

StartChar: Atilde
Encoding: 204 195 64
Width: 664
VWidth: 0
Flags: W
HStem: 0 804.602<103.535 290.354 355.527 629.903>
VStem: 34.1494 256.214<0.469681 239.603 402.3 634.988> 355.537 274.366<0 239.603 402.3 653.989>
LayerCount: 2
Fore
SplineSet
630 0 m 1
 355.52734375 0 l 1
 355.52734375 239.602539062 l 1
 290.353515625 239.602539062 l 1
 290.353515625 0.009765625 l 1
 30.0380859375 0.009765625 l 1
 30.0380859375 0.009765625 31.41796875 634.427734375 34.1494140625 658.963867188 c 0
 36.8525390625 683.51953125 43.80078125 707.087890625 54.9384765625 729.697265625 c 0
 66.076171875 752.336914062 83.3564453125 770.4609375 106.790039062 784.119140625 c 0
 130.234375 797.766601562 159.7265625 804.6015625 195.265625 804.6015625 c 2
 629.903320312 804.6015625 l 1
 630 0 l 1
322.951171875 402.299804688 m 1
 355.537109375 402.299804688 l 1
 355.537109375 653.989257812 l 1
 322.951171875 653.989257812 l 2
 308.467773438 653.22265625 299.373046875 647.146484375 295.912109375 635.587890625 c 0
 292.193359375 623.213867188 290.36328125 583.946289062 290.36328125 517.78515625 c 2
 290.36328125 402.299804688 l 1
 322.951171875 402.299804688 l 1
160.061523438 967.470703125 m 1
 160.061523438 967.470703125 225.849609375 1032.2421875 330.024414062 988.958984375 c 0
 453.03125 937.853515625 499.889648438 1003.86328125 499.889648438 1003.86328125 c 1
 500.004882812 866.104492188 l 1
 500.004882812 866.104492188 414.654296875 830.057617188 330.033203125 866.104492188 c 0
 230.268554688 908.59375 160.0703125 850.088867188 160.0703125 850.088867188 c 1
 160.0703125 967.470703125 l 1
 160.061523438 967.470703125 l 1
EndSplineSet
Validated: 37
EndChar

StartChar: Adieresis
Encoding: 128 196 65
Width: 652
VWidth: 0
Flags: W
HStem: -0.0185547 807.668<90.6021 278.143 343.566 618.978> 853.311 154.368<131.241 285.608 350.295 504.653>
VStem: 20.9512 257.191<0.42457 240.496 403.815 637.393> 131.241 154.367<853.311 1007.68> 343.566 275.411<-0.0185547 240.496 403.815 656.474> 350.295 154.358<853.311 1007.68>
LayerCount: 2
Fore
SplineSet
619.083007812 -0.02734375 m 1xe8
 619.083007812 -0.0185546875 l 1
 343.56640625 -0.0185546875 l 1
 343.56640625 240.49609375 l 1
 278.142578125 240.49609375 l 1
 278.142578125 -0.037109375 l 1
 16.830078125 -0.037109375 l 1
 16.830078125 -0.037109375 18.2099609375 636.815429688 20.951171875 661.438476562 c 0
 23.654296875 686.08984375 30.6416015625 709.75390625 41.81640625 732.44921875 c 0
 52.9921875 755.174804688 70.3408203125 773.366210938 93.8701171875 787.081054688 c 0
 117.41015625 800.796875 147.016601562 807.649414062 182.689453125 807.649414062 c 2
 618.977539062 807.649414062 l 1
 619.083007812 -0.02734375 l 1xe8
310.854492188 403.815429688 m 1
 343.56640625 403.815429688 l 1
 343.56640625 656.473632812 l 1
 310.854492188 656.473632812 l 2
 296.305664062 655.70703125 287.190429688 649.591796875 283.7109375 637.994140625 c 0
 279.982421875 625.583007812 278.142578125 586.170898438 278.142578125 519.750976562 c 2
 278.142578125 403.815429688 l 1
 310.854492188 403.815429688 l 1
131.241210938 853.310546875 m 1xd0
 131.241210938 1007.67871094 l 1
 285.608398438 1007.67871094 l 1
 285.608398438 853.310546875 l 1
 131.241210938 853.310546875 l 1xd0
350.294921875 853.310546875 m 1xc4
 350.294921875 1007.67871094 l 1
 504.653320312 1007.67871094 l 1
 504.653320312 853.310546875 l 1
 350.294921875 853.310546875 l 1xc4
EndSplineSet
Validated: 5
EndChar

StartChar: Aring
Encoding: 129 197 66
Width: 683
VWidth: 0
Flags: W
HStem: 0 21G<36.7822 297.644 362.952 638> 982.797 23.1748<294.45 380.333>
VStem: 40.9033 256.74<0.470646 240.103 403.144 636.319> 225.358 23.1836<850.196 936.887> 362.952 274.942<0 240.103 403.144 655.37> 426.239 23.1846<850.196 936.887>
LayerCount: 2
Fore
SplineSet
638 0 m 1xc8
 362.952148438 0 l 1
 362.952148438 240.102539062 l 1
 297.643554688 240.102539062 l 1
 297.643554688 0.009765625 l 1
 36.7822265625 0.009765625 l 1
 36.7822265625 0.009765625 38.1630859375 635.759765625 40.9033203125 660.344726562 c 0xe8
 43.6064453125 684.948242188 50.57421875 708.573242188 61.73046875 731.231445312 c 0
 72.8876953125 753.91796875 90.20703125 772.081054688 113.688476562 785.766601562 c 0
 137.180664062 799.454101562 166.73828125 806.296875 202.35546875 806.296875 c 2
 267.827148438 806.296875 l 2
 241.99609375 826.836914062 225.358398438 858.456054688 225.358398438 893.947265625 c 0
 225.358398438 955.720703125 275.618164062 1005.97167969 337.391601562 1005.97167969 c 0
 399.163085938 1005.97167969 449.423828125 955.720703125 449.423828125 893.947265625 c 0xd4
 449.423828125 858.456054688 432.786132812 826.836914062 406.955078125 806.296875 c 2
 637.89453125 806.296875 l 1
 638 0 l 1xc8
248.541992188 893.947265625 m 0xd4
 248.541992188 849.686523438 281.111328125 812.987304688 323.532226562 806.296875 c 2
 351.259765625 806.296875 l 2
 393.670898438 812.987304688 426.239257812 849.686523438 426.239257812 893.947265625 c 0
 426.239257812 942.934570312 386.38671875 982.796875 337.391601562 982.796875 c 0
 288.395507812 982.796875 248.541992188 942.934570312 248.541992188 893.947265625 c 0xd4
330.297851562 403.143554688 m 1
 362.952148438 403.143554688 l 1
 362.952148438 655.370117188 l 1
 330.297851562 655.370117188 l 2
 315.77734375 654.603515625 306.671875 648.498046875 303.203125 636.919921875 c 0
 299.474609375 624.516601562 297.643554688 585.173828125 297.643554688 518.876953125 c 2
 297.643554688 403.143554688 l 1xe8
 330.297851562 403.143554688 l 1
EndSplineSet
Validated: 1
EndChar

StartChar: Aacute
Encoding: 231 193 67
Width: 658
VWidth: 0
Flags: W
HStem: 0.00878906 809.395<100.474 287.33 352.897 628.895> 241.031 163.665<287.33 352.897>
VStem: 29.5928 257.737<0.46266 241.031 404.707 638.771> 352.897 275.997<0.00878906 241.031 404.696 657.891>
LayerCount: 2
Fore
SplineSet
629 0 m 1xb0
 629 0.0087890625 l 1
 352.897460938 0.0087890625 l 1xb0
 352.897460938 241.03125 l 1
 287.330078125 241.03125 l 1x70
 287.330078125 0 l 1
 25.4619140625 0 l 1
 25.4619140625 0 26.8427734375 638.204101562 29.5927734375 662.884765625 c 0
 32.3154296875 687.592773438 39.3125 711.305664062 50.5068359375 734.049804688 c 0
 61.7119140625 756.822265625 79.087890625 775.051757812 102.666015625 788.795898438 c 0
 126.243164062 802.530273438 155.926757812 809.403320312 191.66796875 809.403320312 c 2
 628.89453125 809.403320312 l 1
 629 0 l 1xb0
320.110351562 404.70703125 m 1
 320.110351562 404.696289062 l 1
 352.897460938 404.696289062 l 1x70
 352.897460938 657.890625 l 1
 320.119140625 657.890625 l 2
 305.541015625 657.124023438 296.397460938 651 292.91796875 639.374023438 c 0
 289.170898438 626.932617188 287.330078125 587.434570312 287.330078125 520.880859375 c 2
 287.330078125 404.70703125 l 1
 320.110351562 404.70703125 l 1
498.200195312 899.737304688 m 1
 156.26171875 855.159179688 l 1
 156.26171875 930.877929688 l 1
 497.96875 1009.85351562 l 1
 498.200195312 899.737304688 l 1
EndSplineSet
Validated: 5
EndChar

StartChar: Agrave
Encoding: 203 192 68
Width: 655
VWidth: 0
Flags: W
HStem: 0.00878906 809.395<97.4737 284.33 349.897 625.895> 241.031 163.665<284.33 349.897>
VStem: 26.5928 257.737<0.46266 241.031 404.707 638.771> 349.897 275.997<0.00878906 241.031 404.696 657.891>
LayerCount: 2
Fore
SplineSet
626 0 m 1xb0
 626 0.0087890625 l 1
 349.897460938 0.0087890625 l 1xb0
 349.897460938 241.03125 l 1
 284.330078125 241.03125 l 1x70
 284.330078125 0 l 1
 22.4619140625 0 l 1
 22.4619140625 0 23.8427734375 638.204101562 26.5927734375 662.884765625 c 0
 29.3154296875 687.592773438 36.3125 711.305664062 47.5068359375 734.049804688 c 0
 58.7119140625 756.822265625 76.087890625 775.051757812 99.666015625 788.795898438 c 0
 123.243164062 802.530273438 152.926757812 809.403320312 188.66796875 809.403320312 c 2
 625.89453125 809.403320312 l 1
 626 0 l 1xb0
317.110351562 404.70703125 m 1
 317.110351562 404.696289062 l 1
 349.897460938 404.696289062 l 1x70
 349.897460938 657.890625 l 1
 317.119140625 657.890625 l 2
 302.541015625 657.124023438 293.397460938 651 289.91796875 639.374023438 c 0
 286.170898438 626.932617188 284.330078125 587.434570312 284.330078125 520.880859375 c 2
 284.330078125 404.70703125 l 1
 317.110351562 404.70703125 l 1
153.26171875 899.737304688 m 1
 153.493164062 1009.85351562 l 1
 495.200195312 930.877929688 l 1
 495.200195312 855.159179688 l 1
 153.26171875 899.737304688 l 1
EndSplineSet
Validated: 5
EndChar

StartChar: AE
Encoding: 174 198 69
Width: 869
VWidth: 0
Flags: W
HStem: -2.47363 162.273<619.019 846.505> 394.322 162.273<618.989 846.515> 637.727 162.273<618.961 846.515>
VStem: 24.7627 255.543<-2.01493 236.495 398.759 630.836>
LayerCount: 2
Fore
SplineSet
846.514648438 637.7265625 m 1
 618.9609375 637.7265625 l 1
 618.970703125 556.595703125 l 1
 846.514648438 556.595703125 l 1
 846.514648438 394.322265625 l 1
 618.989257812 394.322265625 l 1
 619.018554688 159.799804688 l 1
 846.504882812 159.799804688 l 1
 846.504882812 -2.4736328125 l 1
 345.557617188 -2.4736328125 l 1
 345.30078125 -2.4736328125 l 1
 345.30078125 236.495117188 l 1
 280.296875 236.495117188 l 1
 280.296875 -2.4736328125 l 1
 20.6689453125 -2.4736328125 l 1
 20.6689453125 -2.4736328125 22.0400390625 630.272460938 24.7626953125 654.739257812 c 0
 27.45703125 679.235351562 34.3974609375 702.741210938 45.498046875 725.293945312 c 0
 56.5986328125 747.8671875 73.83984375 765.936523438 97.2119140625 779.569335938 c 0
 120.59375 793.18359375 150.021484375 800 185.455078125 800 c 2
 846.514648438 800 l 1
 846.514648438 637.7265625 l 1
345.310546875 398.758789062 m 1
 345.310546875 649.7890625 l 1
 312.80859375 649.7890625 l 2
 298.346679688 649.02734375 289.29296875 642.953125 285.836914062 631.43359375 c 0
 282.133789062 619.095703125 280.305664062 579.938476562 280.305664062 513.954101562 c 2
 280.305664062 398.758789062 l 1
 312.80859375 398.758789062 l 1
 345.310546875 398.758789062 l 1
EndSplineSet
Validated: 1
EndChar

StartChar: ae
Encoding: 190 230 70
Width: 996
VWidth: 0
Flags: W
HStem: -2.48242 152.8<289.388 356.052 611.563 967.537> 226.67 156.095<623.363 701.626> 499.606 152.811<99.127 355.245 623.313 696.973>
VStem: 21.3359 263.017<169.499 273.465>
LayerCount: 2
Fore
SplineSet
644.942382812 150.317382812 m 2
 967.537109375 150.698242188 l 1
 967.537109375 -2.482421875 l 1
 203.6875 -2.482421875 l 2
 164.254882812 -2.482421875 131.524414062 4.4580078125 105.514648438 18.328125 c 0
 79.5048828125 32.19921875 60.322265625 50.6123046875 47.974609375 73.59375 c 0
 35.6259765625 96.56640625 27.8955078125 120.5 24.8974609375 145.443359375 c 0
 23.5546875 156.505859375 22.2119140625 188.618164062 21.3359375 212.999023438 c 0
 22.2119140625 237.389648438 23.5546875 269.51171875 24.8974609375 280.583984375 c 0
 27.8955078125 305.526367188 35.6259765625 329.4609375 47.974609375 352.432617188 c 0
 60.3125 375.415039062 79.5048828125 393.827148438 105.514648438 407.698242188 c 0
 131.524414062 421.569335938 164.254882812 428.509765625 203.6875 428.509765625 c 2
 356.297851562 428.509765625 l 1
 356.297851562 470.541015625 l 2
 356.002929688 477.110351562 352.8515625 495.427734375 327.91796875 499.359375 c 0
 326.823242188 499.407226562 99.2119140625 499.606445312 99.126953125 499.606445312 c 2
 99.126953125 652.416992188 l 1
 782.881835938 654.016601562 l 2
 822.41015625 654.016601562 855.236328125 647.056640625 881.29296875 633.157226562 c 0
 907.37890625 619.2578125 926.590820312 600.797851562 938.985351562 577.758789062 c 0
 951.380859375 554.739257812 959.102539062 530.73828125 962.138671875 505.73828125 c 0
 963.814453125 491.9140625 965.004882812 470.237304688 965.775390625 441.294921875 c 2
 966.680664062 441.294921875 l 1
 965.880859375 226.669921875 l 1
 646.475585938 226.669921875 l 2
 628.215820312 226.669921875 617.029296875 220.38671875 612.916992188 207.772460938 c 0
 612.125976562 205.392578125 611.450195312 201.66015625 610.83203125 197.271484375 c 0
 611.802734375 184.0859375 609.74609375 174.108398438 611.364257812 169.215820312 c 0
 615.487304688 156.600585938 626.692382812 150.317382812 644.942382812 150.317382812 c 2
623.284179688 500.81640625 m 2
 623.284179688 382.764648438 l 1
 701.625976562 382.764648438 l 1
 701.625976562 382.764648438 699.123046875 476.091796875 697.170898438 481.947265625 c 0
 693.05859375 494.551757812 681.862304688 500.854492188 663.612304688 500.854492188 c 0
 663.516601562 500.854492188 623.284179688 500.81640625 623.284179688 500.81640625 c 2
356.297851562 164.655273438 m 1
 356.297851562 275.680664062 l 2
 343.711914062 275.690429688 322.7578125 275.690429688 322.69140625 275.690429688 c 0
 304.478515625 275.690429688 293.311523438 269.416015625 289.189453125 256.83984375 c 0
 286.98046875 250.099609375 285.372070312 235.438476562 284.352539062 213.008789062 c 0
 285.372070312 190.579101562 286.98046875 175.91796875 289.189453125 169.177734375 c 0
 293.311523438 156.610351562 304.478515625 150.327148438 322.681640625 150.327148438 c 0
 322.91015625 150.327148438 323.119140625 150.327148438 323.309570312 150.327148438 c 0
 323.65234375 150.327148438 324.147460938 150.327148438 324.756835938 150.327148438 c 0
 340.618164062 150.327148438 351.127929688 155.106445312 356.297851562 164.655273438 c 1
EndSplineSet
Validated: 1
EndChar

StartChar: at
Encoding: 64 64 71
Width: 968
VWidth: 0
Flags: W
HStem: 3.94141 85.4385<277.981 931.946> 136.56 135.604<559.716 618.629 754.233 796.325> 763.69 79.623<277.981 796.325>
VStem: 41.3535 230.931<106.793 746.235> 324.967 429.267<354.508 653.123> 618.629 135.604<272.164 582.184> 796.325 135.621<272.164 763.595>
LayerCount: 2
Fore
SplineSet
483.654296875 717.795898438 m 2xfa
 754.233398438 717.795898438 l 1
 754.233398438 272.1640625 l 2xf6
 768.961914062 272.1640625 783.194335938 272.1640625 796.325195312 272.1640625 c 2
 796.325195312 763.673828125 l 1
 679.881835938 763.681640625 307.866210938 763.690429688 307.778320312 763.690429688 c 0
 291.485351562 763.690429688 281.493164062 758.075195312 277.803710938 746.821289062 c 0
 274.11328125 735.575195312 272.284179688 642.821289062 272.284179688 582.7109375 c 2
 272.284179688 213.283203125 l 2
 272.284179688 153.1640625 274.12109375 117.494140625 277.803710938 106.248046875 c 0
 281.493164062 94.994140625 291.485351562 89.3798828125 307.778320312 89.3798828125 c 0
 307.875 89.3798828125 931.850585938 89.3876953125 931.946289062 89.3876953125 c 2
 931.946289062 3.94140625 l 1
 201.310546875 3.94140625 l 2
 166.032226562 3.94140625 136.743164062 10.1552734375 113.4765625 22.5595703125 c 0
 90.2099609375 34.9638671875 73.0458984375 51.4404296875 62 72 c 0
 50.9541015625 92.55078125 44.037109375 113.971679688 41.353515625 136.279296875 c 0
 38.876953125 156.678710938 38.876953125 690.568359375 41.353515625 710.975585938 c 0
 44.037109375 733.283203125 50.9541015625 754.705078125 62 775.255859375 c 0
 73.0458984375 795.814453125 90.2099609375 812.291992188 113.4765625 824.6953125 c 0
 136.743164062 837.107421875 166.032226562 843.313476562 201.310546875 843.313476562 c 2
 808.977539062 840.486328125 l 2
 827.747070312 837.53125 844.280273438 832.291015625 858.537109375 824.6875 c 0
 881.811523438 812.283203125 898.983398438 795.806640625 910.021484375 775.247070312 c 0
 921.059570312 754.696289062 927.984375 733.275390625 930.668945312 710.966796875 c 0
 931.219726562 706.462890625 931.642578125 676.806640625 931.946289062 633.237304688 c 2
 931.946289062 136.559570312 l 1
 483.654296875 136.559570312 l 2
 448.655273438 136.559570312 419.606445312 142.717773438 396.5234375 155.025390625 c 0
 373.440429688 167.333984375 356.412109375 183.674804688 345.446289062 204.07421875 c 0
 334.487304688 224.45703125 327.634765625 245.7109375 324.966796875 267.842773438 c 0
 322.961914062 284.416015625 321.692382812 313.2578125 321.189453125 354.3515625 c 2
 321.189453125 354.3515625 323.001953125 570.338867188 324.966796875 586.50390625 c 0
 327.634765625 608.63671875 334.487304688 629.890625 345.446289062 650.28125 c 0
 356.412109375 670.680664062 373.440429688 687.021484375 396.5234375 699.330078125 c 0
 419.606445312 711.637695312 448.655273438 717.795898438 483.654296875 717.795898438 c 2xfa
589.276367188 272.1640625 m 0
 589.291992188 272.1640625 600.673828125 272.1640625 618.62890625 272.1640625 c 2
 618.62890625 582.18359375 l 2
 602.470703125 582.18359375 589.31640625 582.18359375 589.276367188 582.18359375 c 0
 573.118164062 582.18359375 563.198242188 576.608398438 559.540039062 565.442382812 c 0
 555.874023438 554.284179688 554.060546875 518.901367188 554.060546875 459.26171875 c 2
 554.060546875 395.0859375 l 2
 554.060546875 335.446289062 555.881835938 300.063476562 559.540039062 288.905273438 c 0
 563.198242188 277.739257812 573.118164062 272.1640625 589.276367188 272.1640625 c 0
EndSplineSet
Validated: 33
EndChar

StartChar: copyright
Encoding: 169 169 72
Width: 821
VWidth: 0
Flags: W
HStem: 23.5898 90.6963<164.356 657.215> 213.068 163.263<432.007 498.947 498.962 571.904> 423.481 162.855<432.007 572.273> 685.544 90.7061<164.359 657.203>
VStem: 36.5879 90.1914<150.171 649.672> 224.078 165.465<332.69 466.303> 694.78 90.1904<150.171 649.667>
LayerCount: 2
Fore
SplineSet
784.970703125 606.2421875 m 0
 787.846679688 584.463867188 787.7578125 214.81640625 784.970703125 193.59765625 c 0
 781.181640625 164.932617188 771.490234375 137.421875 755.99609375 111.020507812 c 0
 740.500976562 84.6103515625 716.416015625 63.4443359375 683.775390625 47.505859375 c 0
 651.125976562 31.5673828125 610.028320312 23.58984375 560.553710938 23.58984375 c 2
 260.99609375 23.58984375 l 2
 211.512695312 23.58984375 170.423828125 31.5673828125 137.783203125 47.505859375 c 0
 105.133789062 63.4443359375 81.06640625 84.6015625 65.5537109375 111.020507812 c 0
 50.05078125 137.421875 40.359375 164.932617188 36.587890625 193.59765625 c 0
 33.765625 214.825195312 33.6767578125 584.463867188 36.587890625 606.250976562 c 0
 40.3681640625 634.915039062 50.05078125 662.416992188 65.5537109375 688.818359375 c 0
 81.06640625 715.229492188 105.133789062 736.385742188 137.783203125 752.333007812 c 0
 170.423828125 768.271484375 211.502929688 776.25 260.99609375 776.25 c 2
 560.553710938 776.25 l 2
 610.038085938 776.25 651.125976562 768.271484375 683.775390625 752.32421875 c 0
 716.416015625 736.376953125 740.500976562 715.229492188 755.99609375 688.809570312 c 0
 771.490234375 662.416992188 781.181640625 634.90625 784.970703125 606.2421875 c 0
694.780273438 203.528320312 m 0
 696.954101562 243.418945312 696.962890625 557.059570312 694.797851562 596.240234375 c 0
 692.427734375 612.143554688 686.864257812 627.42578125 677.78515625 642.884765625 c 0
 671.466796875 653.666992188 660.409179688 662.798828125 643.96484375 670.830078125 c 0
 624.263671875 680.450195312 595.403320312 685.543945312 560.553710938 685.543945312 c 2
 260.99609375 685.543945312 l 2
 226.146484375 685.543945312 197.3046875 680.450195312 177.59375 670.830078125 c 0
 161.158203125 662.798828125 150.091796875 653.658203125 143.764648438 642.884765625 c 0
 134.686523438 627.416015625 129.122070312 612.125976562 126.770507812 596.213867188 c 0
 124.569335938 557.254882812 124.586914062 243.338867188 126.779296875 203.581054688 c 0
 129.1484375 187.58984375 134.712890625 172.3515625 143.7734375 156.927734375 c 0
 150.091796875 146.163085938 161.158203125 137.022460938 177.584960938 129 c 0
 197.3046875 119.37109375 226.146484375 114.286132812 260.99609375 114.286132812 c 2
 560.553710938 114.286132812 l 2
 595.403320312 114.286132812 624.272460938 119.379882812 644 129 c 0
 660.409179688 137.022460938 671.466796875 146.154296875 677.767578125 156.892578125 c 0
 686.836914062 172.370117188 692.41015625 187.633789062 694.780273438 203.528320312 c 0
403.750976562 466.416015625 m 0
 399.109375 464.01953125 395.90625 460.319335938 394.254882812 455.234375 c 0
 391.23828125 446.040039062 389.684570312 444.75390625 389.54296875 399.90234375 c 0
 389.67578125 355.05078125 391.23828125 353.763671875 394.254882812 344.569335938 c 0
 396.127929688 338.872070312 399.916992188 334.905273438 405.552734375 332.580078125 c 0
 407.487304688 331.950195312 412.119140625 330.849609375 416.9296875 332.926757812 c 0
 422.129882812 335.295898438 425.697265625 339.138671875 427.47265625 344.569335938 c 0
 429.9921875 352.24609375 432.006835938 376.331054688 432.006835938 376.331054688 c 1
 597.48046875 376.331054688 l 1
 597.48046875 324.166992188 l 2
 597.48046875 295.591796875 593.309570312 271.950195312 585.419921875 255.790039062 c 0
 578.834960938 242.318359375 571.344726562 233.248046875 562.505859375 228.056640625 c 0
 549.815429688 220.611328125 537.28515625 216.049804688 524.239257812 214.124023438 c 0
 519.79296875 213.875976562 498.947265625 213.068359375 498.947265625 213.068359375 c 1
 335.177734375 213.068359375 l 2
 306.602539062 213.068359375 282.952148438 217.239257812 266.799804688 225.127929688 c 0
 253.3203125 231.712890625 244.258789062 239.203125 239.05859375 248.041992188 c 0
 231.622070312 260.732421875 227.060546875 273.254882812 225.134765625 286.30859375 c 0
 224.717773438 293.790039062 224.388671875 313.677734375 224.17578125 340.10546875 c 2
 224.078125 340.10546875 l 1
 224.078125 447.850585938 l 1
 224.30078125 480.118164062 224.655273438 504.940429688 225.134765625 513.50390625 c 0
 227.051757812 526.55859375 231.622070312 539.080078125 239.05859375 551.770507812 c 0
 244.258789062 560.609375 253.3203125 568.099609375 266.799804688 574.684570312 c 0
 282.952148438 582.57421875 306.602539062 586.745117188 335.177734375 586.745117188 c 2
 498.947265625 586.336914062 l 2
 510.91015625 586.150390625 519.79296875 585.9375 524.239257812 585.688476562 c 0
 537.28515625 583.762695312 549.815429688 579.201171875 562.505859375 571.755859375 c 0
 571.344726562 566.573242188 578.834960938 557.50390625 585.419921875 544.0234375 c 0
 593.30078125 527.862304688 597.48046875 504.221679688 597.48046875 475.645507812 c 2
 597.48046875 423.481445312 l 1
 432.006835938 423.481445312 l 1
 432.006835938 423.481445312 429.9921875 447.56640625 427.47265625 455.243164062 c 0
 425.848632812 460.212890625 422.759765625 463.869140625 418.26953125 466.274414062 c 0
 411.498046875 469.114257812 405.401367188 467.08203125 403.750976562 466.416015625 c 0
EndSplineSet
Validated: 37
EndChar

StartChar: registered
Encoding: 168 174 73
Width: 806
VWidth: 0
Flags: W
HStem: 29.2793 90.1377<159.091 649.921> 217.587 371.413<218.962 390.514 439.199 553.457> 371.425 66.4609<390.878 435.778> 510.328 78.6719<390.878 436.151> 687.17 90.1465<159.091 649.92>
VStem: 32.6162 89.6406<155.081 651.51> 218.962 171.552<217.809 371.425 437.886 510.328> 439.199 150.848<217.87 359.029> 686.761 89.6416<155.081 651.513>
LayerCount: 2
Fore
SplineSet
776.40234375 608.35546875 m 0x8f80
 779.259765625 586.702148438 779.170898438 219.334960938 776.40234375 198.240234375 c 0
 772.629882812 169.752929688 763.001953125 142.411132812 747.604492188 116.168945312 c 0
 732.215820312 89.9189453125 708.263671875 68.89453125 675.828125 53.044921875 c 0
 643.3828125 37.212890625 602.541992188 29.279296875 553.369140625 29.279296875 c 2
 255.639648438 29.279296875 l 2
 206.458007812 29.279296875 165.625976562 37.2041015625 133.190429688 53.044921875 c 0
 100.745117188 68.8857421875 76.810546875 89.9189453125 61.404296875 116.168945312 c 0
 45.9892578125 142.411132812 36.3603515625 169.752929688 32.6162109375 198.240234375 c 0
 29.8115234375 219.334960938 29.72265625 586.7109375 32.6162109375 608.35546875 c 0
 36.3701171875 636.842773438 45.998046875 664.17578125 61.404296875 690.41796875 c 0
 76.810546875 716.66796875 100.745117188 737.692382812 133.190429688 753.541992188 c 0
 165.625976562 769.3828125 206.458007812 777.31640625 255.639648438 777.31640625 c 2
 553.369140625 777.31640625 l 2
 602.533203125 777.31640625 643.3828125 769.3828125 675.828125 753.541992188 c 0
 708.263671875 737.701171875 732.215820312 716.66796875 747.604492188 690.41796875 c 0
 763.010742188 664.184570312 772.639648438 636.842773438 776.40234375 608.35546875 c 0x8f80
686.760742188 208.108398438 m 0
 688.91796875 247.759765625 688.926757812 559.474609375 686.76953125 598.416015625 c 0
 684.426757812 614.23046875 678.8984375 629.415039062 669.864257812 644.776367188 c 0
 663.58984375 655.497070312 652.594726562 664.56640625 636.256835938 672.544921875 c 0
 616.670898438 682.111328125 587.98828125 687.169921875 553.360351562 687.169921875 c 2
 255.639648438 687.169921875 l 2
 221.002929688 687.169921875 192.337890625 682.111328125 172.751953125 672.544921875 c 0
 156.4140625 664.557617188 145.418945312 655.478515625 139.126953125 644.767578125 c 0
 130.110351562 629.387695312 124.573242188 614.204101562 122.239257812 598.380859375 c 0
 120.055664062 559.65234375 120.073242188 247.670898438 122.256835938 208.162109375 c 0
 124.599609375 192.267578125 130.127929688 177.119140625 139.135742188 161.79296875 c 0
 145.418945312 151.08984375 156.4140625 142.01171875 172.743164062 134.041992188 c 0
 192.337890625 124.475585938 221.002929688 119.416992188 255.639648438 119.416992188 c 2
 553.369140625 119.416992188 l 2
 587.997070312 119.416992188 616.688476562 124.475585938 636.291992188 134.041992188 c 0
 652.603515625 142.01171875 663.58984375 151.081054688 669.85546875 161.756835938 c 0
 678.872070312 177.145507812 684.409179688 192.3125 686.760742188 208.108398438 c 0
589.9140625 307.21875 m 2
 590.046875 307.21875 l 1
 590.046875 217.870117188 l 1
 439.19921875 217.870117188 l 1
 439.1640625 306.189453125 l 2
 438.782226562 335.181640625 437.690429688 352.930664062 435.888671875 359.337890625 c 0
 433.608398438 367.396484375 426.4375 371.424804688 414.341796875 371.424804688 c 2
 390.513671875 371.424804688 l 1xaf80
 390.513671875 217.80859375 l 1
 218.961914062 217.586914062 l 1
 218.961914062 589 l 1
 478.166992188 589 l 2xcf80
 502.580078125 589 522.858398438 584.713867188 538.965820312 576.114257812 c 0
 555.073242188 567.524414062 566.956054688 556.120117188 574.60546875 541.885742188 c 2
 574.60546875 541.885742188 598.131835938 500.43359375 576.10546875 444.186523438 c 0
 575.643554688 442.616210938 565.065429688 425.709960938 558.454101562 419.666992188 c 1
 565.065429688 413.623046875 570.4609375 406.790039062 574.60546875 399.095703125 c 0
 582.24609375 384.870117188 587.0390625 370.041015625 588.90234375 354.599609375 c 0
 589.736328125 347.676757812 589.940429688 327.443359375 589.9140625 307.21875 c 2
436.26171875 449.991210938 m 0
 437.344726562 453.8515625 437.779296875 492.880859375 436.26171875 498.25 c 0
 433.971679688 506.298828125 426.79296875 510.328125 414.71484375 510.328125 c 2
 390.877929688 510.328125 l 1xbf80
 390.877929688 437.885742188 l 1
 414.71484375 437.885742188 l 1
 414.71484375 437.913085938 l 2
 426.79296875 437.913085938 433.98046875 441.932617188 436.26171875 449.991210938 c 0
EndSplineSet
Validated: 33
EndChar

StartChar: logicalnot
Encoding: 194 172 74
Width: 788
VWidth: 0
Flags: W
HStem: 375.605 290.55<501.913 752.226> 522.229 143.926<26.7744 501.913>
LayerCount: 2
Fore
SplineSet
26.7744140625 666.155273438 m 1x40
 752.225585938 666.155273438 l 1
 752.225585938 375.60546875 l 1
 501.913085938 375.60546875 l 1x80
 501.913085938 522.229492188 l 1
 26.7744140625 522.229492188 l 1
 26.7744140625 666.155273438 l 1x40
EndSplineSet
Validated: 1
EndChar

StartChar: ordfeminine
Encoding: 187 170 75
Width: 320
VWidth: 0
Flags: W
HStem: 482.862 74.7051<134.375 184.688> 608.348 74.7314<134.373 184.245> 710.98 89.0195<72.1875 183.836>
VStem: 184.688 98.3291<557.487 608.348 683.079 710.562>
LayerCount: 2
Fore
SplineSet
280.702148438 713.829101562 m 0
 281.580078125 707.376953125 282.450195312 702.185546875 283.017578125 687.96875 c 2
 283.017578125 482.862304688 l 1
 157.196289062 482.862304688 l 2
 131.486328125 482.862304688 110.15234375 486.900390625 93.193359375 494.984375 c 0
 76.234375 503.069335938 63.7216796875 513.790039062 55.671875 527.181640625 c 0
 47.6142578125 540.564453125 42.58203125 554.505859375 40.62109375 569.033203125 c 0
 39.7509765625 575.4765625 39.7421875 590.46484375 40.62109375 596.916992188 c 0
 42.58203125 611.435546875 47.6142578125 625.385742188 55.671875 638.768554688 c 0
 63.73046875 652.151367188 76.234375 662.880859375 93.193359375 670.956054688 c 0
 110.143554688 679.032226562 131.486328125 683.079101562 157.196289062 683.079101562 c 2
 184.245117188 683.079101562 l 1
 184.245117188 694.047851562 l 2
 184.049804688 697.873046875 182 708.548828125 165.7421875 710.837890625 c 0
 165.032226562 710.865234375 72.240234375 710.98046875 72.1875 710.98046875 c 2
 72.1875 800 l 1
 163.673828125 800 l 1
 172.6640625 800 l 2
 198.373046875 800 211.188476562 795.953125 228.129882812 787.88671875 c 0
 245.09765625 779.801757812 257.610351562 769.072265625 265.650390625 755.689453125 c 0
 273.708984375 742.297851562 278.740234375 728.356445312 280.702148438 713.829101562 c 0
184.688476562 557.487304688 m 1
 184.688476562 608.34765625 l 1
 158.864257812 608.34765625 l 2
 144.842773438 608.34765625 133.474609375 596.98828125 133.474609375 582.95703125 c 0
 133.474609375 568.935546875 144.842773438 557.567382812 158.864257812 557.567382812 c 2
 184.688476562 557.487304688 l 1
EndSplineSet
Validated: 1
EndChar

StartChar: multiply
Encoding: 256 215 76
Width: 464
VWidth: 0
Flags: W
LayerCount: 2
Fore
SplineSet
233.5 566.122070312 m 1
 333.524414062 666.155273438 l 1
 431.533203125 568.145507812 l 1
 331.500976562 468.122070312 l 1
 431.533203125 368.09765625 l 1
 333.524414062 270.087890625 l 1
 233.5 370.12109375 l 1
 133.475585938 270.087890625 l 1
 35.466796875 368.09765625 l 1
 135.499023438 468.122070312 l 1
 35.466796875 568.145507812 l 1
 133.475585938 666.155273438 l 1
 233.5 566.122070312 l 1
EndSplineSet
Validated: 1
EndChar

StartChar: section
Encoding: 164 167 77
Width: 593
VWidth: 0
Flags: W
HStem: -149.15 153.146<46.417 307.169> 640.446 153.227<279.831 540.583>
VStem: 24.5771 233.062<226.597 400.133> 329.406 233.017<226.597 400.133>
LayerCount: 2
Fore
SplineSet
562.422851562 220.364257812 m 0
 562.422851562 108.217773438 l 2
 563.833984375 85.748046875 563.416992188 63.126953125 561.002929688 41.287109375 c 0
 559.565429688 28.259765625 557.435546875 15.4716796875 554.639648438 3.1884765625 c 0
 549.84765625 -17.861328125 543.014648438 -40.0029296875 534.228515625 -59.171875 c 0
 521.360351562 -87.21484375 501.53515625 -109.623046875 474.751953125 -126.431640625 c 0
 447.951171875 -143.23046875 414.326171875 -151.493164062 373.840820312 -151.235351562 c 2
 46.4169921875 -149.150390625 l 1
 46.4169921875 3.99609375 l 1
 276.0703125 3.99609375 l 2
 293.091796875 3.99609375 303.51953125 9.587890625 307.353515625 20.8134765625 c 0
 308.08984375 22.92578125 308.728515625 26.2451171875 309.296875 30.1494140625 c 0
 308.391601562 41.873046875 310.30859375 50.755859375 308.799804688 55.1044921875 c 0
 304.965820312 66.33984375 294.520507812 71.9306640625 277.5078125 71.9306640625 c 2
 180.279296875 71.7880859375 l 1
 180.279296875 71.8154296875 l 2
 147.453125 72.4716796875 119.916015625 78.6220703125 97.8447265625 90.3984375 c 0
 74.4423828125 102.884765625 57.1904296875 119.444335938 46.0712890625 140.122070312 c 0
 34.9599609375 160.790039062 28.0205078125 182.329101562 25.3134765625 204.763671875 c 0
 23.57421875 219.078125 23.28125 357.2265625 24.5771484375 406.116210938 c 2
 24.5771484375 536.3046875 l 2
 23.166015625 558.774414062 23.5830078125 581.395507812 25.9970703125 603.235351562 c 0
 27.4345703125 616.263671875 29.564453125 629.051757812 32.3603515625 641.333984375 c 0
 37.15234375 662.383789062 43.9853515625 684.525390625 52.771484375 703.694335938 c 0
 65.6396484375 731.737304688 85.46484375 754.145507812 112.248046875 770.954101562 c 0
 139.048828125 787.752929688 172.673828125 796.015625 213.159179688 795.7578125 c 2
 540.583007812 793.672851562 l 1
 540.583007812 640.446289062 l 1
 540.583007812 640.446289062 343.7734375 640.446289062 343.0546875 640.446289062 c 0
 341.280273438 640.463867188 339.532226562 640.348632812 337.801757812 640.215820312 c 2
 337.801757812 640.01171875 l 1
 310.9296875 640.01171875 l 2
 293.908203125 640.01171875 283.48046875 632.991210938 279.646484375 618.934570312 c 0
 278.91015625 616.290039062 278.271484375 612.127929688 277.703125 607.23828125 c 0
 278.608398438 592.541992188 276.69140625 581.413085938 278.200195312 575.963867188 c 0
 282.034179688 561.8984375 292.479492188 554.887695312 309.4921875 554.887695312 c 2
 395.254882812 555.046875 l 1
 400.854492188 555.046875 l 2
 436.325195312 555.046875 465.770507812 548.799804688 489.181640625 536.322265625 c 0
 512.575195312 523.8359375 529.8359375 507.276367188 540.9375 486.598632812 c 0
 552.057617188 465.938476562 558.997070312 444.400390625 561.712890625 421.965820312 c 0
 563.487304688 407.260742188 563.69140625 268.899414062 562.422851562 220.364257812 c 0
323.939453125 226.115234375 m 0
 327.205078125 236.08984375 329.015625 265.180664062 329.40625 313.360351562 c 0
 329.015625 361.548828125 327.205078125 390.647460938 323.939453125 400.614257812 c 0
 320.229492188 411.9375 310.18359375 417.58203125 293.79296875 417.58203125 c 0
 293.6953125 417.58203125 293.615234375 417.573242188 293.508789062 417.573242188 c 0
 293.428710938 417.573242188 293.33984375 417.58203125 293.233398438 417.58203125 c 0
 276.869140625 417.58203125 266.805664062 411.9375 263.086914062 400.614257812 c 0
 259.830078125 390.638671875 258.01953125 361.548828125 257.638671875 313.360351562 c 0
 258.01953125 265.180664062 259.830078125 236.08984375 263.086914062 226.115234375 c 0
 266.796875 214.80078125 276.860351562 209.147460938 293.233398438 209.147460938 c 0
 293.331054688 209.147460938 293.428710938 209.15625 293.508789062 209.15625 c 0
 293.606445312 209.15625 293.686523438 209.147460938 293.79296875 209.147460938 c 0
 310.174804688 209.147460938 320.229492188 214.80078125 323.939453125 226.115234375 c 0
EndSplineSet
Validated: 33
EndChar

StartChar: yen
Encoding: 180 165 78
Width: 791
VWidth: 0
Flags: W
HStem: 0 21G<261.739 535.106> 169.701 78.5645<43.0332 261.739 535.106 756.516> 332.637 78.5645<43.0332 261.317 535.519 756.516>
VStem: 261.739 273.367<0 169.701 248.266 332.637>
LayerCount: 2
Fore
SplineSet
756.515625 332.63671875 m 1
 535.106445312 332.63671875 l 1
 535.106445312 248.265625 l 1
 756.515625 248.265625 l 1
 756.515625 169.701171875 l 1
 535.106445312 169.701171875 l 1
 535.106445312 0 l 1
 261.739257812 0 l 1
 261.739257812 169.701171875 l 1
 43.033203125 169.701171875 l 1
 43.033203125 248.265625 l 1
 261.739257812 248.265625 l 1
 261.739257812 332.63671875 l 1
 43.033203125 332.63671875 l 1
 43.033203125 411.201171875 l 1
 261.317382812 411.201171875 l 1
 40.484375 808.014648438 l 1
 306.0390625 808.014648438 l 1
 398.413085938 642.001953125 l 1
 490.81640625 808.014648438 l 1
 756.36328125 808.014648438 l 1
 535.518554688 411.201171875 l 1
 756.515625 411.201171875 l 1
 756.515625 332.63671875 l 1
EndSplineSet
Validated: 1
EndChar

StartChar: divide
Encoding: 214 247 79
Width: 479
VWidth: 0
Flags: W
HStem: 156.132 138.77<167.119 305.89> 341.848 138.601<25.7402 447.26> 527.386 138.77<167.119 305.89>
VStem: 167.119 138.771<156.132 294.901 527.386 666.155>
LayerCount: 2
Fore
SplineSet
167.119140625 527.385742188 m 1
 167.119140625 666.155273438 l 1
 305.889648438 666.155273438 l 1
 305.889648438 527.385742188 l 1
 167.119140625 527.385742188 l 1
167.119140625 156.131835938 m 1
 167.119140625 294.901367188 l 1
 305.889648438 294.901367188 l 1
 305.889648438 156.131835938 l 1
 167.119140625 156.131835938 l 1
25.740234375 341.84765625 m 1
 25.740234375 480.448242188 l 1
 447.259765625 480.448242188 l 1
 447.259765625 341.84765625 l 1
 25.740234375 341.84765625 l 1
EndSplineSet
Validated: 1
EndChar

StartChar: plusminus
Encoding: 177 177 80
Width: 479
VWidth: 0
Flags: W
HStem: 63.0029 138.602<28.7402 450.26> 387.32 138.601<28.7402 170.199 308.801 450.26>
VStem: 170.199 138.602<245.861 387.32 525.921 667.38>
LayerCount: 2
Fore
SplineSet
308.80078125 525.920898438 m 1
 450.259765625 525.920898438 l 1
 450.259765625 387.3203125 l 1
 308.80078125 387.3203125 l 1
 308.80078125 245.861328125 l 1
 170.19921875 245.861328125 l 1
 170.19921875 387.3203125 l 1
 28.740234375 387.3203125 l 1
 28.740234375 525.920898438 l 1
 170.19921875 525.920898438 l 1
 170.19921875 667.379882812 l 1
 308.80078125 667.379882812 l 1
 308.80078125 525.920898438 l 1
28.740234375 63.0029296875 m 1
 28.740234375 201.604492188 l 1
 450.259765625 201.604492188 l 1
 450.259765625 63.0029296875 l 1
 28.740234375 63.0029296875 l 1
EndSplineSet
Validated: 1
EndChar

StartChar: plus
Encoding: 43 43 81
Width: 479
VWidth: 0
Flags: W
HStem: 387.32 138.601<28.7402 170.199 308.801 450.26>
VStem: 170.199 138.602<245.861 387.32 525.921 667.38>
LayerCount: 2
Fore
SplineSet
308.80078125 525.920898438 m 1
 450.259765625 525.920898438 l 1
 450.259765625 387.3203125 l 1
 308.80078125 387.3203125 l 1
 308.80078125 245.861328125 l 1
 170.19921875 245.861328125 l 1
 170.19921875 387.3203125 l 1
 28.740234375 387.3203125 l 1
 28.740234375 525.920898438 l 1
 170.19921875 525.920898438 l 1
 170.19921875 667.379882812 l 1
 308.80078125 667.379882812 l 1
 308.80078125 525.920898438 l 1
EndSplineSet
Validated: 1
EndChar

StartChar: asterisk
Encoding: 42 42 82
Width: 512
VWidth: 0
Flags: W
HStem: 781 20G<176.493 332.498>
VStem: 176.493 156.005<347.737 490.314 658.423 801>
LayerCount: 2
Fore
SplineSet
481.135742188 735.541992188 m 5
 481.135742188 648.385742188 l 5
 338.48828125 574.364257812 l 5
 481.135742188 500.3515625 l 5
 481.135742188 413.1953125 l 5
 332.498046875 490.323242188 l 5
 332.498046875 347.737304688 l 5
 176.493164062 347.737304688 l 5
 176.493164062 490.314453125 l 5
 27.8642578125 413.1953125 l 5
 27.873046875 500.360351562 l 5
 170.51171875 574.364257812 l 5
 27.8642578125 648.385742188 l 5
 27.8642578125 735.541992188 l 5
 176.493164062 658.422851562 l 5
 176.493164062 801 l 5
 332.498046875 801 l 5
 332.498046875 658.422851562 l 5
 481.135742188 735.541992188 l 5
EndSplineSet
Validated: 1
EndChar

StartChar: ampersand
Encoding: 38 38 83
Width: 750
VWidth: 0
Flags: W
HStem: 0 21G<522.496 718.934> 679.937 125.432<298.883 376.859>
VStem: 69.9346 227.093<529.796 678.792>
LayerCount: 2
Fore
SplineSet
630.076171875 100.568359375 m 2
 718.93359375 0 l 1
 540.059570312 0 l 1
 494.1875 52.234375 l 1
 413.592773438 25.3505859375 283.877929688 0 283.733398438 0 c 0
 229.4765625 -8.5791015625 140.360351562 7.1591796875 140.41796875 7.1591796875 c 1
 127.623046875 10.46484375 115.881835938 14.8740234375 105.319335938 20.5009765625 c 0
 79.69140625 34.1669921875 60.78125 52.3203125 48.6083984375 74.96875 c 0
 36.4365234375 97.6064453125 28.81640625 121.203125 25.8544921875 145.778320312 c 0
 24.177734375 159.608398438 23.966796875 178.86328125 24.111328125 193.057617188 c 0
 24.005859375 204.587890625 24.111328125 257.2734375 24.2158203125 267.461914062 c 0
 24.072265625 281.65625 24.283203125 300.911132812 25.951171875 314.741210938 c 0
 28.921875 339.315429688 36.5322265625 362.913085938 48.705078125 385.55078125 c 0
 60.876953125 408.19921875 79.77734375 436.72265625 105.415039062 450.390625 c 0
 114.233398438 455.086914062 123.89453125 458.920898438 134.274414062 462.006835938 c 2
 104.313476562 496.270507812 l 2
 99.9423828125 502.078125 96.0517578125 508.221679688 92.7451171875 514.796875 c 0
 81.359375 537.4453125 74.2470703125 561.041992188 71.4775390625 585.6171875 c 0
 70.5283203125 594.051757812 70.1064453125 604.469726562 69.9345703125 614.581054688 c 0
 69.84765625 628.497070312 70.087890625 646.32421875 71.5732421875 659.416992188 c 0
 74.333984375 683.991210938 81.455078125 707.578125 92.841796875 730.2265625 c 0
 104.2265625 752.883789062 121.91015625 771.026367188 145.881835938 784.694335938 c 0
 169.8515625 798.372070312 200.024414062 805.205078125 236.376953125 805.205078125 c 2
 337.89453125 805.368164062 l 1
 439.393554688 805.21484375 l 2
 475.73828125 805.21484375 505.900390625 798.380859375 529.880859375 784.704101562 c 0
 553.8515625 771.026367188 571.525390625 752.883789062 582.911132812 730.235351562 c 0
 594.297851562 707.586914062 601.418945312 684 604.188476562 659.42578125 c 0
 605.6640625 646.34375 605.9140625 628.516601562 605.818359375 614.599609375 c 0
 605.645507812 604.48828125 605.233398438 594.0703125 604.275390625 585.626953125 c 0
 601.505859375 561.041992188 594.383789062 537.455078125 582.998046875 514.807617188 c 0
 571.611328125 492.149414062 553.927734375 474.005859375 529.958007812 460.338867188 c 0
 528.184570312 459.322265625 380.872070312 382.685546875 380.872070312 382.685546875 c 1
 514.765625 231.108398438 l 1
 679.225585938 281.034179688 l 1
 679.225585938 155.83203125 l 1
 679.225585938 119.392578125 l 1
 679.225585938 119.392578125 660.123046875 111.849609375 630.076171875 100.568359375 c 2
319.109375 171.712890625 m 2
 374.469726562 188.525390625 l 1
 267.651367188 310.150390625 l 2
 265.907226562 299.377929688 264.0859375 202.374023438 264.171875 199.5859375 c 0
 264.248046875 199.1640625 271.139648438 160.096679688 319.109375 171.712890625 c 2
377.104492188 584.255859375 m 0
 379.357421875 592.794921875 379.26171875 652.247070312 377.018554688 660.787109375 c 0
 373.721679688 673.208984375 363.514648438 679.553710938 346.521484375 679.936523438 c 2
 329.23046875 679.936523438 l 2
 312.237304688 679.553710938 302.020507812 673.208984375 298.723632812 660.787109375 c 0
 297.439453125 655.889648438 296.864257812 634.248046875 297.02734375 615.069335938 c 2
 297.02734375 529.60546875 l 1
 297.02734375 529.60546875 372.7734375 557.697265625 377.104492188 584.255859375 c 0
EndSplineSet
Validated: 33
EndChar

StartChar: parenleft
Encoding: 40 40 84
Width: 518
VWidth: 0
Flags: W
HStem: 780 20G<171.216 479.754>
VStem: 37.1221 248.458<153.969 490.553>
LayerCount: 2
Fore
SplineSet
479.745117188 -155.46875 m 1
 479.745117188 -155.477539062 l 1
 231.286132812 -155.477539062 l 1
 111.135742188 -32.1044921875 37.1220703125 136.438476562 37.1220703125 322.26171875 c 0
 37.1220703125 508.083984375 111.135742188 676.618164062 231.295898438 800 c 1
 479.75390625 800 l 1
 359.59375 676.618164062 285.580078125 508.07421875 285.580078125 322.26171875 c 0
 285.580078125 136.448242188 359.59375 -32.095703125 479.745117188 -155.46875 c 1
EndSplineSet
Validated: 1
EndChar

StartChar: parenright
Encoding: 41 41 85
Width: 500
VWidth: 0
Flags: W
HStem: 780 20G<28.1221 336.66>
VStem: 222.296 248.458<153.971 490.558>
LayerCount: 2
Fore
SplineSet
28.130859375 -155.46875 m 1
 148.282226562 -32.095703125 222.295898438 136.448242188 222.295898438 322.270507812 c 0
 222.295898438 508.092773438 148.2734375 676.618164062 28.1220703125 800 c 1
 276.580078125 800 l 1
 396.740234375 676.618164062 470.75390625 508.083984375 470.75390625 322.26171875 c 0
 470.75390625 136.438476562 396.740234375 -32.1044921875 276.58984375 -155.477539062 c 1
 28.130859375 -155.477539062 l 1
 28.130859375 -155.46875 l 1
EndSplineSet
Validated: 1
EndChar

StartChar: braceleft
Encoding: 123 123 86
Width: 553
VWidth: 0
Flags: W
HStem: -152.405 143.224<378.822 538.006> 656.927 143.073<378.831 538.016>
VStem: 126.686 246.173<9.05616 108.38 108.46 265.698 380.485 539.136 539.216 638.529>
LayerCount: 2
Fore
SplineSet
372.770507812 426.857421875 m 0
 372.081054688 364.720703125 260.092773438 324.959960938 256.922851562 323.837890625 c 2
 256.834960938 323.784179688 l 1
 256.922851562 323.732421875 l 2
 260.067382812 322.627929688 370.994140625 283.228515625 372.70703125 221.584960938 c 0
 372.752929688 221.311523438 372.821289062 221.08203125 372.858398438 220.791015625 c 2
 372.858398438 120.615234375 l 2
 372.858398438 57.62890625 374.765625 20.2626953125 378.635742188 8.4853515625 c 0
 382.49609375 -3.298828125 392.96484375 -9.181640625 410.032226562 -9.181640625 c 0
 410.145507812 -9.181640625 536.557617188 -9.0390625 538.005859375 -8.9423828125 c 2
 538.005859375 -152.405273438 l 1
 298.49609375 -152.405273438 l 2
 261.524414062 -152.405273438 230.853515625 -145.903320312 206.47265625 -132.908203125 c 0
 182.099609375 -119.905273438 164.123046875 -102.643554688 152.541992188 -81.1064453125 c 0
 140.96875 -59.5712890625 133.724609375 -37.1318359375 130.916015625 -13.7587890625 c 0
 128.327148438 7.6298828125 126.888671875 48.37109375 126.685546875 108.379882812 c 1
 126.6484375 108.379882812 l 1
 126.6484375 108.379882812 126.137695312 218.634765625 125.564453125 222.530273438 c 0
 122.974609375 284.516601562 20.2724609375 323.801757812 20.2724609375 323.801757812 c 1
 20.2724609375 323.801757812 122.41796875 362.856445312 125.544921875 424.54296875 c 0
 126.243164062 429.225585938 126.658203125 539.215820312 126.658203125 539.215820312 c 1
 126.693359375 539.215820312 l 1
 126.90625 599.21484375 128.336914062 639.975585938 130.924804688 661.353515625 c 0
 133.734375 684.7265625 140.977539062 707.166015625 152.55078125 728.692382812 c 0
 164.123046875 750.239257812 182.108398438 767.482421875 206.482421875 780.495117188 c 0
 230.862304688 793.489257812 261.534179688 800 298.50390625 800 c 2
 538.015625 800 l 1
 538.015625 656.71484375 l 2
 536.5234375 656.8203125 415.870117188 656.926757812 410.0390625 656.926757812 c 2
 410.0390625 656.776367188 l 2
 392.973632812 656.776367188 382.513671875 650.893554688 378.64453125 639.099609375 c 0
 374.784179688 627.32421875 372.8671875 589.948242188 372.8671875 526.963867188 c 2
 372.8671875 427.422851562 l 2
 372.83984375 427.228515625 372.795898438 427.051757812 372.770507812 426.857421875 c 0
EndSplineSet
Validated: 1
EndChar

StartChar: bracketleft
Encoding: 91 91 87
Width: 377
VWidth: 0
Flags: W
HStem: -155.469 145.754<268.035 355.352> 654.255 145.745<268.035 355.352>
VStem: 21.0146 334.337<-155.469 -9.71484 654.255 800> 21.0146 247.021<-9.71484 654.255>
LayerCount: 2
Fore
SplineSet
355.3515625 654.254882812 m 1xe0
 268.03515625 654.254882812 l 1
 268.03515625 -9.71484375 l 1xd0
 355.3515625 -9.71484375 l 1
 355.3515625 -155.46875 l 1
 21.0146484375 -155.46875 l 1
 21.0146484375 800 l 1
 355.3515625 800 l 1
 355.3515625 654.254882812 l 1xe0
EndSplineSet
Validated: 1
EndChar

StartChar: bracketright
Encoding: 93 93 88
Width: 398
VWidth: 0
Flags: W
HStem: -155.469 145.754<24.0146 111.331> 654.255 145.745<24.0146 111.331>
VStem: 24.0146 334.337<-155.469 -9.71484 654.255 800> 111.331 247.021<-9.71484 654.255>
LayerCount: 2
Fore
SplineSet
24.0146484375 654.254882812 m 1xe0
 24.0146484375 800 l 1
 358.3515625 800 l 1
 358.3515625 -155.46875 l 1
 24.0146484375 -155.46875 l 1
 24.0146484375 -9.71484375 l 1xe0
 111.331054688 -9.71484375 l 1
 111.331054688 654.254882812 l 1xd0
 24.0146484375 654.254882812 l 1xe0
EndSplineSet
Validated: 1
EndChar

StartChar: quotedblleft
Encoding: 210 8220 89
Width: 428
VWidth: 0
Flags: W
HStem: 588.938 211.062<66.1387 163.118 253.238 350.219>
LayerCount: 2
Fore
SplineSet
24.357421875 800 m 1
 163.118164062 800 l 1
 204.899414062 588.938476562 l 1
 66.138671875 588.938476562 l 1
 24.357421875 800 l 1
350.21875 800 m 1
 392 588.938476562 l 1
 253.23828125 588.938476562 l 1
 211.458007812 800 l 1
 350.21875 800 l 1
EndSplineSet
Validated: 1
EndChar

StartChar: exclam
Encoding: 33 33 90
Width: 343
VWidth: 0
Flags: W
HStem: 0 138.668<92.6748 248.325>
VStem: 92.6748 155.65<0 138.668 208.011 279.189>
LayerCount: 2
Fore
SplineSet
248.325195312 208.010742188 m 1
 92.6748046875 208.010742188 l 1
 32.2060546875 807.880859375 l 1
 308.793945312 807.880859375 l 1
 248.325195312 208.010742188 l 1
92.6748046875 0 m 1
 92.6748046875 138.66796875 l 1
 248.325195312 138.66796875 l 1
 248.325195312 0 l 1
 92.6748046875 0 l 1
EndSplineSet
Validated: 1
EndChar

StartChar: exclamdown
Encoding: 193 161 91
Width: 323
VWidth: 0
Flags: W
HStem: 535.257 130.898<85.0371 231.963>
VStem: 85.0371 146.926<391.218 469.816 535.257 666.155>
LayerCount: 2
Fore
SplineSet
85.037109375 469.81640625 m 1
 231.962890625 469.81640625 l 1
 289.04296875 -155.46875 l 1
 27.9658203125 -155.46875 l 1
 85.037109375 469.81640625 l 1
85.037109375 535.256835938 m 1
 85.037109375 666.155273438 l 1
 231.962890625 666.155273438 l 1
 231.962890625 535.256835938 l 1
 85.037109375 535.256835938 l 1
EndSplineSet
Validated: 1
EndChar

StartChar: dollar
Encoding: 36 36 92
Width: 716
VWidth: 0
Flags: W
HStem: -2.24512 167.364<63.7812 274.669> 641.25 166.512<429.334 591.553>
VStem: 274.669 154.665<-144 -4.59375 808.758 948.165>
LayerCount: 2
Fore
SplineSet
668.74609375 290.706054688 m 0
 675.234375 224.3515625 665.372070312 151.557617188 639.2734375 94.625 c 0
 625.39453125 64.3291015625 603.993164062 40.1376953125 575.038085938 21.974609375 c 0
 546.111328125 3.83203125 509.776367188 -5.1015625 466.052734375 -4.8232421875 c 2
 429.333984375 -4.59375 l 1
 429.333984375 -144 l 1
 274.668945312 -144 l 1
 274.668945312 -3.6064453125 l 1
 62.697265625 -2.2451171875 l 1
 63.78125 165.119140625 l 2
 66.205078125 165.100585938 318.172851562 163.365234375 342.23046875 165.119140625 c 0
 344.904296875 165.321289062 347.416015625 166.135742188 349.831054688 167.247070312 c 0
 379.044921875 175.202148438 400.627929688 201.76171875 400.830078125 233.514648438 c 0
 401.068359375 271.728515625 370.283203125 302.90625 332.0703125 303.155273438 c 2
 214.065429688 303.913085938 l 2
 179.484375 306.625976562 150.108398438 315.634765625 126.05078125 331.162109375 c 0
 97.3642578125 349.688476562 76.26953125 374.176757812 62.755859375 404.626953125 c 0
 37.39453125 461.875976562 28.470703125 534.775390625 35.7939453125 601.061523438 c 0
 37.3564453125 615.131835938 39.65625 628.942382812 42.67578125 642.208007812 c 0
 47.8408203125 664.942382812 55.23046875 688.856445312 64.7099609375 709.55859375 c 0
 78.607421875 739.845703125 100.01953125 764.045898438 128.9453125 782.19921875 c 0
 157.890625 800.342773438 194.20703125 809.266601562 237.930664062 808.98828125 c 2
 274.668945312 808.7578125 l 1
 274.668945312 948.165039062 l 1
 429.333984375 948.165039062 l 1
 429.333984375 807.76171875 l 1
 591.552734375 806.7265625 l 1
 591.552734375 641.25 l 1
 591.552734375 641.25 379.005859375 641.25 378.219726562 641.25 c 0
 339.99609375 641.498046875 308.818359375 610.72265625 308.578125 572.499023438 c 0
 308.33984375 534.276367188 339.125 503.098632812 377.337890625 502.858398438 c 2
 377.337890625 502.858398438 524.249023438 507.640625 577.921875 473.022460938 c 0
 606.637695312 454.504882812 627.723632812 430.026367188 641.21875 399.556640625 c 0
 650.439453125 378.749023438 657.55078125 354.739257812 662.41015625 331.95703125 c 0
 665.247070312 318.64453125 667.384765625 304.8046875 668.74609375 290.706054688 c 0
EndSplineSet
Validated: 33
EndChar

StartChar: cent
Encoding: 162 162 93
Width: 459
VWidth: 0
Flags: W
HStem: 0 154.204<308.226 433.373> 506.718 154.204<308.21 433.354>
VStem: 153.183 154.645<-139.176 0 660.922 802.34>
LayerCount: 2
Fore
SplineSet
298.6640625 487.68359375 m 0
 294.504882812 475.002929688 292.443359375 434.7578125 292.462890625 366.958007812 c 2
 292.462890625 293.982421875 l 2
 292.462890625 226.153320312 294.513671875 185.927734375 298.682617188 173.237304688 c 0
 302.842773438 160.538085938 314.114257812 154.204101562 332.48828125 154.204101562 c 0
 332.602539062 154.204101562 433.267578125 154.212890625 433.373046875 154.212890625 c 2
 433.373046875 0 l 1
 307.836914062 0 l 1
 307.836914062 -139.17578125 l 1
 153.182617188 -139.17578125 l 1
 153.182617188 6.373046875 l 2
 138.52734375 9.841796875 125.185546875 14.6630859375 113.311523438 20.9990234375 c 0
 87.0498046875 35.001953125 67.689453125 53.576171875 55.2294921875 76.7705078125 c 0
 42.759765625 99.9560546875 34.9580078125 124.1171875 31.9296875 149.287109375 c 0
 29.6484375 168.139648438 28.2109375 200.936523438 27.6357421875 247.66015625 c 2
 27.6357421875 247.66015625 29.6962890625 493.251953125 31.9296875 511.634765625 c 0
 34.9677734375 536.802734375 42.759765625 560.965820312 55.2294921875 584.150390625 c 0
 67.689453125 607.334960938 87.05859375 625.918945312 113.311523438 639.921875 c 0
 125.185546875 646.2578125 138.52734375 651.078125 153.182617188 654.548828125 c 2
 153.182617188 802.33984375 l 1
 307.827148438 802.33984375 l 1
 307.827148438 660.921875 l 1
 433.354492188 660.921875 l 1
 433.354492188 506.708984375 l 2
 433.2578125 506.708984375 332.592773438 506.717773438 332.467773438 506.717773438 c 0
 314.095703125 506.717773438 302.833007812 500.3828125 298.6640625 487.68359375 c 0
EndSplineSet
Validated: 33
EndChar

StartChar: sterling
Encoding: 163 163 94
Width: 553
VWidth: 0
Flags: W
HStem: 0 153.955<23.5645 85.6621 350.066 527.397> 333.96 148.472<23.5645 85.6621 350.076 527.427> 644.705 153.639<356.477 527.417>
VStem: 85.6621 264.404<153.955 333.95 482.432 624.953>
LayerCount: 2
Fore
SplineSet
350.076171875 333.959960938 m 1
 350.06640625 333.959960938 l 1
 350.06640625 153.955078125 l 1
 386.784179688 153.955078125 l 1
 492.337890625 153.955078125 l 1
 527.397460938 153.955078125 l 1
 527.397460938 0 l 1
 270.200195312 0 l 1
 23.564453125 0 l 1
 23.564453125 153.9453125 l 1
 85.662109375 153.9453125 l 1
 85.662109375 333.950195312 l 1
 23.564453125 333.950195312 l 1
 23.564453125 482.422851562 l 1
 85.662109375 482.422851562 l 1
 85.662109375 518.287109375 l 1
 85.7001953125 518.287109375 l 1
 85.9296875 582.723632812 87.462890625 626.485351562 90.2431640625 649.44921875 c 0
 93.271484375 674.55078125 101.044921875 698.646484375 113.4765625 721.763671875 c 0
 125.90625 744.900390625 145.21875 763.426757812 171.39453125 777.392578125 c 0
 197.579101562 791.356445312 230.521484375 798.34375 270.219726562 798.34375 c 2
 527.416992188 798.34375 l 1
 527.416992188 644.475585938 l 2
 525.826171875 644.58984375 396.254882812 644.705078125 389.99609375 644.705078125 c 2
 389.99609375 644.54296875 l 2
 371.66015625 644.54296875 360.427734375 638.235351562 356.27734375 625.565429688 c 0
 352.127929688 612.922851562 350.076171875 572.784179688 350.076171875 505.146484375 c 2
 350.076171875 482.431640625 l 1
 527.426757812 482.431640625 l 1
 527.426757812 333.959960938 l 1
 350.076171875 333.959960938 l 1
EndSplineSet
Validated: 5
EndChar

StartChar: currency
Encoding: 219 164 95
Width: 805
VWidth: 0
Flags: W
VStem: 111.696 250.823<256.667 558.216> 440.192 250.805<256.667 558.216>
LayerCount: 2
Fore
SplineSet
690.997070312 233.014648438 m 0
 690.6328125 230.063476562 690 227.177734375 689.501953125 224.244140625 c 2
 782.873046875 130.874023438 l 1
 677.905273438 25.876953125 l 1
 600.1171875 103.672851562 l 2
 577.095703125 94.1259765625 549.520507812 89.2861328125 517.26953125 89.2861328125 c 2
 285.404296875 89.2861328125 l 2
 253.142578125 89.2861328125 225.55859375 94.1259765625 202.546875 103.682617188 c 2
 124.75 25.8857421875 l 1
 19.78125 130.883789062 l 1
 113.170898438 224.2734375 l 2
 112.692382812 227.186523438 112.049804688 230.072265625 111.696289062 233.014648438 c 0
 109.500976562 250.956054688 109.443359375 563.456054688 111.696289062 581.868164062 c 0
 112.049804688 584.819335938 112.682617188 587.705078125 113.170898438 590.618164062 c 2
 19.78125 684.008789062 l 1
 124.768554688 789.005859375 l 1
 202.565429688 711.208984375 l 2
 225.578125 720.756835938 253.151367188 725.596679688 285.404296875 725.596679688 c 2
 517.26953125 725.596679688 l 2
 549.51171875 725.596679688 577.0859375 720.756835938 600.098632812 711.208984375 c 2
 677.885742188 788.997070312 l 1
 782.8828125 684.008789062 l 1
 689.51171875 590.637695312 l 2
 690 587.71484375 690.642578125 584.819335938 690.997070312 581.868164062 c 0
 693.220703125 563.456054688 693.163085938 250.956054688 690.997070312 233.014648438 c 0
440.192382812 372.314453125 m 2
 440.192382812 442.567382812 l 2
 440.192382812 507.857421875 438.208007812 546.59765625 434.2109375 558.807617188 c 0
 430.205078125 571.038085938 419.345703125 577.1328125 401.65234375 577.1328125 c 0
 401.538085938 577.1328125 401.461914062 577.124023438 401.3359375 577.124023438 c 0
 401.250976562 577.124023438 401.1640625 577.1328125 401.049804688 577.1328125 c 0
 383.375976562 577.1328125 372.497070312 571.038085938 368.491210938 558.807617188 c 0
 364.494140625 546.59765625 362.51953125 507.857421875 362.51953125 442.567382812 c 2
 362.51953125 372.314453125 l 2
 362.51953125 307.025390625 364.494140625 268.28515625 368.491210938 256.075195312 c 0
 372.497070312 243.854492188 383.365234375 237.75 401.049804688 237.75 c 0
 401.155273438 237.75 401.250976562 237.758789062 401.3359375 237.758789062 c 0
 401.451171875 237.758789062 401.538085938 237.75 401.65234375 237.75 c 0
 419.336914062 237.75 430.1953125 243.854492188 434.2109375 256.075195312 c 0
 438.208007812 268.28515625 440.192382812 307.025390625 440.192382812 372.314453125 c 2
EndSplineSet
Validated: 33
EndChar

StartChar: ordmasculine
Encoding: 188 186 96
Width: 335
VWidth: 0
Flags: W
HStem: 482.854 113.273<145.002 196.015> 687.09 112.91<145.006 196.015>
VStem: 31.7832 277.451
LayerCount: 2
Fore
SplineSet
309.234375 666.927734375 m 0
 310.893554688 649.87109375 310.849609375 632.547851562 309.243164062 615.934570312 c 0
 307.041992188 593.5 301.43359375 571.961914062 292.435546875 551.29296875 c 0
 283.454101562 530.606445312 269.494140625 514.046875 250.57421875 501.569335938 c 0
 231.645507812 489.1015625 207.826171875 482.853515625 179.134765625 482.853515625 c 2
 161.8828125 482.853515625 l 2
 133.19140625 482.853515625 109.373046875 489.1015625 90.4521484375 501.569335938 c 0
 71.5234375 514.055664062 57.5634765625 530.616210938 48.57421875 551.29296875 c 0
 39.583984375 571.961914062 33.966796875 593.5 31.783203125 615.934570312 c 0
 30.1416015625 632.547851562 30.1064453125 649.87109375 31.783203125 666.927734375 c 0
 33.966796875 689.362304688 39.583984375 710.891601562 48.57421875 731.560546875 c 0
 57.5634765625 752.24609375 71.5234375 768.806640625 90.4521484375 781.284179688 c 0
 109.373046875 793.76171875 133.200195312 800 161.8828125 800 c 2
 179.134765625 800 l 2
 207.826171875 800 231.645507812 793.76171875 250.565429688 781.284179688 c 0
 269.485351562 768.797851562 283.4453125 752.237304688 292.42578125 731.560546875 c 0
 301.424804688 710.891601562 307.041992188 689.362304688 309.234375 666.927734375 c 0
197.318359375 623.079101562 m 2
 197.318359375 660.138671875 l 2
 197.318359375 675.030273438 185.2578125 687.08984375 170.3671875 687.08984375 c 0
 155.475585938 687.08984375 143.415039062 675.020507812 143.415039062 660.138671875 c 2
 143.415039062 623.079101562 l 2
 143.415039062 608.1875 155.475585938 596.126953125 170.3671875 596.126953125 c 0
 185.2578125 596.126953125 197.318359375 608.196289062 197.318359375 623.079101562 c 2
EndSplineSet
Validated: 33
EndChar

StartChar: equal
Encoding: 61 61 97
Width: 479
VWidth: 0
Flags: W
HStem: 316.795 138.601<22.7402 444.26> 527.554 138.602<22.7402 444.26>
LayerCount: 2
Fore
SplineSet
22.740234375 527.553710938 m 1
 22.740234375 666.155273438 l 1
 444.259765625 666.155273438 l 1
 444.259765625 527.553710938 l 1
 22.740234375 527.553710938 l 1
22.740234375 316.794921875 m 1
 22.740234375 455.395507812 l 1
 444.259765625 455.395507812 l 1
 444.259765625 316.794921875 l 1
 22.740234375 316.794921875 l 1
EndSplineSet
Validated: 1
EndChar

StartChar: question
Encoding: 63 63 98
Width: 652
VWidth: 0
Flags: W
HStem: 0 137.547<30.2109 304.555> 205.96 265.546<108.154 304.019> 345.988 125.575<308.555 376.802> 682.286 125.595<30.2109 376.902>
VStem: 30.2109 274.344<0 137.547 206.397 343.599> 381.805 240.493<491.182 662.591>
LayerCount: 2
Fore
SplineSet
30.2109375 0 m 1x9c
 30.2109375 137.546875 l 1
 304.5546875 137.546875 l 1
 304.5546875 0 l 1
 30.2109375 0 l 1x9c
622.297851562 574.538085938 m 0
 622.498046875 562.452148438 622.469726562 549.80078125 622.354492188 539.564453125 c 0
 622.498046875 525.322265625 622.287109375 506.009765625 620.600585938 492.140625 c 0
 617.629882812 467.489257812 610 443.825195312 597.790039062 421.110351562 c 0
 585.580078125 398.38671875 566.611328125 380.185546875 540.896484375 366.470703125 c 0
 515.181640625 352.755859375 482.82421875 345.90234375 443.834960938 345.90234375 c 0
 440.481445312 345.90234375 437.384765625 345.90234375 434.2890625 345.90234375 c 0
 427.551757812 345.90234375 420.822265625 345.90234375 414.076171875 345.90234375 c 0
 405.602539062 345.90234375 397.111328125 345.90234375 388.629882812 345.90234375 c 0
 380.098632812 345.911132812 344.291015625 346.610351562 335.081054688 345.98828125 c 0xbc
 323.282226562 345.182617188 311.819335938 339.5859375 308.388671875 327.413085938 c 0
 306.375 320.225585938 304.018554688 206.314453125 304.018554688 206.314453125 c 1
 30.1904296875 205.959960938 l 1
 30.1904296875 267.51171875 l 2
 30.2109375 271.133789062 30.2294921875 274.641601562 30.267578125 277.87109375 c 0
 30.1240234375 292.114257812 30.3349609375 311.426757812 32.01171875 325.295898438 c 0
 34.9833984375 349.946289062 42.6220703125 373.610351562 54.83203125 396.325195312 c 0
 67.0439453125 419.049804688 86.0107421875 437.250976562 111.725585938 450.966796875 c 0
 137.171875 464.528320312 169.145507812 471.362304688 207.5703125 471.505859375 c 2xdc
 344.262695312 471.563476562 l 2xbc
 362.4921875 471.946289062 373.4375 478.310546875 376.973632812 490.770507812 c 0
 379.389648438 499.338867188 381 520.7890625 381.8046875 554.669921875 c 0
 382.12109375 560.803710938 382.275390625 592.009765625 381.91015625 599.102539062 c 0
 381.095703125 632.993164062 379.485351562 654.43359375 377.079101562 663.001953125 c 0
 373.427734375 675.865234375 361.96484375 682.286132812 342.680664062 682.286132812 c 2
 30.2109375 682.286132812 l 1
 30.2109375 807.880859375 l 1
 443.958984375 807.880859375 l 2
 482.94921875 807.880859375 515.305664062 801.02734375 541.01171875 787.311523438 c 0
 566.727539062 773.596679688 585.704101562 755.396484375 597.904296875 732.671875 c 0
 610.115234375 709.95703125 617.75390625 686.29296875 620.724609375 661.641601562 c 0
 622.403320312 647.772460938 622.61328125 628.451171875 622.469726562 614.217773438 c 0
 622.583984375 602.639648438 622.603515625 588.004882812 622.297851562 574.538085938 c 0
EndSplineSet
Validated: 33
EndChar

StartChar: questiondown
Encoding: 192 191 99
Width: 620
VWidth: 0
Flags: W
HStem: -155.478 118.065<256.666 582.565> 160.675 118.058<256.75 320.887> 538.062 129.301<324.674 582.574>
VStem: 25.9775 226.068<-18.8947 142.229> 324.674 257.9<279.903 473.288 538.062 667.362>
LayerCount: 2
Fore
SplineSet
324.673828125 538.061523438 m 1
 324.673828125 667.362304688 l 1
 582.57421875 667.362304688 l 1
 582.57421875 538.061523438 l 1
 324.673828125 538.061523438 l 1
25.9775390625 63.8818359375 m 0
 25.791015625 75.25 25.8173828125 87.1416015625 25.8974609375 96.76171875 c 0
 25.7646484375 110.143554688 25.96875 128.30078125 27.5478515625 141.337890625 c 0
 30.34375 164.508789062 37.5234375 186.756835938 48.998046875 208.109375 c 0
 60.47265625 229.469726562 78.3017578125 246.580078125 102.475585938 259.474609375 c 0
 126.640625 272.360351562 157.0625 278.802734375 193.713867188 278.802734375 c 0
 196.864257812 278.802734375 199.774414062 278.802734375 202.685546875 278.802734375 c 0
 209.022460938 278.802734375 215.349609375 278.802734375 221.685546875 278.802734375 c 0
 229.6640625 278.802734375 237.633789062 278.802734375 245.611328125 278.802734375 c 0
 253.625 278.802734375 287.286132812 278.137695312 295.947265625 278.732421875 c 0
 307.040039062 279.486328125 317.823242188 284.749023438 321.043945312 296.188476562 c 0
 322.934570312 302.950195312 325.14453125 473.411132812 325.14453125 473.411132812 c 1
 582.565429688 473.739257812 l 1
 582.565429688 352.505859375 l 2
 582.547851562 349.09765625 582.530273438 345.805664062 582.495117188 342.76171875 c 0
 582.627929688 329.37890625 582.423828125 311.212890625 580.853515625 298.17578125 c 0
 578.057617188 274.99609375 570.877929688 252.756835938 559.403320312 231.404296875 c 0
 547.928710938 210.043945312 530.099609375 192.93359375 505.92578125 180.0390625 c 0
 482.009765625 167.286132812 451.951171875 160.861328125 415.83203125 160.728515625 c 2
 287.338867188 160.674804688 l 2
 270.202148438 160.3203125 259.908203125 154.330078125 256.588867188 142.615234375 c 0
 254.326171875 134.56640625 252.80859375 114.403320312 252.045898438 82.5537109375 c 0
 251.76171875 76.7763671875 251.610351562 47.4462890625 251.948242188 40.78125 c 0
 252.719726562 8.9306640625 254.237304688 -11.2236328125 256.5 -19.28125 c 0
 259.934570312 -31.3681640625 270.717773438 -37.412109375 288.838867188 -37.412109375 c 2
 582.565429688 -37.412109375 l 1
 582.565429688 -155.477539062 l 1
 193.616210938 -155.477539062 l 2
 156.96484375 -155.477539062 126.54296875 -149.034179688 102.377929688 -136.139648438 c 0
 78.212890625 -123.245117188 60.375 -106.135742188 48.900390625 -84.7744140625 c 0
 37.42578125 -63.4228515625 30.24609375 -41.18359375 27.4501953125 -18.0029296875 c 0
 25.87109375 -4.966796875 25.67578125 13.19921875 25.80859375 26.58203125 c 0
 25.7021484375 37.4619140625 25.6845703125 51.2265625 25.9775390625 63.8818359375 c 0
EndSplineSet
Validated: 33
EndChar

StartChar: degree
Encoding: 161 176 100
Width: 359
VWidth: 0
Flags: W
HStem: 485.835 70.9961<118.777 234.227> 729.004 70.9961<118.777 234.227>
VStem: 19.4219 70.9961<585.194 700.643> 262.591 70.9961<585.194 700.643>
LayerCount: 2
Fore
SplineSet
176.5 729.00390625 m 0
 129.030273438 729.00390625 90.41796875 690.3828125 90.41796875 642.921875 c 0
 90.41796875 595.452148438 129.030273438 556.831054688 176.5 556.831054688 c 0
 223.969726562 556.831054688 262.590820312 595.452148438 262.590820312 642.921875 c 0
 262.590820312 690.3828125 223.969726562 729.00390625 176.5 729.00390625 c 0
176.5 800 m 1
 263.256835938 800 333.586914062 729.669921875 333.586914062 642.921875 c 0
 333.586914062 556.165039062 263.256835938 485.834960938 176.5 485.834960938 c 0
 89.751953125 485.834960938 19.421875 556.165039062 19.421875 642.921875 c 0
 19.421875 729.669921875 89.751953125 800 176.5 800 c 1
EndSplineSet
Validated: 5
EndChar

StartChar: paragraph
Encoding: 166 182 101
Width: 899
VWidth: 0
Flags: W
HStem: 0 21G<229.138 499.831 592.062 867> 647.495 160.386<499.831 592.062>
VStem: 229.138 270.693<0 351.222> 592.062 274.938<0 647.495>
LayerCount: 2
Fore
SplineSet
201.965820312 807.880859375 m 2
 867 807.880859375 l 1
 867 0 l 1
 592.061523438 0 l 1
 592.061523438 647.495117188 l 1
 499.831054688 647.495117188 l 1
 499.831054688 0 l 1
 229.137695312 0 l 1
 229.137695312 351.221679688 l 1
 202.0625 351.221679688 l 2
 163.5234375 351.221679688 131.540039062 357.997070312 106.122070312 371.549804688 c 0
 80.7041015625 385.102539062 61.9482421875 403.1015625 49.880859375 425.55859375 c 0
 37.8046875 448.014648438 30.26171875 471.400390625 27.3193359375 495.7734375 c 0
 25.6611328125 509.489257812 25.5654296875 649.603515625 27.2236328125 663.318359375 c 0
 30.166015625 687.69140625 37.71875 711.087890625 49.78515625 733.534179688 c 0
 61.8515625 755.991210938 80.5986328125 773.990234375 106.016601562 787.541992188 c 0
 131.434570312 801.104492188 163.427734375 807.880859375 201.965820312 807.880859375 c 2
EndSplineSet
Validated: 33
EndChar

StartChar: periodcentered
Encoding: 225 183 102
Width: 278
VWidth: 0
Flags: W
HStem: 429.083 237.072<74.8809 212.119>
VStem: 24.9639 237.072<479 616.238>
LayerCount: 2
Fore
SplineSet
24.9638671875 547.619140625 m 0
 24.9638671875 613.084960938 78.0341796875 666.155273438 143.5 666.155273438 c 0
 208.965820312 666.155273438 262.036132812 613.084960938 262.036132812 547.619140625 c 0
 262.036132812 482.153320312 208.965820312 429.083007812 143.5 429.083007812 c 0
 78.0341796875 429.083007812 24.9638671875 482.153320312 24.9638671875 547.619140625 c 0
EndSplineSet
Validated: 1
EndChar

StartChar: asciitilde
Encoding: 126 126 103
Width: 353
VWidth: 0
Flags: W
HStem: 525.628 140.519
VStem: 17.0146 310.526
LayerCount: 2
Fore
SplineSet
17.0146484375 632.90234375 m 2
 17.0146484375 632.90234375 77.130859375 692.086914062 172.327148438 652.533203125 c 0
 284.73046875 605.8359375 327.541015625 666.146484375 327.541015625 666.146484375 c 1
 327.647460938 540.262695312 l 1
 327.647460938 540.262695312 249.659179688 507.329101562 172.327148438 540.262695312 c 0
 81.16796875 579.087890625 17.0146484375 525.627929688 17.0146484375 525.627929688 c 1
 17.0146484375 632.90234375 l 2
EndSplineSet
Validated: 33
EndChar

StartChar: numbersign
Encoding: 35 35 104
Width: 849
VWidth: 0
Flags: W
HStem: 0 21G<39.1895 318.315 401.892 681.028> 166.95 166.962<24.5547 67.0225 370.666 429.726 733.37 820.933> 473.958 166.962<24.5635 118.213 421.856 480.935 784.569 820.933>
LayerCount: 2
Fore
SplineSet
820.932617188 473.958007812 m 1
 756.7265625 473.958007812 l 1
 733.370117188 333.912109375 l 1
 820.932617188 333.912109375 l 1
 820.932617188 166.950195312 l 1
 705.52734375 166.950195312 l 1
 677.693359375 0 l 1
 401.891601562 0 l 1
 429.725585938 166.950195312 l 1
 342.813476562 166.950195312 l 1
 314.98046875 0 l 1
 39.189453125 0 l 1
 67.0224609375 166.950195312 l 1
 24.5546875 166.950195312 l 1
 24.5546875 333.912109375 l 1
 94.85546875 333.912109375 l 1
 118.212890625 473.958007812 l 1
 24.5634765625 473.958007812 l 1
 24.5634765625 640.919921875 l 1
 146.055664062 640.919921875 l 1
 173.888671875 807.870117188 l 1
 449.689453125 807.870117188 l 1
 421.856445312 640.919921875 l 1
 508.767578125 640.919921875 l 1
 536.600585938 807.870117188 l 1
 812.40234375 807.870117188 l 1
 784.569335938 640.919921875 l 1
 820.932617188 640.919921875 l 1
 820.932617188 473.958007812 l 1
457.577148438 333.90234375 m 1
 480.934570312 473.94921875 l 1
 394.022460938 473.94921875 l 1
 370.666015625 333.90234375 l 1
 457.577148438 333.90234375 l 1
EndSplineSet
Validated: 1
EndChar

StartChar: asciicircum
Encoding: 94 94 105
Width: 482
VWidth: 0
Flags: W
HStem: 486.679 313.321<-87.0986 -53.8643 99.2646 132.5>
LayerCount: 2
Fore
SplineSet
456.94140625 486.678710938 m 1
 318.86328125 486.678710938 l 1
 242.294921875 715.48828125 l 1
 165.734375 486.678710938 l 1
 27.6572265625 486.678710938 l 1
 132.5 800 l 1
 352.098632812 800 l 1
 456.94140625 486.678710938 l 1
EndSplineSet
Validated: 1
EndChar

StartChar: braceright
Encoding: 125 125 106
Width: 569
VWidth: 0
Flags: W
HStem: -156.152 143.882<24.4424 184.36> 656.687 143.943<24.4424 184.36>
VStem: 190.351 247.313<6.05188 105.831 105.911 263.873 379.187 538.567 538.647 638.417>
LayerCount: 2
Fore
SplineSet
190.448242188 425.772460938 m 0
 190.421875 425.967773438 190.377929688 426.145507812 190.350585938 426.340820312 c 2
 190.350585938 526.337890625 l 2
 190.350585938 589.61328125 188.424804688 627.161132812 184.546875 638.990234375 c 0
 180.66015625 650.837890625 170.15234375 656.748046875 153.006835938 656.748046875 c 2
 153.006835938 656.899414062 l 2
 147.150390625 656.899414062 25.9423828125 656.79296875 24.4423828125 656.686523438 c 2
 24.4423828125 800.629882812 l 1
 265.055664062 800.629882812 l 2
 302.1953125 800.629882812 333.0078125 794.08984375 357.500976562 781.03515625 c 0
 381.986328125 767.962890625 400.0546875 750.640625 411.6796875 728.995117188 c 0
 423.305664062 707.368164062 430.58203125 684.827148438 433.404296875 661.345703125 c 0
 436.004882812 639.869140625 437.442382812 598.922851562 437.655273438 538.647460938 c 1
 437.690429688 538.647460938 l 1
 437.690429688 538.647460938 438.108398438 428.151367188 438.809570312 423.448242188 c 0
 441.950195312 361.477539062 544.56640625 322.243164062 544.56640625 322.243164062 c 1
 544.56640625 322.243164062 441.391601562 282.778320312 438.791015625 220.506835938 c 0
 438.21484375 216.592773438 437.700195312 105.831054688 437.700195312 105.831054688 c 1
 437.6640625 105.831054688 l 1
 437.459960938 45.546875 436.013671875 4.6181640625 433.413085938 -16.8671875 c 0
 430.591796875 -40.349609375 423.314453125 -62.890625 411.688476562 -84.5263671875 c 0
 400.0546875 -106.162109375 381.995117188 -123.502929688 357.509765625 -136.56640625 c 0
 333.016601562 -149.620117188 302.204101562 -156.15234375 265.064453125 -156.15234375 c 2
 24.4423828125 -156.15234375 l 1
 24.4423828125 -12.0302734375 l 2
 25.8984375 -12.1279296875 152.891601562 -12.2705078125 153.006835938 -12.2705078125 c 0
 170.15234375 -12.2705078125 180.668945312 -6.3603515625 184.546875 5.478515625 c 0
 188.43359375 17.30859375 190.350585938 54.84765625 190.350585938 118.122070312 c 2
 190.350585938 218.758789062 l 2
 190.38671875 219.051757812 190.45703125 219.282226562 190.501953125 219.557617188 c 0
 192.223632812 281.483398438 303.66015625 321.063476562 306.819335938 322.172851562 c 2
 306.908203125 322.225585938 l 1
 306.819335938 322.279296875 l 2
 303.642578125 323.40625 191.140625 363.349609375 190.448242188 425.772460938 c 0
EndSplineSet
Validated: 1
EndChar

StartChar: underscore
Encoding: 95 95 107
Width: 638
VWidth: 0
Flags: W
HStem: 6.81934 155.181<22.4541 618.546>
LayerCount: 2
Fore
SplineSet
22.4541015625 6.8193359375 m 1
 22.4541015625 162 l 1
 618.545898438 162 l 1
 618.545898438 6.8193359375 l 1
 22.4541015625 6.8193359375 l 1
EndSplineSet
Validated: 1
EndChar

StartChar: germandbls
Encoding: 167 223 108
Width: 883
VWidth: 0
Flags: W
HStem: 0 134.852<386.174 667.202> 647.542 159.829<308.449 579.532>
VStem: 27.3135 274.947<0.00878906 627.191>
LayerCount: 2
Fore
SplineSet
858.224609375 208.172851562 m 0
 863.763671875 159.78125 855.540039062 107.661132812 836.190429688 68.748046875 c 0
 825.982421875 48.208984375 809.8515625 31.46484375 788.201171875 18.986328125 c 0
 766.38671875 6.392578125 738.255859375 0 704.577148438 0 c 2
 386 0 l 1
 386 134.516601562 l 1
 386 134.516601562 626.608398438 134.8515625 627.872070312 134.8515625 c 0
 653.271484375 134.8515625 673.859375 155.439453125 673.859375 180.838867188 c 0
 673.859375 206.24609375 653.271484375 226.833007812 627.872070312 226.833007812 c 2
 627.872070312 226.833007812 523.114257812 226.354492188 514.517578125 226.354492188 c 0
 480.838867188 226.354492188 452.698242188 232.747070312 430.893554688 245.33203125 c 0
 409.232421875 257.80078125 393.092773438 274.564453125 382.904296875 295.09375 c 0
 363.583007812 334.006835938 355.330078125 386.126953125 360.908203125 434.52734375 c 0
 362.048828125 444.620117188 363.793945312 454.454101562 366.064453125 463.750976562 c 0
 370.387695312 481.520507812 376.186523438 498.043945312 382.904296875 511.51953125 c 0
 393.102539062 532.05859375 409.232421875 548.802734375 430.893554688 561.291992188 c 0
 450.159179688 572.409179688 474.37890625 578.676757812 502.978515625 579.990234375 c 2
 502.978515625 580.010742188 l 2
 503.293945312 580.010742188 503.572265625 580.010742188 503.888671875 580.010742188 c 0
 507.377929688 580.153320312 510.904296875 580.268554688 514.517578125 580.268554688 c 2
 534.913085938 580.268554688 l 2
 560.3125 580.268554688 580.8984375 589.594726562 580.8984375 614.993164062 c 0
 580.8984375 639.625 561.481445312 647.110351562 537.13671875 647.541992188 c 2
 343.244140625 647.541992188 l 2
 324.219726562 647.541992188 312.536132812 640.986328125 308.2421875 627.827148438 c 0
 303.918945312 614.696289062 301.791992188 573.032226562 301.791992188 502.797851562 c 2
 302.260742188 0.0087890625 l 1
 27.3134765625 0.0087890625 l 1
 27.3134765625 516.456054688 l 2
 27.54296875 583.354492188 29.1337890625 628.794921875 32.029296875 652.630859375 c 0
 35.171875 678.69140625 43.2421875 703.706054688 56.1435546875 727.71484375 c 0
 69.0537109375 751.733398438 89.09375 770.969726562 116.28515625 785.470703125 c 0
 143.45703125 799.961914062 177.663085938 807.21875 218.88671875 807.21875 c 2
 218.88671875 807.21875 593.090820312 807.37109375 596.618164062 807.37109375 c 0
 627.987304688 807.37109375 664.034179688 805.856445312 695.250976562 787.819335938 c 0
 716.901367188 775.340820312 733.04296875 758.586914062 743.25 738.057617188 c 0
 749.94921875 724.572265625 755.7578125 708.047851562 760.088867188 690.26953125 c 0
 762.361328125 681.000976562 764.086914062 671.166992188 765.265625 661.065429688 c 0
 770.8046875 612.673828125 762.572265625 560.553710938 743.25 521.640625 c 0
 733.04296875 501.1015625 716.901367188 484.357421875 695.250976562 471.87890625 c 0
 673.446289062 459.284179688 645.306640625 452.891601562 611.626953125 452.891601562 c 2
 598.1328125 452.891601562 l 1
 591.375 452.833984375 l 2
 564.385742188 452.833984375 542.513671875 430.071289062 542.513671875 403.090820312 c 0
 542.513671875 376.1015625 564.395507812 354.23046875 591.375 354.23046875 c 0
 592.716796875 354.23046875 683.4140625 354.469726562 689.577148438 354.469726562 c 0
 720.946289062 354.469726562 756.994140625 352.9453125 788.219726562 334.927734375 c 0
 809.861328125 322.448242188 826.001953125 305.694335938 836.208984375 285.165039062 c 0
 842.91796875 271.689453125 848.7265625 255.165039062 853.05859375 237.38671875 c 0
 855.3203125 228.108398438 857.045898438 218.274414062 858.224609375 208.172851562 c 0
EndSplineSet
Validated: 33
EndChar

StartChar: OE
Encoding: 206 338 109
Width: 907
VWidth: 0
Flags: W
HStem: 0 160.558<298.679 372.901 643.238 869> 392.615 160.568<643.238 869> 646.277 160.567<298.679 372.901 643.238 869>
VStem: 25.0244 267.176<175.238 631.596> 372.901 270.337<160.558 392.615 553.184 646.277>
LayerCount: 2
Fore
SplineSet
869 646.27734375 m 1
 643.23828125 646.27734375 l 1
 643.23828125 553.18359375 l 1
 869 553.18359375 l 1
 869 392.615234375 l 1
 643.23828125 392.615234375 l 1
 643.23828125 160.557617188 l 1
 869 160.557617188 l 1
 869 0 l 1
 211.508789062 0 l 2
 171.387695312 0 138.092773438 7.0546875 111.638671875 21.162109375 c 0
 85.1669921875 35.2705078125 65.6630859375 54.0078125 53.087890625 77.3837890625 c 0
 40.5322265625 100.750976562 32.6640625 125.10546875 29.6162109375 150.474609375 c 0
 26.7978515625 173.6796875 25.2451171875 217.901367188 25.0244140625 283.02734375 c 2
 25.0244140625 523.806640625 l 2
 25.2451171875 588.932617188 26.7978515625 633.165039062 29.6162109375 656.370117188 c 0
 32.673828125 681.729492188 40.5322265625 706.083007812 53.087890625 729.451171875 c 0
 65.6630859375 752.836914062 85.1669921875 771.564453125 111.638671875 785.671875 c 0
 138.083007812 799.78125 171.37890625 806.844726562 211.508789062 806.844726562 c 2
 869 806.844726562 l 1
 869 646.27734375 l 1
372.901367188 155.4296875 m 2
 372.901367188 651.404296875 l 1
 332.560546875 651.404296875 l 2
 314.033203125 651.404296875 302.666015625 645.021484375 298.477539062 632.215820312 c 0
 294.270507812 619.431640625 292.200195312 578.870117188 292.200195312 510.50390625 c 2
 292.200195312 296.311523438 l 2
 292.200195312 227.956054688 294.280273438 187.404296875 298.477539062 174.618164062 c 0
 302.666015625 161.814453125 314.033203125 155.4296875 332.560546875 155.4296875 c 0
 332.588867188 155.4296875 372.901367188 155.4296875 372.901367188 155.4296875 c 2
EndSplineSet
Validated: 1
EndChar

StartChar: trademark
Encoding: 170 8482 110
Width: 752
VWidth: 0
Flags: W
HStem: 486.679 313.321<88.3164 230.867 333.802 467.212 548.271 556.429 590.768 599.672 660.719 704.789> 674.826 125.174<17.0371 88.3164 230.867 302.804> 683.346 116.619<467.212 523.395>
VStem: 88.3164 142.551<486.679 674.826> 333.802 133.41<486.679 683.346> 528.259 71.4131<486.679 667.973> 660.719 71.2354<486.679 668.486>
LayerCount: 2
Fore
SplineSet
302.803710938 800 m 1x5e
 302.803710938 674.826171875 l 1
 230.8671875 674.826171875 l 1x5e
 230.8671875 486.678710938 l 1
 88.31640625 486.678710938 l 1x9e
 88.31640625 674.826171875 l 1
 17.037109375 674.826171875 l 1
 17.037109375 800 l 1
 302.803710938 800 l 1x5e
717.604492188 763.579101562 m 0
 724.153320312 754.26953125 728.58203125 743.380859375 730.028320312 731.391601562 c 0
 731.022460938 723.236328125 731.661132812 709.311523438 731.954101562 689.788085938 c 2
 731.954101562 486.678710938 l 1
 660.71875 486.678710938 l 1x9e
 660.71875 577.615234375 l 2
 660.71875 628.91796875 659.1484375 659.348632812 656.006835938 668.951171875 c 0
 652.856445312 678.552734375 644.328125 683.345703125 630.430664062 683.345703125 c 0x3e
 615.547851562 683.345703125 606.700195312 678.384765625 603.88671875 668.454101562 c 0
 601.100585938 658.532226562 599.671875 626.592773438 599.671875 572.654296875 c 2
 599.671875 486.678710938 l 1
 528.258789062 486.678710938 l 1x9e
 528.258789062 577.615234375 l 2
 528.258789062 628.91796875 526.688476562 659.348632812 523.546875 668.951171875 c 0
 520.396484375 678.552734375 511.868164062 683.345703125 497.970703125 683.345703125 c 2
 467.211914062 683.345703125 l 1x3e
 467.211914062 486.678710938 l 1
 333.801757812 486.678710938 l 1
 333.801757812 800 l 1x9e
 481.650390625 799.96484375 l 2x3e
 486.62890625 799.911132812 493.213867188 799.635742188 498.9375 799.34375 c 0
 515.9765625 796.645507812 532.447265625 791.178710938 548.270507812 782.66796875 c 0
 557.740234375 777.583007812 566.162109375 770.91796875 573.598632812 762.7890625 c 1
 581.03515625 770.909179688 589.45703125 777.583007812 598.92578125 782.66796875 c 0
 611.155273438 789.244140625 626.614257812 794.267578125 640.325195312 796.352539062 c 0
 670.321289062 800.9140625 700.8671875 787.389648438 717.604492188 763.579101562 c 0
EndSplineSet
Validated: 33
EndChar

StartChar: dagger
Encoding: 160 8224 111
Width: 383
VWidth: 0
Flags: W
HStem: 616.112 96.0479<23.5479 118.603 260.922 355.985> 780 20G<118.603 260.922>
VStem: 118.603 142.319<365.036 616.112 712.16 800>
LayerCount: 2
Fore
SplineSet
355.985351562 712.16015625 m 1
 355.985351562 616.112304688 l 1
 260.921875 616.112304688 l 1
 260.921875 365.036132812 l 1
 118.602539062 365.036132812 l 1
 118.602539062 616.112304688 l 1
 23.5478515625 616.112304688 l 1
 23.5478515625 712.16015625 l 1
 118.602539062 712.16015625 l 1
 118.602539062 800 l 1
 260.921875 800 l 1
 260.921875 712.16015625 l 1
 355.985351562 712.16015625 l 1
EndSplineSet
Validated: 1
EndChar

StartChar: daggerdbl
Encoding: 224 8225 112
Width: 398
VWidth: 0
Flags: W
HStem: 452.876 96.0479<35.5479 130.603 272.922 367.985> 616.112 96.0479<35.5479 130.603 272.922 367.985> 780 20G<130.603 272.922>
VStem: 130.603 142.319<365.036 452.876 548.924 616.112 712.16 800>
LayerCount: 2
Fore
SplineSet
367.985351562 616.112304688 m 1
 272.921875 616.112304688 l 1
 272.921875 548.923828125 l 1
 367.985351562 548.923828125 l 1
 367.985351562 452.875976562 l 1
 272.921875 452.875976562 l 1
 272.921875 365.036132812 l 1
 130.602539062 365.036132812 l 1
 130.602539062 452.875976562 l 1
 35.5478515625 452.875976562 l 1
 35.5478515625 548.923828125 l 1
 130.602539062 548.923828125 l 1
 130.602539062 616.112304688 l 1
 35.5478515625 616.112304688 l 1
 35.5478515625 712.16015625 l 1
 130.602539062 712.16015625 l 1
 130.602539062 800 l 1
 272.921875 800 l 1
 272.921875 712.16015625 l 1
 367.985351562 712.16015625 l 1
 367.985351562 616.112304688 l 1
EndSplineSet
Validated: 1
EndChar

StartChar: uniFB01
Encoding: 222 64257 113
Width: 747
VWidth: 0
Flags: W
HStem: 0 21G<448.287 725> 381.729 138.974<269.922 448.287> 662.877 137.556<275.254 364.662 448.278 725>
VStem: 19.165 250.661<-7.34262 381.729 520.702 660.378> 448.287 276.713<0 381.729 520.702 520.932 662.877 800.433>
LayerCount: 2
Fore
SplineSet
448.287109375 520.931640625 m 1
 725 520.931640625 l 1
 725 0 l 1
 448.287109375 0 l 1
 448.287109375 381.728515625 l 1
 269.826171875 381.728515625 l 1
 270.21875 -7.830078125 l 1
 19.0302734375 -7.830078125 l 1
 19.0302734375 -7.830078125 18.8671875 664.708007812 19.1650390625 667.09375 c 0
 21.857421875 689.5703125 28.8251953125 711.143554688 39.97265625 731.85546875 c 0
 51.109375 752.577148438 68.380859375 769.168945312 91.833984375 781.67578125 c 0
 115.258789062 794.18359375 144.768554688 800.432617188 180.3359375 800.432617188 c 2
 364.701171875 800.432617188 l 1
 364.701171875 662.876953125 l 1
 364.701171875 662.876953125 310.51171875 662.647460938 309.294921875 662.647460938 c 0
 290.116210938 662.647460938 278.7109375 656.244140625 275.078125 643.458984375 c 0
 274.743164062 642.280273438 274.435546875 640.78515625 274.12890625 639.1171875 c 0
 271.809570312 619.977539062 270.41015625 568.192382812 269.921875 520.702148438 c 1
 448.287109375 520.702148438 l 1
 448.287109375 520.931640625 l 1
448.278320312 662.876953125 m 1
 448.278320312 800.432617188 l 1
 725 800.432617188 l 1
 725 662.876953125 l 1
 448.278320312 662.876953125 l 1
EndSplineSet
Validated: 33
EndChar

StartChar: uniFB02
Encoding: 223 64258 114
Width: 752
VWidth: 0
Flags: W
HStem: -0.382812 21G<19.0303 270.199> 0 21G<19.0303 270.199 448.278 725> 389.176 138.974<269.922 448.269> 670.085 137.795<275.244 364.662>
VStem: 19.165 250.661<0.104647 389.176 528.149 667.819> 448.278 276.722<0 389.176 528.149 807.88>
LayerCount: 2
Fore
SplineSet
725 807.879882812 m 1xbc
 725 0 l 1
 448.278320312 0 l 1x7c
 448.268554688 389.17578125 l 1
 269.826171875 389.17578125 l 1
 270.21875 -0.3828125 l 1
 19.0302734375 -0.3828125 l 1
 19.0302734375 -0.3828125 18.8671875 672.155273438 19.1650390625 674.541015625 c 0
 21.857421875 697.017578125 28.8251953125 718.590820312 39.97265625 739.302734375 c 0
 51.109375 760.014648438 68.380859375 776.616210938 91.833984375 789.114257812 c 0
 115.267578125 801.630859375 144.768554688 807.879882812 180.3359375 807.879882812 c 2
 364.701171875 807.879882812 l 1
 364.701171875 670.315429688 l 1
 364.701171875 670.315429688 310.501953125 670.084960938 309.294921875 670.084960938 c 0
 290.106445312 670.084960938 278.701171875 663.69140625 275.068359375 650.90625 c 0
 274.733398438 649.717773438 274.416992188 648.232421875 274.119140625 646.5546875 c 0
 271.80078125 627.424804688 270.41015625 575.639648438 269.921875 528.149414062 c 1
 448.268554688 528.149414062 l 1
 448.268554688 807.879882812 l 1
 725 807.879882812 l 1xbc
EndSplineSet
Validated: 33
EndChar

